STARTFONT 2.1
FONT -FontForge-Good Times Rg-Book-R-Normal--171-1640-75-75-P-1270-ISO10646-1
SIZE 164 75 75
FONTBOUNDINGBOX 341 201 -48 -35
COMMENT "Generated by fontforge, http://fontforge.sourceforge.net"
COMMENT "(c) 1998-2012 Typodermic Fonts Inc. See attached license agreement. If agreement is missing visit typodermicfonts.com for more info. Languages by Chikako Larabie"
STARTPROPERTIES 39
FOUNDRY "FontForge"
FAMILY_NAME "Good Times Rg"
WEIGHT_NAME "Book"
SLANT "R"
SETWIDTH_NAME "Normal"
ADD_STYLE_NAME ""
PIXEL_SIZE 171
POINT_SIZE 1640
RESOLUTION_X 75
RESOLUTION_Y 75
SPACING "P"
AVERAGE_WIDTH 1270
CHARSET_REGISTRY "ISO10646"
CHARSET_ENCODING "1"
FONTNAME_REGISTRY ""
CHARSET_COLLECTIONS "ISO8859-2 ISO8859-9 ISO8859-4 ISO10646-1"
FONT_NAME "GoodTimesRg-Regular"
FACE_NAME "GoodTimesRg-Regular"
COPYRIGHT "(c) 1998-2012 Typodermic Fonts Inc. See attached license agreement. If agreement is missing visit typodermicfonts.com for more info. Languages by Chikako Larabie"
FONT_VERSION "4.001"
FONT_ASCENT 137
FONT_DESCENT 34
UNDERLINE_POSITION -24
UNDERLINE_THICKNESS 4
X_HEIGHT 123
CAP_HEIGHT 123
RAW_ASCENT 799
RAW_DESCENT 201
NORM_SPACE 50
RELATIVE_WEIGHT 40
RELATIVE_SETWIDTH 50
SUPERSCRIPT_X 0
SUPERSCRIPT_Y 51
SUPERSCRIPT_SIZE 51
SUBSCRIPT_X 0
SUBSCRIPT_Y 0
SUBSCRIPT_SIZE 51
AVG_LOWERCASE_WIDTH 1457
AVG_UPPERCASE_WIDTH 1452
ENDPROPERTIES
CHARS 372
STARTCHAR space
ENCODING 32
SWIDTH 294 0
DWIDTH 50 0
BBX 1 1 0 0
BITMAP
00
ENDCHAR
STARTCHAR exclam
ENCODING 33
SWIDTH 298 0
DWIDTH 51 0
BBX 23 124 14 0
BITMAP
7FFFFC
7FFFFC
7FFFFC
7FFFFC
7FFFFC
7FFFFC
7FFFFC
7FFFFC
7FFFFC
7FFFFC
7FFFFC
7FFFFC
7FFFFC
7FFFFC
7FFFFC
7FFFFC
7FFFFC
7FFFFC
7FFFFC
7FFFFC
7FFFFC
7FFFFC
7FFFFC
7FFFFC
7FFFFC
7FFFFC
7FFFFC
7FFFFC
7FFFFC
7FFFFC
7FFFFC
7FFFFC
7FFFFC
7FFFFC
7FFFFC
7FFFFC
7FFFFC
7FFFFC
7FFFFC
7FFFFC
7FFFFC
7FFFFC
7FFFFC
7FFFFC
7FFFFC
7FFFFC
7FFFFC
7FFFFC
7FFFFC
7FFFFC
7FFFFC
7FFFFC
7FFFFC
7FFFFC
7FFFFC
7FFFFC
7FFFFC
7FFFFC
7FFFFC
7FFFFC
7FFFFC
7FFFFC
7FFFFC
7FFFFC
7FFFFC
7FFFFC
7FFFFC
7FFFFC
7FFFFC
7FFFFC
7FFFFC
7FFFFC
7FFFFC
7FFFFC
7FFFFC
7FFFFC
7FFFFC
7FFFFC
7FFFFC
7FFFFC
7FFFFC
7FFFFC
7FFFFC
7FFFFC
000000
000000
000000
000000
000000
000000
000000
000000
000000
000000
000000
000000
000000
000000
000000
000000
000000
00FF00
03FFC0
0FFFE0
1FFFF0
3FFFF8
3FFFFC
7FFFFC
7FFFFE
FFFFFE
FFFFFE
FFFFFE
FFFFFE
FFFFFE
FFFFFE
7FFFFE
7FFFFE
7FFFFC
3FFFFC
3FFFF8
1FFFF8
0FFFE0
03FFC0
00FF00
ENDCHAR
STARTCHAR quotedbl
ENCODING 34
SWIDTH 452 0
DWIDTH 77 0
BBX 54 45 12 79
BITMAP
FFFFFC00FFFFFC
FFFFFC00FFFFFC
FFFFF800FFFFF8
FFFFF800FFFFF8
FFFFF800FFFFF8
FFFFF800FFFFF8
FFFFF800FFFFF8
FFFFF800FFFFF8
FFFFF800FFFFF8
FFFFF800FFFFF8
7FFFF8007FFFF8
7FFFF8007FFFF8
7FFFF8007FFFF8
7FFFF8007FFFF0
7FFFF0007FFFF0
7FFFF0007FFFF0
7FFFF0007FFFF0
7FFFF0007FFFF0
7FFFF0007FFFF0
7FFFF0007FFFF0
7FFFF0007FFFF0
3FFFF0003FFFF0
3FFFF0003FFFF0
3FFFF0003FFFF0
3FFFF0003FFFF0
3FFFE0003FFFE0
3FFFE0003FFFE0
3FFFE0003FFFE0
3FFFE0003FFFE0
3FFFE0003FFFE0
3FFFE0003FFFE0
3FFFE0003FFFE0
3FFFE0001FFFE0
1FFFE0001FFFE0
1FFFE0001FFFE0
1FFFE0001FFFE0
1FFFE0001FFFC0
1FFFC0001FFFC0
1FFFC0001FFFC0
1FFFC0001FFFC0
1FFFC0001FFFC0
1FFFC0001FFFC0
1FFFC0001FFFC0
1FFFC0000FFFC0
0FFFC0000FFFC0
ENDCHAR
STARTCHAR numbersign
ENCODING 35
SWIDTH 697 0
DWIDTH 119 0
BBX 105 124 8 0
BITMAP
00000000003FFFC000001FFFE000
00000000003FFF8000001FFFC000
00000000003FFF8000003FFFC000
00000000007FFF8000003FFF8000
00000000007FFF0000003FFF8000
00000000007FFF0000007FFF8000
0000000000FFFF0000007FFF8000
0000000000FFFF0000007FFF0000
0000000000FFFE0000007FFF0000
0000000001FFFE000000FFFF0000
0000000001FFFE000000FFFE0000
0000000001FFFC000000FFFE0000
0000000001FFFC000001FFFE0000
0000000003FFFC000001FFFC0000
0000000003FFFC000001FFFC0000
0000000003FFF8000003FFFC0000
0000000007FFF8000003FFFC0000
0000000007FFF8000003FFF80000
0000000007FFF0000003FFF80000
000000000FFFF0000007FFF80000
000000000FFFF0000007FFF00000
000000000FFFE0000007FFF00000
000000000FFFE000000FFFF00000
000000001FFFE000000FFFF00000
000000001FFFE000000FFFE00000
000000001FFFC000001FFFE00000
000000003FFFC000001FFFE00000
000000003FFFC000001FFFC00000
000000003FFF8000001FFFC00000
000000007FFF8000003FFFC00000
000000007FFF8000003FFF800000
000000007FFF0000003FFF800000
0007FFFFFFFFFFFFFFFFFFFFFF80
0007FFFFFFFFFFFFFFFFFFFFFF80
0007FFFFFFFFFFFFFFFFFFFFFF80
0007FFFFFFFFFFFFFFFFFFFFFF80
0007FFFFFFFFFFFFFFFFFFFFFF80
0007FFFFFFFFFFFFFFFFFFFFFF80
0007FFFFFFFFFFFFFFFFFFFFFF80
0007FFFFFFFFFFFFFFFFFFFFFF80
0007FFFFFFFFFFFFFFFFFFFFFF80
0007FFFFFFFFFFFFFFFFFFFFFF80
0007FFFFFFFFFFFFFFFFFFFFFF80
0007FFFFFFFFFFFFFFFFFFFFFF80
0007FFFFFFFFFFFFFFFFFFFFFF80
0007FFFFFFFFFFFFFFFFFFFFFF80
0000000FFFF0000007FFF0000000
0000000FFFE0000007FFF0000000
0000001FFFE000000FFFF0000000
0000001FFFE000000FFFF0000000
0000001FFFC000000FFFE0000000
0000001FFFC000001FFFE0000000
0000003FFFC000001FFFE0000000
0000003FFF8000001FFFC0000000
0000003FFF8000001FFFC0000000
0000007FFF8000003FFFC0000000
0000007FFF8000003FFF80000000
0000007FFF0000003FFF80000000
0000007FFF0000007FFF80000000
000000FFFF0000007FFF80000000
000000FFFE0000007FFF00000000
000000FFFE0000007FFF00000000
000001FFFE000000FFFF00000000
000001FFFC000000FFFE00000000
000001FFFC000000FFFE00000000
000003FFFC000001FFFE00000000
000003FFFC000001FFFC00000000
000003FFF8000001FFFC00000000
000003FFF8000003FFFC00000000
000007FFF8000003FFFC00000000
000007FFF0000003FFF800000000
000007FFF0000003FFF800000000
00000FFFF0000007FFF800000000
00000FFFF0000007FFF000000000
00000FFFE0000007FFF000000000
00001FFFE000000FFFF000000000
FFFFFFFFFFFFFFFFFFFFFFE00000
FFFFFFFFFFFFFFFFFFFFFFE00000
FFFFFFFFFFFFFFFFFFFFFFE00000
FFFFFFFFFFFFFFFFFFFFFFE00000
FFFFFFFFFFFFFFFFFFFFFFE00000
FFFFFFFFFFFFFFFFFFFFFFE00000
FFFFFFFFFFFFFFFFFFFFFFE00000
FFFFFFFFFFFFFFFFFFFFFFE00000
FFFFFFFFFFFFFFFFFFFFFFE00000
FFFFFFFFFFFFFFFFFFFFFFE00000
FFFFFFFFFFFFFFFFFFFFFFE00000
FFFFFFFFFFFFFFFFFFFFFFE00000
FFFFFFFFFFFFFFFFFFFFFFE00000
FFFFFFFFFFFFFFFFFFFFFFE00000
FFFFFFFFFFFFFFFFFFFFFFE00000
0001FFFC000000FFFE0000000000
0003FFFC000001FFFE0000000000
0003FFFC000001FFFC0000000000
0003FFF8000001FFFC0000000000
0003FFF8000003FFFC0000000000
0007FFF8000003FFFC0000000000
0007FFF0000003FFF80000000000
0007FFF0000007FFF80000000000
000FFFF0000007FFF80000000000
000FFFE0000007FFF00000000000
000FFFE0000007FFF00000000000
001FFFE000000FFFF00000000000
001FFFC000000FFFE00000000000
001FFFC000000FFFE00000000000
001FFFC000001FFFE00000000000
003FFFC000001FFFC00000000000
003FFF8000001FFFC00000000000
003FFF8000003FFFC00000000000
007FFF8000003FFFC00000000000
007FFF0000003FFF800000000000
007FFF0000007FFF800000000000
00FFFF0000007FFF800000000000
00FFFE0000007FFF000000000000
00FFFE0000007FFF000000000000
00FFFE000000FFFF000000000000
01FFFE000000FFFE000000000000
01FFFC000000FFFE000000000000
01FFFC000001FFFE000000000000
03FFFC000001FFFC000000000000
03FFF8000001FFFC000000000000
03FFF8000003FFFC000000000000
07FFF8000003FFFC000000000000
07FFF0000003FFF8000000000000
ENDCHAR
STARTCHAR dollar
ENCODING 36
SWIDTH 744 0
DWIDTH 127 0
BBX 107 124 10 0
BITMAP
0000000000003FE0000000000000
0000000000003FE0000000000000
0000000000003FE0000000000000
0000000000003FE0000000000000
0000000000003FE0000000000000
0000000000003FE0000000000000
0000000000003FE0000000000000
0000000000003FE0000000000000
0000000000003FE0000000000000
0000000000003FE0000000000000
0000000000003FE0000000000000
0000000000003FE0000000000000
000000FFFFFFFFFFFFFFFFFFFC00
00001FFFFFFFFFFFFFFFFFFFFC00
0000FFFFFFFFFFFFFFFFFFFFFC00
0003FFFFFFFFFFFFFFFFFFFFFC00
000FFFFFFFFFFFFFFFFFFFFFFC00
001FFFFFFFFFFFFFFFFFFFFFFC00
007FFFFFFFFFFFFFFFFFFFFFFC00
00FFFFFFFFFFFFFFFFFFFFFFFC00
01FFFFFFFFFFFFFFFFFFFFFFFC00
03FFFFFFFFFFFFFFFFFFFFFFFC00
07FFFFFFFFFFFFFFFFFFFFFFFC00
0FFFFFFFFFFFFFFFFFFFFFFFFC00
0FFFFFFFFFFFFFFFFFFFFFFFFC00
1FFFFFFFFFFFFFFFFFFFFFFFFC00
1FFFFFFFFFFFFFFFFFFFFFFFFC00
3FFFFFFFFFFFFFFFFFFFFFFFFC00
3FFFFFFFFFFFFFFFFFFFFFFFFC00
7FFFFFC000003FE0000000000000
7FFFFF0000003FE0000000000000
7FFFFC0000003FE0000000000000
7FFFF80000003FE0000000000000
FFFFF00000003FE0000000000000
FFFFF00000003FE0000000000000
FFFFE00000003FE0000000000000
FFFFE00000003FE0000000000000
FFFFC00000003FE0000000000000
FFFFC00000003FE0000000000000
FFFFC00000003FE0000000000000
FFFFC00000003FE0000000000000
FFFFC00000003FE0000000000000
FFFFC00000003FE0000000000000
FFFFC00000003FE0000000000000
FFFFC00000003FE0000000000000
FFFFC00000003FE0000000000000
FFFFE00000003FE0000000000000
7FFFE00000003FE0000000000000
7FFFF00000003FE0000000000000
7FFFF00000003FE0000000000000
3FFFF80000003FE0000000000000
3FFFFC0000003FE0000000000000
3FFFFF0000003FE0000000000000
1FFFFFC000003FE0000000000000
0FFFFFFFFFFFFFFFFFFFF0000000
0FFFFFFFFFFFFFFFFFFFFF800000
07FFFFFFFFFFFFFFFFFFFFF00000
03FFFFFFFFFFFFFFFFFFFFFC0000
03FFFFFFFFFFFFFFFFFFFFFF0000
01FFFFFFFFFFFFFFFFFFFFFF8000
00FFFFFFFFFFFFFFFFFFFFFFE000
003FFFFFFFFFFFFFFFFFFFFFF000
001FFFFFFFFFFFFFFFFFFFFFF800
0007FFFFFFFFFFFFFFFFFFFFFC00
0003FFFFFFFFFFFFFFFFFFFFFC00
00007FFFFFFFFFFFFFFFFFFFFE00
00001FFFFFFFFFFFFFFFFFFFFF00
000000FFFFFFFFFFFFFFFFFFFF00
0000000000003FE000007FFFFF80
0000000000003FE000000FFFFF80
0000000000003FE0000003FFFF80
0000000000003FE0000001FFFFC0
0000000000003FE0000000FFFFC0
0000000000003FE00000007FFFC0
0000000000003FE00000007FFFC0
0000000000003FE00000003FFFE0
0000000000003FE00000003FFFE0
0000000000003FE00000003FFFE0
0000000000003FE00000003FFFE0
0000000000003FE00000003FFFE0
0000000000003FE00000001FFFE0
0000000000003FE00000001FFFE0
0000000000003FE00000003FFFE0
0000000000003FE00000003FFFE0
0000000000003FE00000003FFFE0
0000000000003FE00000003FFFE0
0000000000003FE00000003FFFE0
0000000000003FE00000007FFFE0
0000000000003FE00000007FFFE0
0000000000003FE0000000FFFFE0
0000000000003FE0000001FFFFC0
0000000000003FE0000003FFFFC0
0000000000003FE000000FFFFFC0
0000000000003FE000007FFFFFC0
7FFFFFFFFFFFFFFFFFFFFFFFFF80
7FFFFFFFFFFFFFFFFFFFFFFFFF80
7FFFFFFFFFFFFFFFFFFFFFFFFF00
7FFFFFFFFFFFFFFFFFFFFFFFFF00
7FFFFFFFFFFFFFFFFFFFFFFFFE00
7FFFFFFFFFFFFFFFFFFFFFFFFE00
7FFFFFFFFFFFFFFFFFFFFFFFFC00
7FFFFFFFFFFFFFFFFFFFFFFFF800
7FFFFFFFFFFFFFFFFFFFFFFFF800
7FFFFFFFFFFFFFFFFFFFFFFFF000
7FFFFFFFFFFFFFFFFFFFFFFFE000
7FFFFFFFFFFFFFFFFFFFFFFF8000
7FFFFFFFFFFFFFFFFFFFFFFF0000
7FFFFFFFFFFFFFFFFFFFFFFE0000
7FFFFFFFFFFFFFFFFFFFFFF80000
7FFFFFFFFFFFFFFFFFFFFFE00000
7FFFFFFFFFFFFFFFFFFFFF000000
7FFFFFFFFFFFFFFFFFFFE0000000
0000000000003FE0000000000000
0000000000003FE0000000000000
0000000000003FE0000000000000
0000000000003FE0000000000000
0000000000003FE0000000000000
0000000000003FE0000000000000
0000000000003FE0000000000000
0000000000003FE0000000000000
0000000000003FE0000000000000
0000000000003FE0000000000000
0000000000003FE0000000000000
0000000000003FE0000000000000
ENDCHAR
STARTCHAR percent
ENCODING 37
SWIDTH 965 0
DWIDTH 165 0
BBX 151 143 7 -11
BITMAP
0000000000000000000000000000003FFF0000
0000000000000000000000000000007FFE0000
000000000000000000000000000000FFFE0000
000000000000000000000000000001FFFC0000
000000000000000000000000000003FFF80000
0000003FFE00000000000000000003FFF00000
000003FFFFE0000000000000000007FFE00000
00001FFFFFFC00000000000000000FFFE00000
00007FFFFFFF00000000000000001FFFC00000
0001FFFFFFFFC0000000000000003FFF800000
0007FFFFFFFFE0000000000000003FFF000000
000FFFFFFFFFF8000000000000007FFE000000
001FFFFFFFFFFC00000000000000FFFE000000
003FFFFFFFFFFE00000000000001FFFC000000
007FFFFFFFFFFF00000000000001FFF8000000
00FFFFFFFFFFFF80000000000003FFF0000000
01FFFFE003FFFFC0000000000007FFF0000000
03FFFE00007FFFE000000000000FFFE0000000
03FFF800000FFFE000000000001FFFC0000000
07FFE0000007FFF000000000001FFF80000000
0FFFC0000001FFF000000000003FFF00000000
0FFF80000000FFF800000000007FFF00000000
1FFF000000007FFC0000000000FFFE00000000
1FFE000000007FFC0000000001FFFC00000000
3FFC000000003FFC0000000001FFF800000000
3FFC000000001FFE0000000003FFF800000000
3FF8000000001FFE0000000007FFF000000000
7FF8000000000FFE000000000FFFE000000000
7FF0000000000FFF000000000FFFC000000000
7FF00000000007FF000000001FFF8000000000
7FF00000000007FF000000003FFF8000000000
FFF00000000007FF000000007FFF0000000000
FFE00000000007FF00000000FFFE0000000000
FFE00000000007FF80000000FFFC0000000000
FFE00000000003FF80000001FFF80000000000
FFE00000000003FF80000003FFF80000000000
FFE00000000003FF80000007FFF00000000000
FFE00000000003FF8000000FFFE00000000000
FFE00000000003FF8000000FFFC00000000000
FFE00000000003FF8000001FFFC00000000000
FFE00000000007FF0000003FFF800000000000
7FE00000000007FF0000007FFF000000000000
7FF00000000007FF0000007FFE000000000000
7FF00000000007FF000000FFFC000000000000
7FF00000000007FF000001FFFC000000000000
7FF0000000000FFE000003FFF8000000000000
3FF8000000000FFE000007FFF0000000000000
3FF8000000001FFE000007FFE0000000000000
3FFC000000001FFC00000FFFC0000000000000
1FFE000000003FFC00001FFFC0000000000000
1FFE000000007FFC00003FFF80000000000000
0FFF000000007FF800007FFF00000000000000
0FFF80000000FFF800007FFE00000000000000
07FFC0000001FFF00000FFFE00000000000000
07FFE0000007FFE00001FFFC00000000000000
03FFF800000FFFE00003FFF800000000000000
01FFFE00007FFFC00003FFF000000000000000
00FFFFE003FFFF800007FFE000000000000000
00FFFFFFFFFFFF00000FFFE000000000000000
007FFFFFFFFFFE00001FFFC000000000000000
003FFFFFFFFFFC00003FFF8000000000000000
000FFFFFFFFFF800003FFF0000000000000000
0007FFFFFFFFF000007FFF0000000000000000
0003FFFFFFFFC00000FFFE0000000000000000
0000FFFFFFFF800001FFFC0000000000000000
00003FFFFFFE000003FFF80000000000000000
00000FFFFFF8000003FFF00000000000000000
000003FFFFC0000007FFF00000000000000000
0000001FFC0000000FFFE00000000000000000
00000000000000001FFFC00000000000000000
00000000000000001FFF800000000000000000
00000000000000003FFF00000000FFF8000000
00000000000000007FFF0000000FFFFF800000
0000000000000000FFFE0000007FFFFFF00000
0000000000000001FFFC000001FFFFFFFC0000
0000000000000001FFF8000007FFFFFFFF0000
0000000000000003FFF800000FFFFFFFFF8000
0000000000000007FFF000003FFFFFFFFFE000
000000000000000FFFE000007FFFFFFFFFF000
000000000000001FFFC00000FFFFFFFFFFF800
000000000000001FFF800001FFFFFFFFFFFC00
000000000000003FFF800003FFFFFFFFFFFE00
000000000000007FFF000007FFFF800FFFFF00
00000000000000FFFE00000FFFF80000FFFF80
00000000000000FFFC00000FFFE000003FFF80
00000000000001FFFC00001FFF8000001FFFC0
00000000000003FFF800003FFF00000007FFE0
00000000000007FFF000003FFE00000003FFE0
0000000000000FFFE000007FFC00000001FFF0
0000000000000FFFC000007FF800000000FFF0
0000000000001FFFC000007FF800000000FFF8
0000000000003FFF800000FFF0000000007FF8
0000000000007FFF000000FFE0000000003FF8
000000000000FFFE000001FFE0000000003FFC
000000000000FFFC000001FFE0000000003FFC
000000000001FFFC000001FFC0000000001FFC
000000000003FFF8000001FFC0000000001FFC
000000000007FFF0000001FFC0000000001FFC
000000000007FFE0000001FFC0000000001FFE
00000000000FFFE0000003FF80000000000FFE
00000000001FFFC0000003FF80000000000FFE
00000000003FFF80000003FF80000000000FFE
00000000007FFF00000003FF80000000000FFE
00000000007FFE00000003FF80000000000FFE
0000000000FFFE00000003FF80000000000FFE
0000000001FFFC00000003FF80000000000FFE
0000000003FFF800000001FF80000000000FFE
0000000007FFF000000001FFC0000000001FFC
0000000007FFF000000001FFC0000000001FFC
000000000FFFE000000001FFC0000000001FFC
000000001FFFC000000001FFC0000000001FFC
000000003FFF8000000000FFE0000000003FFC
000000003FFF0000000000FFE0000000003FF8
000000007FFF0000000000FFF0000000007FF8
00000000FFFE00000000007FF0000000007FF8
00000001FFFC00000000007FF800000000FFF0
00000003FFF800000000007FF800000000FFF0
00000003FFF000000000003FFC00000001FFE0
00000007FFF000000000003FFE00000003FFE0
0000000FFFE000000000001FFF00000007FFC0
0000001FFFC000000000000FFFC000001FFFC0
0000003FFF8000000000000FFFE000003FFF80
0000003FFF80000000000007FFF80000FFFF00
0000007FFF00000000000003FFFF800FFFFE00
000000FFFE00000000000001FFFFFFFFFFFC00
000001FFFC00000000000000FFFFFFFFFFF800
000001FFF8000000000000007FFFFFFFFFF000
000003FFF8000000000000003FFFFFFFFFE000
000007FFF0000000000000001FFFFFFFFFC000
00000FFFE0000000000000000FFFFFFFFF8000
00001FFFC00000000000000003FFFFFFFE0000
00001FFF800000000000000000FFFFFFF80000
00003FFF8000000000000000003FFFFFE00000
00007FFF00000000000000000007FFFF000000
0000FFFE00000000000000000000FFF0000000
0001FFFC000000000000000000000000000000
0001FFFC000000000000000000000000000000
0003FFF8000000000000000000000000000000
0007FFF0000000000000000000000000000000
000FFFE0000000000000000000000000000000
000FFFC0000000000000000000000000000000
001FFFC0000000000000000000000000000000
003FFF80000000000000000000000000000000
ENDCHAR
STARTCHAR ampersand
ENCODING 38
SWIDTH 759 0
DWIDTH 130 0
BBX 117 124 8 0
BITMAP
000000003FFFFFFFE0000000000000
00000007FFFFFFFFE0000000000000
0000007FFFFFFFFFE0000000000000
000003FFFFFFFFFFE0000000000000
00000FFFFFFFFFFFE0000000000000
00003FFFFFFFFFFFE0000000000000
0000FFFFFFFFFFFFE0000000000000
0001FFFFFFFFFFFFE0000000000000
0007FFFFFFFFFFFFE0000000000000
000FFFFFFFFFFFFFE0000000000000
001FFFFFFFFFFFFFE0000000000000
003FFFFFFFFFFFFFE0000000000000
007FFFFFFFFFFFFFE0000000000000
00FFFFFFFFFFFFFFE0000000000000
00FFFFFFFFFFFFFFE0000000000000
01FFFFFFFFFFFFFFE0000000000000
03FFFFFFFFFFFFFFE0000000000000
03FFFFFFFFFFFFFFE0000000000000
07FFFFFFFFFFFFFFE0000000000000
07FFFFFFFFFFFFFFE0000000000000
07FFFFFFFFFFFFFFE0000000000000
0FFFFFFFFFFFFFFFE0000000000000
0FFFFFFFE000000000000000000000
0FFFFFFF0000000000000000000000
0FFFFFFC0000000000000000000000
1FFFFFF80000000000000000000000
1FFFFFF00000000000000000000000
1FFFFFE00000000000000000000000
1FFFFFE00000000000000000000000
1FFFFFC00000000000000000000000
1FFFFFC00000000000000000000000
1FFFFF800000000000000000000000
1FFFFF800000000000000000000000
1FFFFF800000000000000000000000
1FFFFF800000000000000000000000
1FFFFF800000000000000000000000
1FFFFF800000000000000000000000
1FFFFF800000000000000000000000
1FFFFF800000000000000000000000
1FFFFF800000000000000000000000
1FFFFF800000000000000000000000
0FFFFF800000000000000000000000
0FFFFF800000000000000000000000
0FFFFFC00000000000000000000000
07FFFFC00000000000000000000000
07FFFFE00000000000000000000000
07FFFFF00000000000000000000000
03FFFFF00000000000000000000000
01FFFFFC0000000000000000000000
01FFFFFE0000000000000000000000
00FFFFFF8000000000000000000000
007FFFFFF800000000000000000000
003FFFFFFFFFFFFFFFFFFFFFFFF800
001FFFFFFFFFFFFFFFFFFFFFFFF800
000FFFFFFFFFFFFFFFFFFFFFFFF800
0007FFFFFFFFFFFFFFFFFFFFFFF800
0001FFFFFFFFFFFFFFFFFFFFFFF800
00007FFFFFFFFFFFFFFFFFFFFFF800
00001FFFFFFFFFFFFFFFFFFFFFF800
00003FFFFFFFFFFFFFFFFFFFFFF800
0000FFFFFFFFFFFFFFFFFFFFFFF800
0003FFFFFFFFFFFFFFFFFFFFFFF800
000FFFFFFFFFFFFFFFFFFFFFFFF800
001FFFFFFFFFFFFFFFFFFFFFFFF800
003FFFFFFFFFFFFFFFFFFFFFFFF800
007FFFFFFFFFFFFFFFFFFFFFFFF800
00FFFFFFFFFFFFFFFFFFFFFFFFF800
01FFFFFFFFFFFFFFFFFFFFFFFFF800
03FFFFFFFFFFFFFFFFFFFFFFFFF800
07FFFFFFFFFFFFFFFFFFFFFFFFF800
07FFFFFFF8000000007FFFFC000000
0FFFFFFF00000000007FFFFC000000
1FFFFFFC00000000007FFFFC000000
1FFFFFF000000000007FFFFC000000
1FFFFFE000000000007FFFFC000000
3FFFFF8000000000007FFFFC000000
3FFFFF8000000000007FFFFC000000
7FFFFF0000000000007FFFFC000000
7FFFFF0000000000007FFFFC000000
7FFFFE0000000000007FFFFC000000
7FFFFE0000000000007FFFFC000000
7FFFFE0000000000007FFFFC000000
7FFFFC0000000000007FFFFC000000
FFFFFC0000000000007FFFFC000000
FFFFFC0000000000007FFFFC000000
FFFFFC0000000000007FFFFC000000
FFFFFC0000000000007FFFFC000000
FFFFFC0000000000007FFFFC000000
FFFFFC0000000000007FFFFC000000
FFFFFE0000000000007FFFFC000000
7FFFFE0000000000007FFFFC000000
7FFFFE0000000000007FFFFC000000
7FFFFF0000000000007FFFFC000000
7FFFFF0000000000007FFFFC000000
7FFFFF8000000000007FFFFC000000
7FFFFF8000000000007FFFFC000000
7FFFFFC000000000007FFFFC000000
3FFFFFE000000000007FFFFC000000
3FFFFFF800000000007FFFFC000000
3FFFFFFC00000000007FFFFC000000
1FFFFFFF00000000007FFFFC000000
1FFFFFFFF0000000007FFFFC000000
1FFFFFFFFFFFFFFFFFFFFFFFFFFFF8
0FFFFFFFFFFFFFFFFFFFFFFFFFFFF8
0FFFFFFFFFFFFFFFFFFFFFFFFFFFF8
07FFFFFFFFFFFFFFFFFFFFFFFFFFF8
07FFFFFFFFFFFFFFFFFFFFFFFFFFF8
03FFFFFFFFFFFFFFFFFFFFFFFFFFF8
01FFFFFFFFFFFFFFFFFFFFFFFFFFF8
01FFFFFFFFFFFFFFFFFFFFFFFFFFF8
00FFFFFFFFFFFFFFFFFFFFFFFFFFF8
007FFFFFFFFFFFFFFFFFFFFFFFFFF8
003FFFFFFFFFFFFFFFFFFFFFFFFFF8
001FFFFFFFFFFFFFFFFFFFFFFFFFF8
000FFFFFFFFFFFFFFFFFFFFFFFFFF8
0007FFFFFFFFFFFFFFFFFFFFFFFFF8
0003FFFFFFFFFFFFFFFFFFFFFFFFF8
0000FFFFFFFFFFFFFFFFFFFFFFFFF8
00007FFFFFFFFFFFFFFFFFFFFFFFF8
00001FFFFFFFFFFFFFFFFFFFFFFFF8
000007FFFFFFFFFFFFFFFFFFFFFFF8
000000FFFFFFFFFFFFFFFFFFFFFFF8
0000001FFFFFFFFFFFFFFFFFFFFFF8
00000000FFFFFFFFFFFFFFFFFFFFF8
ENDCHAR
STARTCHAR quotesingle
ENCODING 39
SWIDTH 255 0
DWIDTH 44 0
BBX 22 45 11 79
BITMAP
FFFFFC
FFFFFC
FFFFFC
FFFFFC
FFFFF8
FFFFF8
FFFFF8
FFFFF8
7FFFF8
7FFFF8
7FFFF8
7FFFF8
7FFFF8
7FFFF8
7FFFF8
7FFFF0
7FFFF0
7FFFF0
7FFFF0
3FFFF0
3FFFF0
3FFFF0
3FFFF0
3FFFF0
3FFFF0
3FFFF0
3FFFE0
3FFFE0
3FFFE0
3FFFE0
1FFFE0
1FFFE0
1FFFE0
1FFFE0
1FFFE0
1FFFE0
1FFFE0
1FFFC0
1FFFC0
1FFFC0
1FFFC0
0FFFC0
0FFFC0
0FFFC0
0FFFC0
ENDCHAR
STARTCHAR parenleft
ENCODING 40
SWIDTH 356 0
DWIDTH 61 0
BBX 34 156 16 -15
BITMAP
00003FFFC0
00003FFF80
00007FFF80
00007FFF00
0000FFFF00
0000FFFF00
0001FFFE00
0001FFFE00
0001FFFC00
0003FFFC00
0003FFFC00
0007FFF800
0007FFF800
0007FFF000
000FFFF000
000FFFE000
000FFFE000
001FFFE000
001FFFC000
001FFFC000
003FFFC000
003FFF8000
003FFF8000
007FFF8000
007FFF0000
007FFF0000
00FFFE0000
00FFFE0000
00FFFE0000
01FFFC0000
01FFFC0000
01FFFC0000
03FFFC0000
03FFF80000
03FFF80000
03FFF80000
07FFF00000
07FFF00000
07FFF00000
07FFE00000
0FFFE00000
0FFFE00000
0FFFE00000
0FFFC00000
1FFFC00000
1FFFC00000
1FFFC00000
1FFF800000
1FFF800000
1FFF800000
3FFF800000
3FFF800000
3FFF000000
3FFF000000
3FFF000000
3FFF000000
7FFF000000
7FFF000000
7FFE000000
7FFE000000
7FFE000000
7FFE000000
7FFE000000
7FFE000000
7FFE000000
7FFE000000
FFFC000000
FFFC000000
FFFC000000
FFFC000000
FFFC000000
FFFC000000
FFFC000000
FFFC000000
FFFC000000
FFFC000000
FFFC000000
FFFC000000
FFFC000000
FFFC000000
FFFC000000
FFFC000000
FFFC000000
FFFC000000
FFFC000000
FFFC000000
FFFC000000
FFFC000000
FFFC000000
FFFC000000
7FFC000000
7FFE000000
7FFE000000
7FFE000000
7FFE000000
7FFE000000
7FFE000000
7FFE000000
7FFE000000
3FFF000000
3FFF000000
3FFF000000
3FFF000000
3FFF000000
3FFF000000
3FFF800000
1FFF800000
1FFF800000
1FFF800000
1FFF800000
1FFFC00000
0FFFC00000
0FFFC00000
0FFFC00000
0FFFE00000
0FFFE00000
07FFE00000
07FFE00000
07FFF00000
07FFF00000
03FFF00000
03FFF00000
03FFF80000
03FFF80000
01FFF80000
01FFFC0000
01FFFC0000
00FFFC0000
00FFFE0000
00FFFE0000
007FFE0000
007FFF0000
007FFF0000
003FFF8000
003FFF8000
003FFF8000
001FFFC000
001FFFC000
001FFFC000
000FFFE000
000FFFE000
0007FFF000
0007FFF000
0007FFF000
0003FFF800
0003FFF800
0001FFFC00
0001FFFC00
0001FFFE00
0000FFFE00
0000FFFF00
00007FFF00
00007FFF00
00003FFF80
00003FFF80
00003FFFC0
ENDCHAR
STARTCHAR parenright
ENCODING 41
SWIDTH 355 0
DWIDTH 61 0
BBX 34 156 11 -15
BITMAP
FFFF000000
7FFF000000
7FFF800000
3FFF800000
3FFF800000
3FFFC00000
1FFFC00000
1FFFE00000
0FFFE00000
0FFFE00000
0FFFF00000
07FFF00000
07FFF80000
03FFF80000
03FFF80000
03FFFC0000
01FFFC0000
01FFFC0000
00FFFE0000
00FFFE0000
00FFFE0000
007FFF0000
007FFF0000
007FFF0000
003FFF8000
003FFF8000
003FFF8000
001FFFC000
001FFFC000
001FFFC000
000FFFE000
000FFFE000
000FFFE000
0007FFF000
0007FFF000
0007FFF000
0003FFF000
0003FFF800
0003FFF800
0003FFF800
0001FFF800
0001FFFC00
0001FFFC00
0001FFFC00
0000FFFC00
0000FFFC00
0000FFFE00
0000FFFE00
00007FFE00
00007FFE00
00007FFE00
00007FFF00
00007FFF00
00003FFF00
00003FFF00
00003FFF00
00003FFF00
00003FFF00
00003FFF80
00003FFF80
00001FFF80
00001FFF80
00001FFF80
00001FFF80
00001FFF80
00001FFF80
00001FFF80
00001FFF80
00001FFFC0
00001FFFC0
00000FFFC0
00000FFFC0
00000FFFC0
00000FFFC0
00000FFFC0
00000FFFC0
00000FFFC0
00000FFFC0
00000FFFC0
00000FFFC0
00000FFFC0
00000FFFC0
00000FFFC0
00000FFFC0
00000FFFC0
00000FFFC0
00001FFFC0
00001FFFC0
00001FFF80
00001FFF80
00001FFF80
00001FFF80
00001FFF80
00001FFF80
00001FFF80
00001FFF80
00003FFF80
00003FFF80
00003FFF00
00003FFF00
00003FFF00
00003FFF00
00003FFF00
00007FFF00
00007FFF00
00007FFE00
00007FFE00
00007FFE00
0000FFFE00
0000FFFE00
0000FFFC00
0000FFFC00
0000FFFC00
0001FFFC00
0001FFFC00
0001FFF800
0001FFF800
0003FFF800
0003FFF800
0003FFF000
0007FFF000
0007FFF000
0007FFF000
0007FFE000
000FFFE000
000FFFE000
000FFFE000
001FFFC000
001FFFC000
001FFFC000
003FFF8000
003FFF8000
003FFF8000
007FFF0000
007FFF0000
00FFFF0000
00FFFE0000
00FFFE0000
01FFFC0000
01FFFC0000
01FFFC0000
03FFF80000
03FFF80000
07FFF80000
07FFF00000
0FFFF00000
0FFFE00000
0FFFE00000
1FFFC00000
1FFFC00000
3FFFC00000
3FFF800000
7FFF800000
7FFF000000
FFFF000000
FFFE000000
ENDCHAR
STARTCHAR asterisk
ENCODING 42
SWIDTH 469 0
DWIDTH 80 0
BBX 58 56 11 68
BITMAP
000000FFC0000000
000000FFC0000000
000000FFC0000000
000000FFC0000000
000000FFC0000000
000000FFC0000000
000000FFC0000000
000000FFC0000000
000000FFC0000000
000000FFC0000000
000000FFC0000000
000000FFC0000000
000000FFC0000000
000000FFC0000000
000000FFC0000000
100000FFC0000100
3E0000FFC0000F00
3FC000FFC000FF00
3FF800FFC007FF00
7FFF00FFC03FFF80
7FFFF0FFC1FFFF80
7FFFFEFFDFFFFF80
7FFFFFFFFFFFFFC0
FFFFFFFFFFFFFFC0
FFFFFFFFFFFFFFC0
3FFFFFFFFFFFFF00
07FFFFFFFFFFF800
00FFFFFFFFFFC000
001FFFFFFFFE0000
0001FFFFFFE00000
00003FFFFF000000
000007FFF8000000
00000FFFFC000000
00001FFFFE000000
00001FFFFE000000
00003FFFFF000000
00007FFFFF800000
0000FFFFFFC00000
0000FFF3FFC00000
0001FFF1FFE00000
0003FFE1FFF00000
0003FFC0FFF00000
0007FF807FF80000
000FFF807FFC0000
000FFF003FFE0000
001FFE001FFE0000
003FFE000FFF0000
007FFC000FFF8000
007FF80007FF8000
00FFF00003FFC000
007FF00003FFC000
003FE00001FF0000
001FC00000FE0000
0007C000007C0000
0003800000700000
0001000000200000
ENDCHAR
STARTCHAR plus
ENCODING 43
SWIDTH 690 0
DWIDTH 118 0
BBX 96 96 11 15
BITMAP
00000000007FFE0000000000
00000000007FFE0000000000
00000000007FFE0000000000
00000000007FFE0000000000
00000000007FFE0000000000
00000000007FFE0000000000
00000000007FFE0000000000
00000000007FFE0000000000
00000000007FFE0000000000
00000000007FFE0000000000
00000000007FFE0000000000
00000000007FFE0000000000
00000000007FFE0000000000
00000000007FFE0000000000
00000000007FFE0000000000
00000000007FFE0000000000
00000000007FFE0000000000
00000000007FFE0000000000
00000000007FFE0000000000
00000000007FFE0000000000
00000000007FFE0000000000
00000000007FFE0000000000
00000000007FFE0000000000
00000000007FFE0000000000
00000000007FFE0000000000
00000000007FFE0000000000
00000000007FFE0000000000
00000000007FFE0000000000
00000000007FFE0000000000
00000000007FFE0000000000
00000000007FFE0000000000
00000000007FFE0000000000
00000000007FFE0000000000
00000000007FFE0000000000
00000000007FFE0000000000
00000000007FFE0000000000
00000000007FFE0000000000
00000000007FFE0000000000
00000000007FFE0000000000
00000000007FFE0000000000
00000000007FFE0000000000
FFFFFFFFFFFFFFFFFFFFFFFF
FFFFFFFFFFFFFFFFFFFFFFFF
FFFFFFFFFFFFFFFFFFFFFFFF
FFFFFFFFFFFFFFFFFFFFFFFF
FFFFFFFFFFFFFFFFFFFFFFFF
FFFFFFFFFFFFFFFFFFFFFFFF
FFFFFFFFFFFFFFFFFFFFFFFF
FFFFFFFFFFFFFFFFFFFFFFFF
FFFFFFFFFFFFFFFFFFFFFFFF
FFFFFFFFFFFFFFFFFFFFFFFF
FFFFFFFFFFFFFFFFFFFFFFFF
FFFFFFFFFFFFFFFFFFFFFFFF
FFFFFFFFFFFFFFFFFFFFFFFF
FFFFFFFFFFFFFFFFFFFFFFFF
00000000007FFE0000000000
00000000007FFE0000000000
00000000007FFE0000000000
00000000007FFE0000000000
00000000007FFE0000000000
00000000007FFE0000000000
00000000007FFE0000000000
00000000007FFE0000000000
00000000007FFE0000000000
00000000007FFE0000000000
00000000007FFE0000000000
00000000007FFE0000000000
00000000007FFE0000000000
00000000007FFE0000000000
00000000007FFE0000000000
00000000007FFE0000000000
00000000007FFE0000000000
00000000007FFE0000000000
00000000007FFE0000000000
00000000007FFE0000000000
00000000007FFE0000000000
00000000007FFE0000000000
00000000007FFE0000000000
00000000007FFE0000000000
00000000007FFE0000000000
00000000007FFE0000000000
00000000007FFE0000000000
00000000007FFE0000000000
00000000007FFE0000000000
00000000007FFE0000000000
00000000007FFE0000000000
00000000007FFE0000000000
00000000007FFE0000000000
00000000007FFE0000000000
00000000007FFE0000000000
00000000007FFE0000000000
00000000007FFE0000000000
00000000007FFE0000000000
00000000007FFE0000000000
00000000007FFE0000000000
00000000007FFE0000000000
ENDCHAR
STARTCHAR comma
ENCODING 44
SWIDTH 259 0
DWIDTH 44 0
BBX 22 44 12 -20
BITMAP
FFFFFC
FFFFF8
FFFFF8
FFFFF8
FFFFF8
FFFFF0
FFFFF0
FFFFF0
FFFFF0
FFFFF0
FFFFE0
FFFFE0
FFFFE0
FFFFE0
FFFFE0
FFFFE0
FFFFC0
FFFFC0
FFFFC0
FFFFC0
FFFFC0
FFFF80
FFFF80
FFFF80
FFFF80
FFFF80
FFFF00
FFFF00
FFFF00
FFFF00
FFFF00
FFFE00
FFFE00
FFFE00
FFFE00
FFFE00
FFFC00
FFFC00
FFFC00
FFFC00
FFFC00
FFF800
FFF800
FFF800
ENDCHAR
STARTCHAR hyphen
ENCODING 45
SWIDTH 296 0
DWIDTH 51 0
BBX 41 14 5 56
BITMAP
FFFFFFFFFF80
FFFFFFFFFF80
FFFFFFFFFF80
FFFFFFFFFF80
FFFFFFFFFF80
FFFFFFFFFF80
FFFFFFFFFF80
FFFFFFFFFF80
FFFFFFFFFF80
FFFFFFFFFF80
FFFFFFFFFF80
FFFFFFFFFF80
FFFFFFFFFF80
FFFFFFFFFF80
ENDCHAR
STARTCHAR period
ENCODING 46
SWIDTH 262 0
DWIDTH 45 0
BBX 23 23 11 0
BITMAP
00FE00
07FF80
0FFFE0
1FFFF0
3FFFF8
7FFFF8
7FFFFC
FFFFFC
FFFFFE
FFFFFE
FFFFFE
FFFFFE
FFFFFE
FFFFFE
FFFFFE
FFFFFC
7FFFFC
7FFFF8
3FFFF8
1FFFF0
0FFFE0
07FF80
00FE00
ENDCHAR
STARTCHAR slash
ENCODING 47
SWIDTH 444 0
DWIDTH 76 0
BBX 72 124 2 0
BITMAP
000000000000003FFF
000000000000007FFF
000000000000007FFE
00000000000000FFFE
00000000000000FFFC
00000000000001FFFC
00000000000001FFF8
00000000000003FFF8
00000000000003FFF0
00000000000003FFF0
00000000000007FFE0
00000000000007FFE0
0000000000000FFFC0
0000000000000FFFC0
0000000000001FFF80
0000000000001FFF80
0000000000003FFF80
0000000000003FFF00
0000000000007FFF00
0000000000007FFE00
000000000000FFFE00
000000000000FFFC00
000000000001FFFC00
000000000001FFF800
000000000003FFF800
000000000003FFF000
000000000007FFF000
000000000007FFE000
000000000007FFE000
00000000000FFFE000
00000000000FFFC000
00000000001FFFC000
00000000001FFF8000
00000000003FFF8000
00000000003FFF0000
00000000007FFF0000
00000000007FFE0000
0000000000FFFE0000
0000000000FFFC0000
0000000001FFFC0000
0000000001FFF80000
0000000003FFF80000
0000000003FFF00000
0000000007FFF00000
0000000007FFF00000
0000000007FFE00000
000000000FFFE00000
000000000FFFC00000
000000001FFFC00000
000000001FFF800000
000000003FFF800000
000000003FFF000000
000000007FFF000000
000000007FFE000000
00000000FFFE000000
00000000FFFC000000
00000001FFFC000000
00000001FFFC000000
00000003FFF8000000
00000003FFF8000000
00000007FFF0000000
00000007FFF0000000
00000007FFE0000000
0000000FFFE0000000
0000000FFFC0000000
0000001FFFC0000000
0000001FFF80000000
0000003FFF80000000
0000003FFF00000000
0000007FFF00000000
0000007FFE00000000
000000FFFE00000000
000000FFFE00000000
000001FFFC00000000
000001FFFC00000000
000003FFF800000000
000003FFF800000000
000007FFF000000000
000007FFF000000000
000007FFE000000000
00000FFFE000000000
00000FFFC000000000
00001FFFC000000000
00001FFF8000000000
00003FFF8000000000
00003FFF0000000000
00007FFF0000000000
00007FFF0000000000
0000FFFE0000000000
0000FFFE0000000000
0001FFFC0000000000
0001FFFC0000000000
0003FFF80000000000
0003FFF80000000000
0007FFF00000000000
0007FFF00000000000
000FFFE00000000000
000FFFE00000000000
000FFFC00000000000
001FFFC00000000000
001FFFC00000000000
003FFF800000000000
003FFF800000000000
007FFF000000000000
007FFF000000000000
00FFFE000000000000
00FFFE000000000000
01FFFC000000000000
01FFFC000000000000
03FFF8000000000000
03FFF8000000000000
07FFF0000000000000
07FFF0000000000000
0FFFE0000000000000
0FFFE0000000000000
0FFFE0000000000000
1FFFC0000000000000
1FFFC0000000000000
3FFF80000000000000
3FFF80000000000000
7FFF00000000000000
7FFF00000000000000
FFFE00000000000000
FFFE00000000000000
ENDCHAR
STARTCHAR zero
ENCODING 48
SWIDTH 838 0
DWIDTH 143 0
BBX 129 124 7 0
BITMAP
00000000000000FFFF8000000000000000
0000000000003FFFFFFF00000000000000
000000000007FFFFFFFFF0000000000000
00000000003FFFFFFFFFFE000000000000
0000000001FFFFFFFFFFFFC00000000000
0000000007FFFFFFFFFFFFF00000000000
000000003FFFFFFFFFFFFFFE0000000000
00000000FFFFFFFFFFFFFFFF8000000000
00000001FFFFFFFFFFFFFFFFE000000000
00000007FFFFFFFFFFFFFFFFF000000000
0000001FFFFFFFFFFFFFFFFFFC00000000
0000003FFFFFFFFFFFFFFFFFFF00000000
000000FFFFFFFFFFFFFFFFFFFF80000000
000001FFFFFFFFFFFFFFFFFFFFC0000000
000003FFFFFFFFFFFFFFFFFFFFF0000000
00000FFFFFFFFFFFFFFFFFFFFFF8000000
00001FFFFFFFFFFFFFFFFFFFFFFC000000
00003FFFFFFFFFFFFFFFFFFFFFFE000000
00007FFFFFFFFFFFFFFFFFFFFFFF000000
0000FFFFFFFFFFFFFFFFFFFFFFFF800000
0001FFFFFFFFFFFFFFFFFFFFFFFFC00000
0003FFFFFFFFFFFFFFFFFFFFFFFFE00000
0003FFFFFFFFFE00003FFFFFFFFFF00000
0007FFFFFFFFC0000001FFFFFFFFF00000
000FFFFFFFFE000000003FFFFFFFF80000
001FFFFFFFF00000000007FFFFFFFC0000
001FFFFFFFC00000000001FFFFFFFE0000
003FFFFFFF0000000000007FFFFFFE0000
007FFFFFFE0000000000003FFFFFFF0000
007FFFFFF80000000000000FFFFFFF8000
00FFFFFFF000000000000007FFFFFF8000
01FFFFFFE000000000000003FFFFFFC000
01FFFFFFC000000000000000FFFFFFC000
03FFFFFF80000000000000007FFFFFE000
03FFFFFF00000000000000003FFFFFE000
07FFFFFE00000000000000003FFFFFF000
07FFFFFC00000000000000001FFFFFF000
07FFFFF800000000000000000FFFFFF800
0FFFFFF0000000000000000007FFFFF800
0FFFFFF0000000000000000007FFFFF800
1FFFFFE0000000000000000003FFFFFC00
1FFFFFE0000000000000000003FFFFFC00
1FFFFFC0000000000000000001FFFFFC00
1FFFFFC0000000000000000001FFFFFE00
3FFFFF80000000000000000000FFFFFE00
3FFFFF80000000000000000000FFFFFE00
3FFFFF000000000000000000007FFFFF00
7FFFFF000000000000000000007FFFFF00
7FFFFF000000000000000000007FFFFF00
7FFFFE000000000000000000003FFFFF00
7FFFFE000000000000000000003FFFFF00
7FFFFE000000000000000000003FFFFF00
7FFFFE000000000000000000003FFFFF80
7FFFFE000000000000000000001FFFFF80
FFFFFC000000000000000000001FFFFF80
FFFFFC000000000000000000001FFFFF80
FFFFFC000000000000000000001FFFFF80
FFFFFC000000000000000000001FFFFF80
FFFFFC000000000000000000001FFFFF80
FFFFFC000000000000000000001FFFFF80
FFFFFC000000000000000000001FFFFF80
FFFFFC000000000000000000001FFFFF80
FFFFFC000000000000000000001FFFFF80
FFFFFC000000000000000000001FFFFF80
FFFFFC000000000000000000001FFFFF80
FFFFFC000000000000000000001FFFFF80
FFFFFC000000000000000000001FFFFF80
FFFFFC000000000000000000001FFFFF80
7FFFFC000000000000000000001FFFFF80
7FFFFE000000000000000000001FFFFF80
7FFFFE000000000000000000003FFFFF00
7FFFFE000000000000000000003FFFFF00
7FFFFE000000000000000000003FFFFF00
7FFFFE000000000000000000003FFFFF00
3FFFFF000000000000000000007FFFFF00
3FFFFF000000000000000000007FFFFE00
3FFFFF000000000000000000007FFFFE00
3FFFFF80000000000000000000FFFFFE00
1FFFFF80000000000000000000FFFFFE00
1FFFFF80000000000000000000FFFFFC00
1FFFFFC0000000000000000001FFFFFC00
0FFFFFC0000000000000000001FFFFFC00
0FFFFFE0000000000000000003FFFFF800
0FFFFFE0000000000000000003FFFFF800
07FFFFF0000000000000000007FFFFF800
07FFFFF800000000000000000FFFFFF000
03FFFFF800000000000000000FFFFFF000
03FFFFFC00000000000000001FFFFFE000
03FFFFFE00000000000000003FFFFFE000
01FFFFFF00000000000000007FFFFFC000
01FFFFFF8000000000000000FFFFFFC000
00FFFFFFC000000000000001FFFFFF8000
007FFFFFE000000000000003FFFFFF8000
007FFFFFF000000000000007FFFFFF0000
003FFFFFFC0000000000001FFFFFFE0000
003FFFFFFE0000000000003FFFFFFE0000
001FFFFFFF800000000000FFFFFFFC0000
000FFFFFFFE00000000003FFFFFFF80000
0007FFFFFFF8000000000FFFFFFFF80000
0007FFFFFFFE000000003FFFFFFFF00000
0003FFFFFFFFC0000001FFFFFFFFE00000
0001FFFFFFFFFE00003FFFFFFFFFC00000
0000FFFFFFFFFFFFFFFFFFFFFFFF800000
00007FFFFFFFFFFFFFFFFFFFFFFF000000
00003FFFFFFFFFFFFFFFFFFFFFFF000000
00001FFFFFFFFFFFFFFFFFFFFFFE000000
00000FFFFFFFFFFFFFFFFFFFFFFC000000
000007FFFFFFFFFFFFFFFFFFFFF8000000
000003FFFFFFFFFFFFFFFFFFFFE0000000
000001FFFFFFFFFFFFFFFFFFFFC0000000
000000FFFFFFFFFFFFFFFFFFFF80000000
0000003FFFFFFFFFFFFFFFFFFF00000000
0000001FFFFFFFFFFFFFFFFFFC00000000
0000000FFFFFFFFFFFFFFFFFF800000000
00000003FFFFFFFFFFFFFFFFE000000000
00000000FFFFFFFFFFFFFFFF8000000000
000000003FFFFFFFFFFFFFFE0000000000
000000000FFFFFFFFFFFFFF80000000000
0000000003FFFFFFFFFFFFE00000000000
0000000000FFFFFFFFFFFF800000000000
00000000001FFFFFFFFFFC000000000000
000000000003FFFFFFFFE0000000000000
0000000000003FFFFFFE00000000000000
00000000000000FFFF8000000000000000
ENDCHAR
STARTCHAR one
ENCODING 49
SWIDTH 385 0
DWIDTH 66 0
BBX 51 124 4 0
BITMAP
FFFFF000000000
FFFFFF80000000
FFFFFFF0000000
FFFFFFFE000000
FFFFFFFF800000
FFFFFFFFE00000
FFFFFFFFF00000
FFFFFFFFF80000
FFFFFFFFFE0000
FFFFFFFFFF0000
FFFFFFFFFF8000
FFFFFFFFFFC000
FFFFFFFFFFE000
FFFFFFFFFFE000
FFFFFFFFFFF000
FFFFFFFFFFF800
FFFFFFFFFFF800
FFFFFFFFFFFC00
FFFFFFFFFFFC00
FFFFFFFFFFFE00
FFFFFFFFFFFE00
FFFFFFFFFFFF00
00003FFFFFFF00
000007FFFFFF80
000001FFFFFF80
000000FFFFFF80
0000007FFFFF80
0000003FFFFFC0
0000001FFFFFC0
0000001FFFFFC0
0000000FFFFFC0
0000000FFFFFC0
0000000FFFFFE0
00000007FFFFE0
00000007FFFFE0
00000007FFFFE0
00000007FFFFE0
00000007FFFFE0
00000007FFFFE0
00000007FFFFE0
00000003FFFFE0
00000003FFFFE0
00000003FFFFE0
00000003FFFFE0
00000003FFFFE0
00000003FFFFE0
00000003FFFFE0
00000003FFFFE0
00000003FFFFE0
00000003FFFFE0
00000003FFFFE0
00000003FFFFE0
00000003FFFFE0
00000003FFFFE0
00000003FFFFE0
00000003FFFFE0
00000003FFFFE0
00000003FFFFE0
00000003FFFFE0
00000003FFFFE0
00000003FFFFE0
00000003FFFFE0
00000003FFFFE0
00000003FFFFE0
00000003FFFFE0
00000003FFFFE0
00000003FFFFE0
00000003FFFFE0
00000003FFFFE0
00000003FFFFE0
00000003FFFFE0
00000003FFFFE0
00000003FFFFE0
00000003FFFFE0
00000003FFFFE0
00000003FFFFE0
00000003FFFFE0
00000003FFFFE0
00000003FFFFE0
00000003FFFFE0
00000003FFFFE0
00000003FFFFE0
00000003FFFFE0
00000003FFFFE0
00000003FFFFE0
00000003FFFFE0
00000003FFFFE0
00000003FFFFE0
00000003FFFFE0
00000003FFFFE0
00000003FFFFE0
00000003FFFFE0
00000003FFFFE0
00000003FFFFE0
00000003FFFFE0
00000003FFFFE0
00000003FFFFE0
00000003FFFFE0
00000003FFFFE0
00000003FFFFE0
00000003FFFFE0
00000003FFFFE0
00000003FFFFE0
00000003FFFFE0
00000003FFFFE0
00000003FFFFE0
00000003FFFFE0
00000003FFFFE0
00000003FFFFE0
00000003FFFFE0
00000003FFFFE0
00000003FFFFE0
00000003FFFFE0
00000003FFFFE0
00000003FFFFE0
00000003FFFFE0
00000003FFFFE0
00000003FFFFE0
00000003FFFFE0
00000003FFFFE0
00000003FFFFE0
00000003FFFFE0
00000003FFFFE0
00000003FFFFE0
ENDCHAR
STARTCHAR two
ENCODING 50
SWIDTH 825 0
DWIDTH 141 0
BBX 121 124 11 0
BITMAP
7FFFFFFFFFFFFFFFFFFFFFE000000000
7FFFFFFFFFFFFFFFFFFFFFFF00000000
7FFFFFFFFFFFFFFFFFFFFFFFE0000000
7FFFFFFFFFFFFFFFFFFFFFFFFC000000
7FFFFFFFFFFFFFFFFFFFFFFFFF000000
7FFFFFFFFFFFFFFFFFFFFFFFFF800000
7FFFFFFFFFFFFFFFFFFFFFFFFFE00000
7FFFFFFFFFFFFFFFFFFFFFFFFFF00000
7FFFFFFFFFFFFFFFFFFFFFFFFFFC0000
7FFFFFFFFFFFFFFFFFFFFFFFFFFE0000
7FFFFFFFFFFFFFFFFFFFFFFFFFFF0000
7FFFFFFFFFFFFFFFFFFFFFFFFFFF8000
7FFFFFFFFFFFFFFFFFFFFFFFFFFFC000
7FFFFFFFFFFFFFFFFFFFFFFFFFFFE000
7FFFFFFFFFFFFFFFFFFFFFFFFFFFE000
7FFFFFFFFFFFFFFFFFFFFFFFFFFFF000
7FFFFFFFFFFFFFFFFFFFFFFFFFFFF800
7FFFFFFFFFFFFFFFFFFFFFFFFFFFF800
7FFFFFFFFFFFFFFFFFFFFFFFFFFFFC00
7FFFFFFFFFFFFFFFFFFFFFFFFFFFFC00
7FFFFFFFFFFFFFFFFFFFFFFFFFFFFE00
7FFFFFFFFFFFFFFFFFFFFFFFFFFFFE00
00000000000000000000007FFFFFFE00
00000000000000000000001FFFFFFF00
000000000000000000000007FFFFFF00
000000000000000000000003FFFFFF00
000000000000000000000001FFFFFF00
000000000000000000000000FFFFFF80
0000000000000000000000007FFFFF80
0000000000000000000000007FFFFF80
0000000000000000000000003FFFFF80
0000000000000000000000003FFFFF80
0000000000000000000000003FFFFF80
0000000000000000000000001FFFFF80
0000000000000000000000001FFFFF80
0000000000000000000000001FFFFF80
0000000000000000000000001FFFFF80
0000000000000000000000001FFFFF80
0000000000000000000000001FFFFF80
0000000000000000000000001FFFFF80
0000000000000000000000003FFFFF80
0000000000000000000000003FFFFF80
0000000000000000000000003FFFFF00
0000000000000000000000003FFFFF00
0000000000000000000000007FFFFF00
0000000000000000000000007FFFFF00
000000000000000000000000FFFFFE00
000000000000000000000001FFFFFE00
000000000000000000000003FFFFFE00
000000000000000000000007FFFFFC00
00000000000000000000001FFFFFFC00
0000000000000000000000FFFFFFF800
00000003FFFFFFFFFFFFFFFFFFFFF800
000000FFFFFFFFFFFFFFFFFFFFFFF000
000007FFFFFFFFFFFFFFFFFFFFFFF000
00003FFFFFFFFFFFFFFFFFFFFFFFE000
0000FFFFFFFFFFFFFFFFFFFFFFFFC000
0003FFFFFFFFFFFFFFFFFFFFFFFF8000
0007FFFFFFFFFFFFFFFFFFFFFFFF0000
001FFFFFFFFFFFFFFFFFFFFFFFFF0000
003FFFFFFFFFFFFFFFFFFFFFFFFE0000
007FFFFFFFFFFFFFFFFFFFFFFFF80000
00FFFFFFFFFFFFFFFFFFFFFFFFF00000
01FFFFFFFFFFFFFFFFFFFFFFFFE00000
03FFFFFFFFFFFFFFFFFFFFFFFF800000
07FFFFFFFFFFFFFFFFFFFFFFFE000000
07FFFFFFFFFFFFFFFFFFFFFFF8000000
0FFFFFFFFFFFFFFFFFFFFFFFE0000000
0FFFFFFFFFFFFFFFFFFFFFFE00000000
1FFFFFFFFFFFFFFFFFFFFFC000000000
1FFFFFFF800000000000000000000000
3FFFFFF8000000000000000000000000
3FFFFFE0000000000000000000000000
3FFFFF80000000000000000000000000
7FFFFF00000000000000000000000000
7FFFFE00000000000000000000000000
7FFFFE00000000000000000000000000
7FFFFC00000000000000000000000000
FFFFFC00000000000000000000000000
FFFFF800000000000000000000000000
FFFFF800000000000000000000000000
FFFFF800000000000000000000000000
FFFFF800000000000000000000000000
FFFFF000000000000000000000000000
FFFFF000000000000000000000000000
FFFFF000000000000000000000000000
FFFFF000000000000000000000000000
FFFFF000000000000000000000000000
FFFFF000000000000000000000000000
FFFFF000000000000000000000000000
FFFFF000000000000000000000000000
FFFFF000000000000000000000000000
FFFFF000000000000000000000000000
FFFFF000000000000000000000000000
FFFFF000000000000000000000000000
FFFFF000000000000000000000000000
FFFFF000000000000000000000000000
FFFFF000000000000000000000000000
FFFFF000000000000000000000000000
FFFFF000000000000000000000000000
FFFFF000000000000000000000000000
FFFFF000000000000000000000000000
FFFFFFFFFFFFFFFFFFFFFFFFFFFFFE00
FFFFFFFFFFFFFFFFFFFFFFFFFFFFFE00
FFFFFFFFFFFFFFFFFFFFFFFFFFFFFE00
FFFFFFFFFFFFFFFFFFFFFFFFFFFFFE00
FFFFFFFFFFFFFFFFFFFFFFFFFFFFFE00
FFFFFFFFFFFFFFFFFFFFFFFFFFFFFE00
FFFFFFFFFFFFFFFFFFFFFFFFFFFFFE00
FFFFFFFFFFFFFFFFFFFFFFFFFFFFFE00
FFFFFFFFFFFFFFFFFFFFFFFFFFFFFE00
FFFFFFFFFFFFFFFFFFFFFFFFFFFFFE00
FFFFFFFFFFFFFFFFFFFFFFFFFFFFFE00
FFFFFFFFFFFFFFFFFFFFFFFFFFFFFE00
FFFFFFFFFFFFFFFFFFFFFFFFFFFFFE00
FFFFFFFFFFFFFFFFFFFFFFFFFFFFFE00
FFFFFFFFFFFFFFFFFFFFFFFFFFFFFE00
FFFFFFFFFFFFFFFFFFFFFFFFFFFFFE00
FFFFFFFFFFFFFFFFFFFFFFFFFFFFFE00
FFFFFFFFFFFFFFFFFFFFFFFFFFFFFE00
FFFFFFFFFFFFFFFFFFFFFFFFFFFFFE00
FFFFFFFFFFFFFFFFFFFFFFFFFFFFFE00
FFFFFFFFFFFFFFFFFFFFFFFFFFFFFE00
FFFFFFFFFFFFFFFFFFFFFFFFFFFFFE00
ENDCHAR
STARTCHAR three
ENCODING 51
SWIDTH 827 0
DWIDTH 141 0
BBX 125 124 8 0
BITMAP
FFFFFFFFFFFFFFFFFFFFFFE000000000
FFFFFFFFFFFFFFFFFFFFFFFF80000000
FFFFFFFFFFFFFFFFFFFFFFFFF8000000
FFFFFFFFFFFFFFFFFFFFFFFFFE000000
FFFFFFFFFFFFFFFFFFFFFFFFFFC00000
FFFFFFFFFFFFFFFFFFFFFFFFFFF00000
FFFFFFFFFFFFFFFFFFFFFFFFFFF80000
FFFFFFFFFFFFFFFFFFFFFFFFFFFE0000
FFFFFFFFFFFFFFFFFFFFFFFFFFFF0000
FFFFFFFFFFFFFFFFFFFFFFFFFFFF8000
FFFFFFFFFFFFFFFFFFFFFFFFFFFFC000
FFFFFFFFFFFFFFFFFFFFFFFFFFFFE000
FFFFFFFFFFFFFFFFFFFFFFFFFFFFF000
FFFFFFFFFFFFFFFFFFFFFFFFFFFFF800
FFFFFFFFFFFFFFFFFFFFFFFFFFFFFC00
FFFFFFFFFFFFFFFFFFFFFFFFFFFFFC00
FFFFFFFFFFFFFFFFFFFFFFFFFFFFFE00
FFFFFFFFFFFFFFFFFFFFFFFFFFFFFE00
FFFFFFFFFFFFFFFFFFFFFFFFFFFFFF00
FFFFFFFFFFFFFFFFFFFFFFFFFFFFFF00
FFFFFFFFFFFFFFFFFFFFFFFFFFFFFF80
FFFFFFFFFFFFFFFFFFFFFFFFFFFFFF80
0000000000000000000000FFFFFFFF80
00000000000000000000001FFFFFFFC0
000000000000000000000003FFFFFFC0
000000000000000000000000FFFFFFC0
0000000000000000000000007FFFFFC0
0000000000000000000000003FFFFFC0
0000000000000000000000001FFFFFC0
0000000000000000000000001FFFFFE0
0000000000000000000000000FFFFFE0
0000000000000000000000000FFFFFE0
0000000000000000000000000FFFFFE0
0000000000000000000000000FFFFFE0
00000000000000000000000007FFFFE0
00000000000000000000000007FFFFE0
00000000000000000000000007FFFFC0
00000000000000000000000007FFFFC0
00000000000000000000000007FFFFC0
00000000000000000000000007FFFFC0
0000000000000000000000000FFFFFC0
0000000000000000000000000FFFFFC0
0000000000000000000000000FFFFF80
0000000000000000000000000FFFFF80
0000000000000000000000001FFFFF80
0000000000000000000000001FFFFF00
0000000000000000000000003FFFFF00
0000000000000000000000007FFFFE00
000000000000000000000000FFFFFE00
000000000000000000000001FFFFFC00
000000000000000000000007FFFFF800
00000000000000000000007FFFFFF000
00000007FFFFFFFFFFFFFFFFFFFFF000
00000007FFFFFFFFFFFFFFFFFFFFC000
00000007FFFFFFFFFFFFFFFFFFFF8000
00000007FFFFFFFFFFFFFFFFFFFF0000
00000007FFFFFFFFFFFFFFFFFFFC0000
00000007FFFFFFFFFFFFFFFFFFF00000
00000007FFFFFFFFFFFFFFFFFFC00000
00000007FFFFFFFFFFFFFFFFFFF00000
00000007FFFFFFFFFFFFFFFFFFFC0000
00000007FFFFFFFFFFFFFFFFFFFF0000
00000007FFFFFFFFFFFFFFFFFFFF8000
00000007FFFFFFFFFFFFFFFFFFFFE000
00000007FFFFFFFFFFFFFFFFFFFFF000
00000007FFFFFFFFFFFFFFFFFFFFF800
00000007FFFFFFFFFFFFFFFFFFFFFC00
00000007FFFFFFFFFFFFFFFFFFFFFE00
00000007FFFFFFFFFFFFFFFFFFFFFF00
00000007FFFFFFFFFFFFFFFFFFFFFF00
00000000000000000000003FFFFFFF80
000000000000000000000003FFFFFFC0
000000000000000000000000FFFFFFC0
0000000000000000000000007FFFFFE0
0000000000000000000000001FFFFFE0
0000000000000000000000000FFFFFE0
0000000000000000000000000FFFFFF0
00000000000000000000000007FFFFF0
00000000000000000000000003FFFFF0
00000000000000000000000003FFFFF0
00000000000000000000000003FFFFF8
00000000000000000000000001FFFFF8
00000000000000000000000001FFFFF8
00000000000000000000000001FFFFF8
00000000000000000000000001FFFFF8
00000000000000000000000001FFFFF8
00000000000000000000000001FFFFF8
00000000000000000000000001FFFFF8
00000000000000000000000001FFFFF8
00000000000000000000000001FFFFF8
00000000000000000000000003FFFFF8
00000000000000000000000003FFFFF8
00000000000000000000000003FFFFF8
00000000000000000000000007FFFFF8
0000000000000000000000000FFFFFF0
0000000000000000000000000FFFFFF0
0000000000000000000000001FFFFFF0
0000000000000000000000003FFFFFF0
000000000000000000000000FFFFFFE0
000000000000000000000003FFFFFFE0
00000000000000000000000FFFFFFFE0
0000000000000000000000FFFFFFFFC0
FFFFFFFFFFFFFFFFFFFFFFFFFFFFFFC0
FFFFFFFFFFFFFFFFFFFFFFFFFFFFFFC0
FFFFFFFFFFFFFFFFFFFFFFFFFFFFFF80
FFFFFFFFFFFFFFFFFFFFFFFFFFFFFF80
FFFFFFFFFFFFFFFFFFFFFFFFFFFFFF00
FFFFFFFFFFFFFFFFFFFFFFFFFFFFFE00
FFFFFFFFFFFFFFFFFFFFFFFFFFFFFE00
FFFFFFFFFFFFFFFFFFFFFFFFFFFFFC00
FFFFFFFFFFFFFFFFFFFFFFFFFFFFF800
FFFFFFFFFFFFFFFFFFFFFFFFFFFFF000
FFFFFFFFFFFFFFFFFFFFFFFFFFFFE000
FFFFFFFFFFFFFFFFFFFFFFFFFFFFC000
FFFFFFFFFFFFFFFFFFFFFFFFFFFF8000
FFFFFFFFFFFFFFFFFFFFFFFFFFFF0000
FFFFFFFFFFFFFFFFFFFFFFFFFFFE0000
FFFFFFFFFFFFFFFFFFFFFFFFFFF80000
FFFFFFFFFFFFFFFFFFFFFFFFFFF00000
FFFFFFFFFFFFFFFFFFFFFFFFFFC00000
FFFFFFFFFFFFFFFFFFFFFFFFFE000000
FFFFFFFFFFFFFFFFFFFFFFFFF8000000
FFFFFFFFFFFFFFFFFFFFFFFFC0000000
FFFFFFFFFFFFFFFFFFFFFFF000000000
ENDCHAR
STARTCHAR four
ENCODING 52
SWIDTH 845 0
DWIDTH 145 0
BBX 132 124 8 0
BITMAP
FFFFFC000000000000000007FFFFC00000
FFFFFC000000000000000007FFFFC00000
FFFFFC000000000000000007FFFFC00000
FFFFFC000000000000000007FFFFC00000
FFFFFC000000000000000007FFFFC00000
FFFFFC000000000000000007FFFFC00000
FFFFFC000000000000000007FFFFC00000
FFFFFC000000000000000007FFFFC00000
FFFFFC000000000000000007FFFFC00000
FFFFFC000000000000000007FFFFC00000
FFFFFC000000000000000007FFFFC00000
FFFFFC000000000000000007FFFFC00000
FFFFFC000000000000000007FFFFC00000
FFFFFC000000000000000007FFFFC00000
FFFFFC000000000000000007FFFFC00000
FFFFFC000000000000000007FFFFC00000
FFFFFC000000000000000007FFFFC00000
FFFFFC000000000000000007FFFFC00000
FFFFFC000000000000000007FFFFC00000
FFFFFC000000000000000007FFFFC00000
FFFFFC000000000000000007FFFFC00000
FFFFFC000000000000000007FFFFC00000
FFFFFC000000000000000007FFFFC00000
FFFFFC000000000000000007FFFFC00000
FFFFFC000000000000000007FFFFC00000
FFFFFC000000000000000007FFFFC00000
FFFFFC000000000000000007FFFFC00000
FFFFFC000000000000000007FFFFC00000
FFFFFC000000000000000007FFFFC00000
FFFFFC000000000000000007FFFFC00000
FFFFFC000000000000000007FFFFC00000
FFFFFC000000000000000007FFFFC00000
FFFFFC000000000000000007FFFFC00000
FFFFFC000000000000000007FFFFC00000
FFFFFC000000000000000007FFFFC00000
FFFFFC000000000000000007FFFFC00000
FFFFFC000000000000000007FFFFC00000
FFFFFC000000000000000007FFFFC00000
FFFFFC000000000000000007FFFFC00000
FFFFFC000000000000000007FFFFC00000
FFFFFC000000000000000007FFFFC00000
FFFFFC000000000000000007FFFFC00000
FFFFFC000000000000000007FFFFC00000
FFFFFC000000000000000007FFFFC00000
FFFFFC000000000000000007FFFFC00000
FFFFFC000000000000000007FFFFC00000
FFFFFC000000000000000007FFFFC00000
FFFFFC000000000000000007FFFFC00000
FFFFFC000000000000000007FFFFC00000
FFFFFC000000000000000007FFFFC00000
FFFFFC000000000000000007FFFFC00000
FFFFFC000000000000000007FFFFC00000
FFFFFC000000000000000007FFFFC00000
FFFFFC000000000000000007FFFFC00000
FFFFFC000000000000000007FFFFC00000
FFFFFC000000000000000007FFFFC00000
FFFFFC000000000000000007FFFFC00000
FFFFFC000000000000000007FFFFC00000
7FFFFE000000000000000007FFFFC00000
7FFFFE000000000000000007FFFFC00000
7FFFFE000000000000000007FFFFC00000
7FFFFF000000000000000007FFFFC00000
7FFFFF000000000000000007FFFFC00000
7FFFFF800000000000000007FFFFC00000
3FFFFF800000000000000007FFFFC00000
3FFFFFC00000000000000007FFFFC00000
3FFFFFE00000000000000007FFFFC00000
3FFFFFF80000000000000007FFFFC00000
1FFFFFFE0000000000000007FFFFC00000
1FFFFFFFE000000000000007FFFFC00000
1FFFFFFFFFFFFFFFFFFFFFFFFFFFFFFFF0
0FFFFFFFFFFFFFFFFFFFFFFFFFFFFFFFF0
0FFFFFFFFFFFFFFFFFFFFFFFFFFFFFFFF0
07FFFFFFFFFFFFFFFFFFFFFFFFFFFFFFF0
07FFFFFFFFFFFFFFFFFFFFFFFFFFFFFFF0
03FFFFFFFFFFFFFFFFFFFFFFFFFFFFFFF0
03FFFFFFFFFFFFFFFFFFFFFFFFFFFFFFF0
01FFFFFFFFFFFFFFFFFFFFFFFFFFFFFFF0
00FFFFFFFFFFFFFFFFFFFFFFFFFFFFFFF0
007FFFFFFFFFFFFFFFFFFFFFFFFFFFFFF0
003FFFFFFFFFFFFFFFFFFFFFFFFFFFFFF0
001FFFFFFFFFFFFFFFFFFFFFFFFFFFFFF0
000FFFFFFFFFFFFFFFFFFFFFFFFFFFFFF0
0007FFFFFFFFFFFFFFFFFFFFFFFFFFFFF0
0001FFFFFFFFFFFFFFFFFFFFFFFFFFFFF0
0000FFFFFFFFFFFFFFFFFFFFFFFFFFFFF0
00003FFFFFFFFFFFFFFFFFFFFFFFFFFFF0
000007FFFFFFFFFFFFFFFFFFFFFFFFFFF0
000001FFFFFFFFFFFFFFFFFFFFFFFFFFF0
0000001FFFFFFFFFFFFFFFFFFFFFFFFFF0
000000007FFFFFFFFFFFFFFFFFFFFFFFF0
000000000000000000000007FFFFC00000
000000000000000000000007FFFFC00000
000000000000000000000007FFFFC00000
000000000000000000000007FFFFC00000
000000000000000000000007FFFFC00000
000000000000000000000007FFFFC00000
000000000000000000000007FFFFC00000
000000000000000000000007FFFFC00000
000000000000000000000007FFFFC00000
000000000000000000000007FFFFC00000
000000000000000000000007FFFFC00000
000000000000000000000007FFFFC00000
000000000000000000000007FFFFC00000
000000000000000000000007FFFFC00000
000000000000000000000007FFFFC00000
000000000000000000000007FFFFC00000
000000000000000000000007FFFFC00000
000000000000000000000007FFFFC00000
000000000000000000000007FFFFC00000
000000000000000000000007FFFFC00000
000000000000000000000007FFFFC00000
000000000000000000000007FFFFC00000
000000000000000000000007FFFFC00000
000000000000000000000007FFFFC00000
000000000000000000000007FFFFC00000
000000000000000000000007FFFFC00000
000000000000000000000007FFFFC00000
000000000000000000000007FFFFC00000
000000000000000000000007FFFFC00000
000000000000000000000007FFFFC00000
000000000000000000000007FFFFC00000
000000000000000000000007FFFFC00000
000000000000000000000007FFFFC00000
ENDCHAR
STARTCHAR five
ENCODING 53
SWIDTH 885 0
DWIDTH 151 0
BBX 131 124 11 0
BITMAP
FFFFFFFFFFFFFFFFFFFFFFFFFFFFFFF800
FFFFFFFFFFFFFFFFFFFFFFFFFFFFFFF800
FFFFFFFFFFFFFFFFFFFFFFFFFFFFFFF800
FFFFFFFFFFFFFFFFFFFFFFFFFFFFFFF800
FFFFFFFFFFFFFFFFFFFFFFFFFFFFFFF800
FFFFFFFFFFFFFFFFFFFFFFFFFFFFFFF800
FFFFFFFFFFFFFFFFFFFFFFFFFFFFFFF800
FFFFFFFFFFFFFFFFFFFFFFFFFFFFFFF800
FFFFFFFFFFFFFFFFFFFFFFFFFFFFFFF800
FFFFFFFFFFFFFFFFFFFFFFFFFFFFFFF800
FFFFFFFFFFFFFFFFFFFFFFFFFFFFFFF800
FFFFFFFFFFFFFFFFFFFFFFFFFFFFFFF800
FFFFFFFFFFFFFFFFFFFFFFFFFFFFFFF800
FFFFFFFFFFFFFFFFFFFFFFFFFFFFFFF800
FFFFFFFFFFFFFFFFFFFFFFFFFFFFFFF800
FFFFFFFFFFFFFFFFFFFFFFFFFFFFFFF800
FFFFFFFFFFFFFFFFFFFFFFFFFFFFFFF800
FFFFFFFFFFFFFFFFFFFFFFFFFFFFFFF800
FFFFFFFFFFFFFFFFFFFFFFFFFFFFFFF800
FFFFFFFFFFFFFFFFFFFFFFFFFFFFFFF800
FFFFFFFFFFFFFFFFFFFFFFFFFFFFFFF800
FFFFFFFFFFFFFFFFFFFFFFFFFFFFFFF800
FFFFFC0000000000000000000000000000
FFFFFC0000000000000000000000000000
FFFFFC0000000000000000000000000000
FFFFFC0000000000000000000000000000
FFFFFC0000000000000000000000000000
FFFFFC0000000000000000000000000000
FFFFFC0000000000000000000000000000
FFFFFC0000000000000000000000000000
FFFFFC0000000000000000000000000000
FFFFFC0000000000000000000000000000
FFFFFC0000000000000000000000000000
FFFFFC0000000000000000000000000000
FFFFFC0000000000000000000000000000
FFFFFC0000000000000000000000000000
FFFFFC0000000000000000000000000000
FFFFFC0000000000000000000000000000
FFFFFC0000000000000000000000000000
FFFFFC0000000000000000000000000000
FFFFFC0000000000000000000000000000
FFFFFC0000000000000000000000000000
FFFFFC0000000000000000000000000000
FFFFFC0000000000000000000000000000
FFFFFC0000000000000000000000000000
FFFFFC0000000000000000000000000000
FFFFFC0000000000000000000000000000
FFFFFC0000000000000000000000000000
FFFFFC0000000000000000000000000000
FFFFFC0000000000000000000000000000
FFFFFC0000000000000000000000000000
FFFFFC0000000000000000000000000000
FFFFFFFFFFFFFFFFFFFFFFFFF800000000
FFFFFFFFFFFFFFFFFFFFFFFFFFE0000000
FFFFFFFFFFFFFFFFFFFFFFFFFFFC000000
FFFFFFFFFFFFFFFFFFFFFFFFFFFF800000
FFFFFFFFFFFFFFFFFFFFFFFFFFFFE00000
FFFFFFFFFFFFFFFFFFFFFFFFFFFFF80000
FFFFFFFFFFFFFFFFFFFFFFFFFFFFFE0000
FFFFFFFFFFFFFFFFFFFFFFFFFFFFFF0000
FFFFFFFFFFFFFFFFFFFFFFFFFFFFFF8000
FFFFFFFFFFFFFFFFFFFFFFFFFFFFFFC000
FFFFFFFFFFFFFFFFFFFFFFFFFFFFFFE000
FFFFFFFFFFFFFFFFFFFFFFFFFFFFFFF000
FFFFFFFFFFFFFFFFFFFFFFFFFFFFFFF800
FFFFFFFFFFFFFFFFFFFFFFFFFFFFFFFC00
FFFFFFFFFFFFFFFFFFFFFFFFFFFFFFFC00
FFFFFFFFFFFFFFFFFFFFFFFFFFFFFFFE00
FFFFFFFFFFFFFFFFFFFFFFFFFFFFFFFE00
FFFFFFFFFFFFFFFFFFFFFFFFFFFFFFFF00
0000000000000000000000003FFFFFFF00
00000000000000000000000003FFFFFF80
00000000000000000000000000FFFFFF80
000000000000000000000000003FFFFF80
000000000000000000000000001FFFFFC0
000000000000000000000000000FFFFFC0
000000000000000000000000000FFFFFC0
0000000000000000000000000007FFFFC0
0000000000000000000000000003FFFFE0
0000000000000000000000000003FFFFE0
0000000000000000000000000003FFFFE0
0000000000000000000000000003FFFFE0
0000000000000000000000000001FFFFE0
0000000000000000000000000001FFFFE0
0000000000000000000000000001FFFFE0
0000000000000000000000000001FFFFE0
0000000000000000000000000001FFFFE0
0000000000000000000000000001FFFFE0
0000000000000000000000000001FFFFE0
0000000000000000000000000001FFFFE0
0000000000000000000000000003FFFFE0
0000000000000000000000000003FFFFE0
0000000000000000000000000003FFFFE0
0000000000000000000000000007FFFFE0
0000000000000000000000000007FFFFE0
000000000000000000000000000FFFFFE0
000000000000000000000000000FFFFFE0
000000000000000000000000001FFFFFC0
000000000000000000000000003FFFFFC0
00000000000000000000000000FFFFFFC0
00000000000000000000000003FFFFFFC0
0000000000000000000000000FFFFFFF80
FFFFFFFFFFFFFFFFFFFFFFFFFFFFFFFF80
FFFFFFFFFFFFFFFFFFFFFFFFFFFFFFFF80
FFFFFFFFFFFFFFFFFFFFFFFFFFFFFFFF00
FFFFFFFFFFFFFFFFFFFFFFFFFFFFFFFF00
FFFFFFFFFFFFFFFFFFFFFFFFFFFFFFFE00
FFFFFFFFFFFFFFFFFFFFFFFFFFFFFFFE00
FFFFFFFFFFFFFFFFFFFFFFFFFFFFFFFC00
FFFFFFFFFFFFFFFFFFFFFFFFFFFFFFF800
FFFFFFFFFFFFFFFFFFFFFFFFFFFFFFF800
FFFFFFFFFFFFFFFFFFFFFFFFFFFFFFF000
FFFFFFFFFFFFFFFFFFFFFFFFFFFFFFE000
FFFFFFFFFFFFFFFFFFFFFFFFFFFFFFC000
FFFFFFFFFFFFFFFFFFFFFFFFFFFFFF8000
FFFFFFFFFFFFFFFFFFFFFFFFFFFFFF0000
FFFFFFFFFFFFFFFFFFFFFFFFFFFFFE0000
FFFFFFFFFFFFFFFFFFFFFFFFFFFFF80000
FFFFFFFFFFFFFFFFFFFFFFFFFFFFF00000
FFFFFFFFFFFFFFFFFFFFFFFFFFFFC00000
FFFFFFFFFFFFFFFFFFFFFFFFFFFF000000
FFFFFFFFFFFFFFFFFFFFFFFFFFF8000000
FFFFFFFFFFFFFFFFFFFFFFFFFFC0000000
FFFFFFFFFFFFFFFFFFFFFFFFF800000000
ENDCHAR
STARTCHAR six
ENCODING 54
SWIDTH 872 0
DWIDTH 149 0
BBX 133 124 7 0
BITMAP
000000000001FFFFFFFFFFFFFFFFFFFF00
00000000007FFFFFFFFFFFFFFFFFFFFF00
0000000007FFFFFFFFFFFFFFFFFFFFFF00
000000007FFFFFFFFFFFFFFFFFFFFFFF00
00000001FFFFFFFFFFFFFFFFFFFFFFFF00
0000000FFFFFFFFFFFFFFFFFFFFFFFFF00
0000003FFFFFFFFFFFFFFFFFFFFFFFFF00
000000FFFFFFFFFFFFFFFFFFFFFFFFFF00
000001FFFFFFFFFFFFFFFFFFFFFFFFFF00
000007FFFFFFFFFFFFFFFFFFFFFFFFFF00
00000FFFFFFFFFFFFFFFFFFFFFFFFFFF00
00001FFFFFFFFFFFFFFFFFFFFFFFFFFF00
00007FFFFFFFFFFFFFFFFFFFFFFFFFFF00
0000FFFFFFFFFFFFFFFFFFFFFFFFFFFF00
0001FFFFFFFFFFFFFFFFFFFFFFFFFFFF00
0003FFFFFFFFFFFFFFFFFFFFFFFFFFFF00
0007FFFFFFFFFFFFFFFFFFFFFFFFFFFF00
0007FFFFFFFFFFFFFFFFFFFFFFFFFFFF00
000FFFFFFFFFFFFFFFFFFFFFFFFFFFFF00
001FFFFFFFFFFFFFFFFFFFFFFFFFFFFF00
003FFFFFFFFFFFFFFFFFFFFFFFFFFFFF00
003FFFFFFFFFFFFFFFFFFFFFFFFFFFFF00
007FFFFFFFFE0000000000000000000000
00FFFFFFFFE00000000000000000000000
00FFFFFFFF000000000000000000000000
01FFFFFFFC000000000000000000000000
01FFFFFFF0000000000000000000000000
03FFFFFFE0000000000000000000000000
03FFFFFF80000000000000000000000000
07FFFFFF00000000000000000000000000
07FFFFFE00000000000000000000000000
07FFFFFC00000000000000000000000000
0FFFFFFC00000000000000000000000000
0FFFFFF800000000000000000000000000
0FFFFFF000000000000000000000000000
1FFFFFE000000000000000000000000000
1FFFFFE000000000000000000000000000
1FFFFFC000000000000000000000000000
1FFFFFC000000000000000000000000000
3FFFFFC000000000000000000000000000
3FFFFF8000000000000000000000000000
3FFFFF8000000000000000000000000000
3FFFFF0000000000000000000000000000
7FFFFF0000000000000000000000000000
7FFFFF0000000000000000000000000000
7FFFFF0000000000000000000000000000
7FFFFE0000000000000000000000000000
7FFFFE0000000000000000000000000000
7FFFFE0000000000000000000000000000
7FFFFE0000000000000000000000000000
7FFFFE0000000000000000000000000000
7FFFFC0000000000000000000000000000
FFFFFFFFFFFFFFFFFFFFFFFFFE00000000
FFFFFFFFFFFFFFFFFFFFFFFFFFF8000000
FFFFFFFFFFFFFFFFFFFFFFFFFFFF000000
FFFFFFFFFFFFFFFFFFFFFFFFFFFFE00000
FFFFFFFFFFFFFFFFFFFFFFFFFFFFF80000
FFFFFFFFFFFFFFFFFFFFFFFFFFFFFE0000
FFFFFFFFFFFFFFFFFFFFFFFFFFFFFF8000
FFFFFFFFFFFFFFFFFFFFFFFFFFFFFFC000
FFFFFFFFFFFFFFFFFFFFFFFFFFFFFFE000
FFFFFFFFFFFFFFFFFFFFFFFFFFFFFFF000
FFFFFFFFFFFFFFFFFFFFFFFFFFFFFFF800
FFFFFFFFFFFFFFFFFFFFFFFFFFFFFFFC00
FFFFFFFFFFFFFFFFFFFFFFFFFFFFFFFE00
FFFFFFFFFFFFFFFFFFFFFFFFFFFFFFFF00
FFFFFFFFFFFFFFFFFFFFFFFFFFFFFFFF00
FFFFFFFFFFFFFFFFFFFFFFFFFFFFFFFF80
FFFFFFFFFFFFFFFFFFFFFFFFFFFFFFFF80
FFFFFFFFFFFFFFFFFFFFFFFFFFFFFFFFC0
7FFFFC0000000000000000001FFFFFFFC0
7FFFFC00000000000000000001FFFFFFE0
7FFFFE000000000000000000007FFFFFE0
7FFFFE000000000000000000001FFFFFE0
7FFFFE000000000000000000000FFFFFF0
7FFFFE0000000000000000000007FFFFF0
7FFFFE0000000000000000000003FFFFF0
7FFFFE0000000000000000000003FFFFF0
3FFFFF0000000000000000000001FFFFF0
3FFFFF0000000000000000000001FFFFF8
3FFFFF0000000000000000000000FFFFF8
3FFFFF8000000000000000000000FFFFF8
3FFFFF8000000000000000000000FFFFF8
1FFFFF8000000000000000000000FFFFF8
1FFFFFC000000000000000000000FFFFF8
1FFFFFC000000000000000000000FFFFF8
1FFFFFE000000000000000000000FFFFF8
0FFFFFE000000000000000000000FFFFF8
0FFFFFF000000000000000000000FFFFF8
0FFFFFF000000000000000000000FFFFF8
07FFFFF800000000000000000000FFFFF8
07FFFFFC00000000000000000001FFFFF8
07FFFFFE00000000000000000001FFFFF8
03FFFFFE00000000000000000001FFFFF8
03FFFFFF80000000000000000003FFFFF0
01FFFFFFC0000000000000000007FFFFF0
01FFFFFFE0000000000000000007FFFFF0
00FFFFFFF800000000000000000FFFFFF0
00FFFFFFFC00000000000000001FFFFFF0
007FFFFFFF80000000000000007FFFFFE0
007FFFFFFFE000000000000001FFFFFFE0
003FFFFFFFFE0000000000000FFFFFFFE0
001FFFFFFFFFFFFFFFFFFFFFFFFFFFFFE0
001FFFFFFFFFFFFFFFFFFFFFFFFFFFFFC0
000FFFFFFFFFFFFFFFFFFFFFFFFFFFFFC0
0007FFFFFFFFFFFFFFFFFFFFFFFFFFFF80
0003FFFFFFFFFFFFFFFFFFFFFFFFFFFF80
0003FFFFFFFFFFFFFFFFFFFFFFFFFFFF00
0001FFFFFFFFFFFFFFFFFFFFFFFFFFFF00
0000FFFFFFFFFFFFFFFFFFFFFFFFFFFE00
00007FFFFFFFFFFFFFFFFFFFFFFFFFFC00
00003FFFFFFFFFFFFFFFFFFFFFFFFFF800
00000FFFFFFFFFFFFFFFFFFFFFFFFFF800
000007FFFFFFFFFFFFFFFFFFFFFFFFF000
000003FFFFFFFFFFFFFFFFFFFFFFFFE000
000000FFFFFFFFFFFFFFFFFFFFFFFFC000
0000007FFFFFFFFFFFFFFFFFFFFFFF0000
0000001FFFFFFFFFFFFFFFFFFFFFFE0000
00000007FFFFFFFFFFFFFFFFFFFFF80000
00000001FFFFFFFFFFFFFFFFFFFFF00000
000000003FFFFFFFFFFFFFFFFFFFC00000
0000000007FFFFFFFFFFFFFFFFFE000000
00000000007FFFFFFFFFFFFFFFF0000000
000000000001FFFFFFFFFFFFFE00000000
ENDCHAR
STARTCHAR seven
ENCODING 55
SWIDTH 756 0
DWIDTH 129 0
BBX 118 124 8 0
BITMAP
FFFFFFFFFFFFFFFFFFFFFFFFFFF800
FFFFFFFFFFFFFFFFFFFFFFFFFFFF00
FFFFFFFFFFFFFFFFFFFFFFFFFFFFC0
FFFFFFFFFFFFFFFFFFFFFFFFFFFFE0
FFFFFFFFFFFFFFFFFFFFFFFFFFFFF0
FFFFFFFFFFFFFFFFFFFFFFFFFFFFF0
FFFFFFFFFFFFFFFFFFFFFFFFFFFFF8
FFFFFFFFFFFFFFFFFFFFFFFFFFFFF8
FFFFFFFFFFFFFFFFFFFFFFFFFFFFFC
FFFFFFFFFFFFFFFFFFFFFFFFFFFFFC
FFFFFFFFFFFFFFFFFFFFFFFFFFFFFC
FFFFFFFFFFFFFFFFFFFFFFFFFFFFFC
FFFFFFFFFFFFFFFFFFFFFFFFFFFFFC
FFFFFFFFFFFFFFFFFFFFFFFFFFFFF8
FFFFFFFFFFFFFFFFFFFFFFFFFFFFF8
FFFFFFFFFFFFFFFFFFFFFFFFFFFFF8
FFFFFFFFFFFFFFFFFFFFFFFFFFFFF0
FFFFFFFFFFFFFFFFFFFFFFFFFFFFF0
FFFFFFFFFFFFFFFFFFFFFFFFFFFFE0
FFFFFFFFFFFFFFFFFFFFFFFFFFFFC0
FFFFFFFFFFFFFFFFFFFFFFFFFFFFC0
FFFFFFFFFFFFFFFFFFFFFFFFFFFF80
0000000000000000000007FFFFFF00
000000000000000000000FFFFFFE00
000000000000000000001FFFFFFC00
000000000000000000003FFFFFF800
000000000000000000003FFFFFF800
000000000000000000007FFFFFF000
00000000000000000000FFFFFFE000
00000000000000000001FFFFFFC000
00000000000000000003FFFFFF8000
00000000000000000007FFFFFF8000
00000000000000000007FFFFFF0000
0000000000000000000FFFFFFE0000
0000000000000000001FFFFFFC0000
0000000000000000003FFFFFF80000
0000000000000000007FFFFFF00000
000000000000000000FFFFFFF00000
000000000000000000FFFFFFE00000
000000000000000001FFFFFFC00000
000000000000000003FFFFFF800000
000000000000000007FFFFFF000000
00000000000000000FFFFFFF000000
00000000000000001FFFFFFE000000
00000000000000001FFFFFFC000000
00000000000000003FFFFFF8000000
00000000000000007FFFFFF0000000
0000000000000000FFFFFFE0000000
0000000000000001FFFFFFE0000000
0000000000000003FFFFFFC0000000
0000000000000003FFFFFF80000000
0000000000000007FFFFFF00000000
000000000000000FFFFFFE00000000
000000000000001FFFFFFE00000000
000000000000003FFFFFFC00000000
000000000000007FFFFFF800000000
000000000000007FFFFFF000000000
00000000000000FFFFFFE000000000
00000000000001FFFFFFC000000000
00000000000003FFFFFFC000000000
00000000000007FFFFFF8000000000
0000000000000FFFFFFF0000000000
0000000000000FFFFFFE0000000000
0000000000001FFFFFFC0000000000
0000000000003FFFFFFC0000000000
0000000000007FFFFFF80000000000
000000000000FFFFFFF00000000000
000000000001FFFFFFE00000000000
000000000001FFFFFFC00000000000
000000000003FFFFFF800000000000
000000000007FFFFFF800000000000
00000000000FFFFFFF000000000000
00000000001FFFFFFE000000000000
00000000003FFFFFFC000000000000
00000000003FFFFFF8000000000000
00000000007FFFFFF8000000000000
0000000000FFFFFFF0000000000000
0000000001FFFFFFE0000000000000
0000000003FFFFFFC0000000000000
0000000007FFFFFF80000000000000
0000000007FFFFFF00000000000000
000000000FFFFFFF00000000000000
000000001FFFFFFE00000000000000
000000003FFFFFFC00000000000000
000000007FFFFFF800000000000000
000000007FFFFFF000000000000000
00000000FFFFFFE000000000000000
00000001FFFFFFE000000000000000
00000003FFFFFFC000000000000000
00000007FFFFFF8000000000000000
0000000FFFFFFF0000000000000000
0000000FFFFFFE0000000000000000
0000001FFFFFFE0000000000000000
0000003FFFFFFC0000000000000000
0000007FFFFFF80000000000000000
000000FFFFFFF00000000000000000
000001FFFFFFE00000000000000000
000001FFFFFFC00000000000000000
000003FFFFFFC00000000000000000
000007FFFFFF800000000000000000
00000FFFFFFF000000000000000000
00001FFFFFFE000000000000000000
00003FFFFFFC000000000000000000
00003FFFFFFC000000000000000000
00007FFFFFF8000000000000000000
0000FFFFFFF0000000000000000000
0001FFFFFFE0000000000000000000
0003FFFFFFC0000000000000000000
0007FFFFFF80000000000000000000
0007FFFFFF80000000000000000000
000FFFFFFF00000000000000000000
001FFFFFFE00000000000000000000
003FFFFFFC00000000000000000000
007FFFFFF800000000000000000000
00FFFFFFF800000000000000000000
00FFFFFFF000000000000000000000
01FFFFFFE000000000000000000000
03FFFFFFC000000000000000000000
07FFFFFF8000000000000000000000
0FFFFFFF0000000000000000000000
1FFFFFFF0000000000000000000000
1FFFFFFE0000000000000000000000
3FFFFFFC0000000000000000000000
7FFFFFF80000000000000000000000
ENDCHAR
STARTCHAR eight
ENCODING 56
SWIDTH 898 0
DWIDTH 154 0
BBX 136 124 9 0
BITMAP
000000003FFFFFFFFFFFFFFFFC00000000
0000000FFFFFFFFFFFFFFFFFFFF0000000
000000FFFFFFFFFFFFFFFFFFFFFE000000
000007FFFFFFFFFFFFFFFFFFFFFFC00000
00001FFFFFFFFFFFFFFFFFFFFFFFF80000
00007FFFFFFFFFFFFFFFFFFFFFFFFE0000
0001FFFFFFFFFFFFFFFFFFFFFFFFFF0000
0003FFFFFFFFFFFFFFFFFFFFFFFFFFC000
0007FFFFFFFFFFFFFFFFFFFFFFFFFFE000
001FFFFFFFFFFFFFFFFFFFFFFFFFFFF000
003FFFFFFFFFFFFFFFFFFFFFFFFFFFF800
007FFFFFFFFFFFFFFFFFFFFFFFFFFFFC00
00FFFFFFFFFFFFFFFFFFFFFFFFFFFFFE00
00FFFFFFFFFFFFFFFFFFFFFFFFFFFFFF00
01FFFFFFFFFFFFFFFFFFFFFFFFFFFFFF80
03FFFFFFFFFFFFFFFFFFFFFFFFFFFFFF80
03FFFFFFFFFFFFFFFFFFFFFFFFFFFFFFC0
07FFFFFFFFFFFFFFFFFFFFFFFFFFFFFFC0
07FFFFFFFFFFFFFFFFFFFFFFFFFFFFFFE0
0FFFFFFFFFFFFFFFFFFFFFFFFFFFFFFFE0
0FFFFFFFFFFFFFFFFFFFFFFFFFFFFFFFF0
0FFFFFFFFFFFFFFFFFFFFFFFFFFFFFFFF0
1FFFFFFFF8000000000000001FFFFFFFF0
1FFFFFFF800000000000000003FFFFFFF8
1FFFFFFE0000000000000000007FFFFFF8
1FFFFFF80000000000000000001FFFFFF8
3FFFFFF00000000000000000000FFFFFF8
3FFFFFE000000000000000000007FFFFF8
3FFFFFC000000000000000000007FFFFF8
3FFFFFC000000000000000000003FFFFFC
3FFFFF8000000000000000000003FFFFFC
3FFFFF8000000000000000000001FFFFFC
3FFFFF0000000000000000000001FFFFFC
3FFFFF0000000000000000000001FFFFFC
3FFFFF0000000000000000000001FFFFFC
3FFFFF0000000000000000000000FFFFF8
3FFFFF0000000000000000000000FFFFF8
3FFFFF0000000000000000000000FFFFF8
1FFFFF0000000000000000000001FFFFF8
1FFFFF0000000000000000000001FFFFF8
1FFFFF0000000000000000000001FFFFF8
1FFFFF0000000000000000000001FFFFF8
1FFFFF8000000000000000000001FFFFF0
0FFFFF8000000000000000000001FFFFF0
0FFFFF8000000000000000000003FFFFF0
0FFFFFC000000000000000000003FFFFE0
07FFFFC000000000000000000007FFFFE0
07FFFFE00000000000000000000FFFFFC0
03FFFFF00000000000000000001FFFFFC0
01FFFFFC0000000000000000003FFFFF80
01FFFFFF000000000000000000FFFFFF00
00FFFFFFF0000000000000000FFFFFFE00
007FFFFFFFFFFFFFFFFFFFFFFFFFFFFC00
003FFFFFFFFFFFFFFFFFFFFFFFFFFFF800
001FFFFFFFFFFFFFFFFFFFFFFFFFFFF000
0007FFFFFFFFFFFFFFFFFFFFFFFFFFE000
0003FFFFFFFFFFFFFFFFFFFFFFFFFF8000
0000FFFFFFFFFFFFFFFFFFFFFFFFFE0000
00001FFFFFFFFFFFFFFFFFFFFFFFF80000
00007FFFFFFFFFFFFFFFFFFFFFFFFE0000
0001FFFFFFFFFFFFFFFFFFFFFFFFFF8000
0007FFFFFFFFFFFFFFFFFFFFFFFFFFE000
001FFFFFFFFFFFFFFFFFFFFFFFFFFFF000
003FFFFFFFFFFFFFFFFFFFFFFFFFFFFC00
007FFFFFFFFFFFFFFFFFFFFFFFFFFFFE00
00FFFFFFFFFFFFFFFFFFFFFFFFFFFFFF00
01FFFFFFFFFFFFFFFFFFFFFFFFFFFFFF80
03FFFFFFFFFFFFFFFFFFFFFFFFFFFFFFC0
07FFFFFFFFFFFFFFFFFFFFFFFFFFFFFFC0
0FFFFFFFFFFFFFFFFFFFFFFFFFFFFFFFE0
0FFFFFFFE00000000000000007FFFFFFF0
1FFFFFFE000000000000000000FFFFFFF0
1FFFFFF80000000000000000001FFFFFF8
3FFFFFE00000000000000000000FFFFFF8
3FFFFFC000000000000000000007FFFFFC
7FFFFF8000000000000000000003FFFFFC
7FFFFF0000000000000000000001FFFFFC
7FFFFF0000000000000000000000FFFFFE
7FFFFE0000000000000000000000FFFFFE
FFFFFE00000000000000000000007FFFFE
FFFFFC00000000000000000000007FFFFE
FFFFFC00000000000000000000007FFFFF
FFFFFC00000000000000000000003FFFFF
FFFFFC00000000000000000000003FFFFF
FFFFFC00000000000000000000003FFFFF
FFFFFC00000000000000000000003FFFFF
FFFFFC00000000000000000000003FFFFF
FFFFFC00000000000000000000003FFFFF
FFFFFC00000000000000000000003FFFFF
FFFFFC00000000000000000000003FFFFF
FFFFFC00000000000000000000007FFFFF
FFFFFC00000000000000000000007FFFFF
FFFFFE00000000000000000000007FFFFE
FFFFFE0000000000000000000000FFFFFE
FFFFFF0000000000000000000001FFFFFE
7FFFFF8000000000000000000001FFFFFE
7FFFFFC000000000000000000003FFFFFE
7FFFFFE000000000000000000007FFFFFE
7FFFFFF80000000000000000001FFFFFFC
3FFFFFFC0000000000000000007FFFFFFC
3FFFFFFF800000000000000001FFFFFFFC
3FFFFFFFF8000000000000001FFFFFFFF8
1FFFFFFFFFFFFFFFFFFFFFFFFFFFFFFFF8
1FFFFFFFFFFFFFFFFFFFFFFFFFFFFFFFF0
0FFFFFFFFFFFFFFFFFFFFFFFFFFFFFFFF0
0FFFFFFFFFFFFFFFFFFFFFFFFFFFFFFFE0
07FFFFFFFFFFFFFFFFFFFFFFFFFFFFFFE0
07FFFFFFFFFFFFFFFFFFFFFFFFFFFFFFC0
03FFFFFFFFFFFFFFFFFFFFFFFFFFFFFFC0
01FFFFFFFFFFFFFFFFFFFFFFFFFFFFFF80
00FFFFFFFFFFFFFFFFFFFFFFFFFFFFFF00
00FFFFFFFFFFFFFFFFFFFFFFFFFFFFFE00
007FFFFFFFFFFFFFFFFFFFFFFFFFFFFC00
003FFFFFFFFFFFFFFFFFFFFFFFFFFFF800
001FFFFFFFFFFFFFFFFFFFFFFFFFFFF000
0007FFFFFFFFFFFFFFFFFFFFFFFFFFE000
0003FFFFFFFFFFFFFFFFFFFFFFFFFFC000
0001FFFFFFFFFFFFFFFFFFFFFFFFFF0000
00007FFFFFFFFFFFFFFFFFFFFFFFFE0000
00001FFFFFFFFFFFFFFFFFFFFFFFF80000
000007FFFFFFFFFFFFFFFFFFFFFFE00000
000000FFFFFFFFFFFFFFFFFFFFFF000000
0000001FFFFFFFFFFFFFFFFFFFF8000000
00000000FFFFFFFFFFFFFFFFFF00000000
ENDCHAR
STARTCHAR nine
ENCODING 57
SWIDTH 861 0
DWIDTH 147 0
BBX 133 124 7 0
BITMAP
00000003FFFFFFFFFFFFFC000000000000
0000007FFFFFFFFFFFFFFFF00000000000
000003FFFFFFFFFFFFFFFFFF0000000000
00000FFFFFFFFFFFFFFFFFFFE000000000
00003FFFFFFFFFFFFFFFFFFFFC00000000
00007FFFFFFFFFFFFFFFFFFFFF00000000
0001FFFFFFFFFFFFFFFFFFFFFFC0000000
0003FFFFFFFFFFFFFFFFFFFFFFF0000000
0007FFFFFFFFFFFFFFFFFFFFFFF8000000
001FFFFFFFFFFFFFFFFFFFFFFFFE000000
003FFFFFFFFFFFFFFFFFFFFFFFFF000000
003FFFFFFFFFFFFFFFFFFFFFFFFF800000
007FFFFFFFFFFFFFFFFFFFFFFFFFE00000
00FFFFFFFFFFFFFFFFFFFFFFFFFFF00000
01FFFFFFFFFFFFFFFFFFFFFFFFFFF80000
03FFFFFFFFFFFFFFFFFFFFFFFFFFFC0000
03FFFFFFFFFFFFFFFFFFFFFFFFFFFE0000
07FFFFFFFFFFFFFFFFFFFFFFFFFFFE0000
07FFFFFFFFFFFFFFFFFFFFFFFFFFFF0000
0FFFFFFFFFFFFFFFFFFFFFFFFFFFFF8000
0FFFFFFFFFFFFFFFFFFFFFFFFFFFFFC000
1FFFFFFFFFFFFFFFFFFFFFFFFFFFFFC000
1FFFFFFFC0000000000003FFFFFFFFE000
1FFFFFFE000000000000003FFFFFFFF000
3FFFFFF80000000000000007FFFFFFF000
3FFFFFF00000000000000001FFFFFFF800
3FFFFFE000000000000000007FFFFFF800
7FFFFFC000000000000000003FFFFFFC00
7FFFFF8000000000000000001FFFFFFC00
7FFFFF80000000000000000007FFFFFE00
7FFFFF00000000000000000003FFFFFE00
7FFFFF00000000000000000001FFFFFF00
7FFFFE00000000000000000001FFFFFF00
FFFFFE00000000000000000000FFFFFF00
FFFFFE000000000000000000007FFFFF80
FFFFFE000000000000000000007FFFFF80
FFFFFC000000000000000000003FFFFF80
FFFFFC000000000000000000003FFFFFC0
FFFFFC000000000000000000001FFFFFC0
FFFFFC000000000000000000001FFFFFC0
FFFFFC000000000000000000000FFFFFE0
FFFFFC000000000000000000000FFFFFE0
FFFFFC0000000000000000000007FFFFE0
FFFFFC0000000000000000000007FFFFE0
FFFFFE0000000000000000000007FFFFE0
7FFFFE0000000000000000000007FFFFF0
7FFFFE0000000000000000000003FFFFF0
7FFFFE0000000000000000000003FFFFF0
7FFFFF0000000000000000000003FFFFF0
7FFFFF0000000000000000000003FFFFF0
7FFFFF8000000000000000000003FFFFF0
7FFFFFC000000000000000000001FFFFF0
3FFFFFE000000000000000000001FFFFF8
3FFFFFF000000000000000000001FFFFF8
3FFFFFF800000000000000000001FFFFF8
1FFFFFFE00000000000000000001FFFFF8
1FFFFFFFE0000000000000000001FFFFF8
1FFFFFFFFFFFFFFFFFFFFFFFFFFFFFFFF8
0FFFFFFFFFFFFFFFFFFFFFFFFFFFFFFFF8
0FFFFFFFFFFFFFFFFFFFFFFFFFFFFFFFF8
07FFFFFFFFFFFFFFFFFFFFFFFFFFFFFFF8
03FFFFFFFFFFFFFFFFFFFFFFFFFFFFFFF8
03FFFFFFFFFFFFFFFFFFFFFFFFFFFFFFF8
01FFFFFFFFFFFFFFFFFFFFFFFFFFFFFFF8
00FFFFFFFFFFFFFFFFFFFFFFFFFFFFFFF8
007FFFFFFFFFFFFFFFFFFFFFFFFFFFFFF8
003FFFFFFFFFFFFFFFFFFFFFFFFFFFFFF8
001FFFFFFFFFFFFFFFFFFFFFFFFFFFFFF8
000FFFFFFFFFFFFFFFFFFFFFFFFFFFFFF8
0003FFFFFFFFFFFFFFFFFFFFFFFFFFFFF8
0001FFFFFFFFFFFFFFFFFFFFFFFFFFFFF8
00007FFFFFFFFFFFFFFFFFFFFFFFFFFFF8
00000FFFFFFFFFFFFFFFFFFFFFFFFFFFF8
000001FFFFFFFFFFFFFFFFFFFFFFFFFFF8
0000000FFFFFFFFFFFFFFFFFFFFFFFFFF8
0000000000000000000000000003FFFFF0
0000000000000000000000000003FFFFF0
0000000000000000000000000003FFFFF0
0000000000000000000000000003FFFFF0
0000000000000000000000000007FFFFF0
0000000000000000000000000007FFFFF0
0000000000000000000000000007FFFFF0
000000000000000000000000000FFFFFE0
000000000000000000000000000FFFFFE0
000000000000000000000000000FFFFFE0
000000000000000000000000001FFFFFE0
000000000000000000000000001FFFFFC0
000000000000000000000000003FFFFFC0
000000000000000000000000003FFFFFC0
000000000000000000000000007FFFFF80
00000000000000000000000000FFFFFF80
00000000000000000000000000FFFFFF80
00000000000000000000000001FFFFFF00
00000000000000000000000003FFFFFF00
00000000000000000000000007FFFFFF00
0000000000000000000000000FFFFFFE00
0000000000000000000000003FFFFFFE00
0000000000000000000000007FFFFFFC00
000000000000000000000001FFFFFFFC00
000000000000000000000007FFFFFFF800
00000000000000000000003FFFFFFFF800
0000000000000000000003FFFFFFFFF000
0003FFFFFFFFFFFFFFFFFFFFFFFFFFF000
0003FFFFFFFFFFFFFFFFFFFFFFFFFFE000
0003FFFFFFFFFFFFFFFFFFFFFFFFFFC000
0003FFFFFFFFFFFFFFFFFFFFFFFFFF8000
0003FFFFFFFFFFFFFFFFFFFFFFFFFF8000
0003FFFFFFFFFFFFFFFFFFFFFFFFFF0000
0003FFFFFFFFFFFFFFFFFFFFFFFFFE0000
0003FFFFFFFFFFFFFFFFFFFFFFFFFC0000
0003FFFFFFFFFFFFFFFFFFFFFFFFF80000
0003FFFFFFFFFFFFFFFFFFFFFFFFF00000
0003FFFFFFFFFFFFFFFFFFFFFFFFE00000
0003FFFFFFFFFFFFFFFFFFFFFFFF800000
0003FFFFFFFFFFFFFFFFFFFFFFFF000000
0003FFFFFFFFFFFFFFFFFFFFFFFE000000
0003FFFFFFFFFFFFFFFFFFFFFFF8000000
0003FFFFFFFFFFFFFFFFFFFFFFE0000000
0003FFFFFFFFFFFFFFFFFFFFFF80000000
0003FFFFFFFFFFFFFFFFFFFFFE00000000
0003FFFFFFFFFFFFFFFFFFFFF000000000
0003FFFFFFFFFFFFFFFFFFFF8000000000
0003FFFFFFFFFFFFFFFFFFF80000000000
0003FFFFFFFFFFFFFFFFFC000000000000
ENDCHAR
STARTCHAR colon
ENCODING 58
SWIDTH 262 0
DWIDTH 45 0
BBX 23 79 11 0
BITMAP
00FE00
07FF80
0FFFE0
1FFFF0
3FFFF8
7FFFF8
7FFFFC
FFFFFC
FFFFFE
FFFFFE
FFFFFE
FFFFFE
FFFFFE
FFFFFE
FFFFFE
FFFFFC
7FFFFC
7FFFF8
3FFFF8
1FFFF0
0FFFE0
07FF80
00FE00
000000
000000
000000
000000
000000
000000
000000
000000
000000
000000
000000
000000
000000
000000
000000
000000
000000
000000
000000
000000
000000
000000
000000
000000
000000
000000
000000
000000
000000
000000
000000
000000
000000
00FE00
07FF80
0FFFE0
1FFFF0
3FFFF8
7FFFF8
7FFFFC
FFFFFC
FFFFFE
FFFFFE
FFFFFE
FFFFFE
FFFFFE
FFFFFE
FFFFFE
FFFFFC
7FFFFC
7FFFF8
3FFFF8
1FFFF0
0FFFE0
07FF80
00FE00
ENDCHAR
STARTCHAR semicolon
ENCODING 59
SWIDTH 262 0
DWIDTH 45 0
BBX 23 98 11 -20
BITMAP
00FE00
07FFC0
0FFFE0
1FFFF0
3FFFF8
7FFFFC
7FFFFC
7FFFFC
FFFFFE
FFFFFE
FFFFFE
FFFFFE
FFFFFE
FFFFFE
FFFFFE
7FFFFC
7FFFFC
7FFFF8
3FFFF8
1FFFF0
0FFFE0
07FFC0
00FE00
000000
000000
000000
000000
000000
000000
000000
000000
000000
000000
000000
000000
000000
000000
000000
000000
000000
000000
000000
000000
000000
000000
000000
000000
000000
000000
000000
000000
000000
000000
000000
7FFFFE
7FFFFC
7FFFFC
7FFFFC
7FFFFC
7FFFF8
7FFFF8
7FFFF8
7FFFF8
7FFFF8
7FFFF0
7FFFF0
7FFFF0
7FFFF0
7FFFF0
7FFFF0
7FFFE0
7FFFE0
7FFFE0
7FFFE0
7FFFE0
7FFFC0
7FFFC0
7FFFC0
7FFFC0
7FFFC0
7FFF80
7FFF80
7FFF80
7FFF80
7FFF80
7FFF00
7FFF00
7FFF00
7FFF00
7FFF00
7FFE00
7FFE00
7FFE00
7FFE00
7FFE00
7FFC00
7FFC00
7FFC00
ENDCHAR
STARTCHAR less
ENCODING 60
SWIDTH 690 0
DWIDTH 118 0
BBX 96 92 11 17
BITMAP
000000000000000000000001
000000000000000000000007
00000000000000000000003F
0000000000000000000000FF
0000000000000000000007FF
000000000000000000001FFF
000000000000000000007FFF
00000000000000000003FFFF
0000000000000000000FFFFF
0000000000000000007FFFFF
000000000000000001FFFFFF
000000000000000007FFFFFF
00000000000000003FFFFFFF
0000000000000000FFFFFFFF
0000000000000007FFFFFFFF
000000000000001FFFFFFFFF
000000000000007FFFFFFFFC
00000000000003FFFFFFFFE0
0000000000000FFFFFFFFF80
0000000000003FFFFFFFFC00
000000000001FFFFFFFFE000
000000000007FFFFFFFF8000
00000000003FFFFFFFFC0000
0000000000FFFFFFFFF00000
0000000003FFFFFFFF800000
000000001FFFFFFFFE000000
000000007FFFFFFFF0000000
00000003FFFFFFFF80000000
0000000FFFFFFFFE00000000
0000003FFFFFFFF000000000
000001FFFFFFFFC000000000
000007FFFFFFFE0000000000
00003FFFFFFFF80000000000
0000FFFFFFFFC00000000000
0003FFFFFFFE000000000000
001FFFFFFFF8000000000000
007FFFFFFFC0000000000000
03FFFFFFFF00000000000000
0FFFFFFFF800000000000000
1FFFFFFFE000000000000000
3FFFFFFF0000000000000000
7FFFFFFC0000000000000000
7FFFFFE00000000000000000
FFFFFF000000000000000000
FFFFFC000000000000000000
FFFFE0000000000000000000
FFFFF0000000000000000000
FFFFFC000000000000000000
FFFFFF800000000000000000
FFFFFFE00000000000000000
7FFFFFFC0000000000000000
3FFFFFFF8000000000000000
1FFFFFFFE000000000000000
07FFFFFFFC00000000000000
01FFFFFFFF00000000000000
007FFFFFFFE0000000000000
000FFFFFFFF8000000000000
0003FFFFFFFF000000000000
0000FFFFFFFFC00000000000
00001FFFFFFFF80000000000
000007FFFFFFFE0000000000
000000FFFFFFFFC000000000
0000003FFFFFFFF000000000
0000000FFFFFFFFE00000000
00000001FFFFFFFFC0000000
000000007FFFFFFFF0000000
000000000FFFFFFFFE000000
0000000003FFFFFFFF800000
0000000000FFFFFFFFF00000
00000000001FFFFFFFFC0000
000000000007FFFFFFFF8000
000000000001FFFFFFFFE000
0000000000003FFFFFFFFC00
0000000000000FFFFFFFFF00
00000000000001FFFFFFFFE0
000000000000007FFFFFFFF8
000000000000001FFFFFFFFF
0000000000000003FFFFFFFF
0000000000000000FFFFFFFF
00000000000000001FFFFFFF
000000000000000007FFFFFF
000000000000000001FFFFFF
0000000000000000003FFFFF
0000000000000000000FFFFF
00000000000000000003FFFF
000000000000000000007FFF
000000000000000000001FFF
0000000000000000000003FF
0000000000000000000000FF
00000000000000000000003F
000000000000000000000007
000000000000000000000001
ENDCHAR
STARTCHAR equal
ENCODING 61
SWIDTH 690 0
DWIDTH 118 0
BBX 96 60 11 33
BITMAP
FFFFFFFFFFFFFFFFFFFFFFFF
FFFFFFFFFFFFFFFFFFFFFFFF
FFFFFFFFFFFFFFFFFFFFFFFF
FFFFFFFFFFFFFFFFFFFFFFFF
FFFFFFFFFFFFFFFFFFFFFFFF
FFFFFFFFFFFFFFFFFFFFFFFF
FFFFFFFFFFFFFFFFFFFFFFFF
FFFFFFFFFFFFFFFFFFFFFFFF
FFFFFFFFFFFFFFFFFFFFFFFF
FFFFFFFFFFFFFFFFFFFFFFFF
FFFFFFFFFFFFFFFFFFFFFFFF
FFFFFFFFFFFFFFFFFFFFFFFF
FFFFFFFFFFFFFFFFFFFFFFFF
FFFFFFFFFFFFFFFFFFFFFFFF
000000000000000000000000
000000000000000000000000
000000000000000000000000
000000000000000000000000
000000000000000000000000
000000000000000000000000
000000000000000000000000
000000000000000000000000
000000000000000000000000
000000000000000000000000
000000000000000000000000
000000000000000000000000
000000000000000000000000
000000000000000000000000
000000000000000000000000
000000000000000000000000
000000000000000000000000
000000000000000000000000
000000000000000000000000
000000000000000000000000
000000000000000000000000
000000000000000000000000
000000000000000000000000
000000000000000000000000
000000000000000000000000
000000000000000000000000
000000000000000000000000
000000000000000000000000
000000000000000000000000
000000000000000000000000
000000000000000000000000
000000000000000000000000
FFFFFFFFFFFFFFFFFFFFFFFF
FFFFFFFFFFFFFFFFFFFFFFFF
FFFFFFFFFFFFFFFFFFFFFFFF
FFFFFFFFFFFFFFFFFFFFFFFF
FFFFFFFFFFFFFFFFFFFFFFFF
FFFFFFFFFFFFFFFFFFFFFFFF
FFFFFFFFFFFFFFFFFFFFFFFF
FFFFFFFFFFFFFFFFFFFFFFFF
FFFFFFFFFFFFFFFFFFFFFFFF
FFFFFFFFFFFFFFFFFFFFFFFF
FFFFFFFFFFFFFFFFFFFFFFFF
FFFFFFFFFFFFFFFFFFFFFFFF
FFFFFFFFFFFFFFFFFFFFFFFF
FFFFFFFFFFFFFFFFFFFFFFFF
ENDCHAR
STARTCHAR greater
ENCODING 62
SWIDTH 690 0
DWIDTH 118 0
BBX 96 92 11 17
BITMAP
800000000000000000000000
E00000000000000000000000
FC0000000000000000000000
FF0000000000000000000000
FFE000000000000000000000
FFF800000000000000000000
FFFE00000000000000000000
FFFFC0000000000000000000
FFFFF0000000000000000000
FFFFFE000000000000000000
FFFFFF800000000000000000
FFFFFFE00000000000000000
FFFFFFFC0000000000000000
FFFFFFFF0000000000000000
FFFFFFFFE000000000000000
FFFFFFFFF800000000000000
3FFFFFFFFE00000000000000
07FFFFFFFFC0000000000000
01FFFFFFFFF0000000000000
003FFFFFFFFC000000000000
0007FFFFFFFF800000000000
0001FFFFFFFFE00000000000
00003FFFFFFFFC0000000000
00000FFFFFFFFF0000000000
000001FFFFFFFFC000000000
0000007FFFFFFFF800000000
0000000FFFFFFFFE00000000
00000003FFFFFFFFC0000000
000000007FFFFFFFF0000000
000000000FFFFFFFFC000000
0000000003FFFFFFFF800000
00000000007FFFFFFFE00000
00000000001FFFFFFFFC0000
000000000003FFFFFFFF0000
0000000000007FFFFFFFC000
0000000000001FFFFFFFF800
00000000000003FFFFFFFE00
00000000000000FFFFFFFFC0
000000000000001FFFFFFFF0
0000000000000007FFFFFFF8
0000000000000000FFFFFFFC
00000000000000003FFFFFFE
000000000000000007FFFFFE
000000000000000000FFFFFF
0000000000000000003FFFFF
00000000000000000007FFFF
0000000000000000000FFFFF
0000000000000000003FFFFF
000000000000000001FFFFFF
000000000000000007FFFFFE
00000000000000003FFFFFFE
0000000000000001FFFFFFFC
0000000000000007FFFFFFF8
000000000000003FFFFFFFE0
00000000000000FFFFFFFF80
00000000000007FFFFFFFE00
0000000000001FFFFFFFF000
000000000000FFFFFFFFC000
000000000003FFFFFFFE0000
00000000001FFFFFFFF80000
00000000007FFFFFFFE00000
0000000003FFFFFFFF000000
000000000FFFFFFFFC000000
000000007FFFFFFFF0000000
00000003FFFFFFFF80000000
0000000FFFFFFFFE00000000
0000007FFFFFFFF000000000
000001FFFFFFFFC000000000
00000FFFFFFFFF0000000000
00003FFFFFFFF80000000000
0001FFFFFFFFE00000000000
0007FFFFFFFF000000000000
003FFFFFFFFC000000000000
00FFFFFFFFF0000000000000
07FFFFFFFF80000000000000
1FFFFFFFFE00000000000000
FFFFFFFFF800000000000000
FFFFFFFFC000000000000000
FFFFFFFF0000000000000000
FFFFFFF80000000000000000
FFFFFFE00000000000000000
FFFFFF800000000000000000
FFFFFC000000000000000000
FFFFF0000000000000000000
FFFFC0000000000000000000
FFFE00000000000000000000
FFF800000000000000000000
FFC000000000000000000000
FF0000000000000000000000
FC0000000000000000000000
E00000000000000000000000
800000000000000000000000
ENDCHAR
STARTCHAR question
ENCODING 63
SWIDTH 776 0
DWIDTH 133 0
BBX 120 124 8 0
BITMAP
FFFFFFFFFFFFFFFFFFFFFF80000000
FFFFFFFFFFFFFFFFFFFFFFFC000000
FFFFFFFFFFFFFFFFFFFFFFFFC00000
FFFFFFFFFFFFFFFFFFFFFFFFF00000
FFFFFFFFFFFFFFFFFFFFFFFFFC0000
FFFFFFFFFFFFFFFFFFFFFFFFFF0000
FFFFFFFFFFFFFFFFFFFFFFFFFFC000
FFFFFFFFFFFFFFFFFFFFFFFFFFE000
FFFFFFFFFFFFFFFFFFFFFFFFFFF000
FFFFFFFFFFFFFFFFFFFFFFFFFFFC00
FFFFFFFFFFFFFFFFFFFFFFFFFFFE00
FFFFFFFFFFFFFFFFFFFFFFFFFFFF00
FFFFFFFFFFFFFFFFFFFFFFFFFFFF00
FFFFFFFFFFFFFFFFFFFFFFFFFFFF80
FFFFFFFFFFFFFFFFFFFFFFFFFFFFC0
FFFFFFFFFFFFFFFFFFFFFFFFFFFFE0
FFFFFFFFFFFFFFFFFFFFFFFFFFFFE0
FFFFFFFFFFFFFFFFFFFFFFFFFFFFF0
FFFFFFFFFFFFFFFFFFFFFFFFFFFFF0
FFFFFFFFFFFFFFFFFFFFFFFFFFFFF8
FFFFFFFFFFFFFFFFFFFFFFFFFFFFF8
FFFFFFFFFFFFFFFFFFFFFFFFFFFFF8
0000000000000000000000FFFFFFFC
00000000000000000000003FFFFFFC
00000000000000000000000FFFFFFC
000000000000000000000007FFFFFE
000000000000000000000003FFFFFE
000000000000000000000001FFFFFE
000000000000000000000001FFFFFE
000000000000000000000000FFFFFE
000000000000000000000000FFFFFE
0000000000000000000000007FFFFE
0000000000000000000000007FFFFF
0000000000000000000000007FFFFF
0000000000000000000000007FFFFF
0000000000000000000000007FFFFF
0000000000000000000000007FFFFF
0000000000000000000000007FFFFE
0000000000000000000000007FFFFE
0000000000000000000000007FFFFE
0000000000000000000000007FFFFE
0000000000000000000000007FFFFE
000000000000000000000000FFFFFE
000000000000000000000000FFFFFC
000000000000000000000001FFFFFC
000000000000000000000001FFFFFC
000000000000000000000003FFFFFC
000000000000000000000007FFFFF8
00000000000000000000001FFFFFF8
00000000000000000000007FFFFFF0
0000000000000000000003FFFFFFF0
00000000FFFFFFFFFFFFFFFFFFFFE0
0000000FFFFFFFFFFFFFFFFFFFFFE0
0000007FFFFFFFFFFFFFFFFFFFFFC0
000001FFFFFFFFFFFFFFFFFFFFFFC0
000007FFFFFFFFFFFFFFFFFFFFFF80
00000FFFFFFFFFFFFFFFFFFFFFFF00
00003FFFFFFFFFFFFFFFFFFFFFFE00
00007FFFFFFFFFFFFFFFFFFFFFFC00
0000FFFFFFFFFFFFFFFFFFFFFFF800
0000FFFFFFFFFFFFFFFFFFFFFFF000
0001FFFFFFFFFFFFFFFFFFFFFFE000
0003FFFFFFFFFFFFFFFFFFFFFF8000
0003FFFFFFFFFFFFFFFFFFFFFF0000
0007FFFFFFFFFFFFFFFFFFFFFC0000
0007FFFFFFFFFFFFFFFFFFFFF00000
0007FFFFFFFFFFFFFFFFFFFF800000
000FFFFFFFFFFFFFFFFFFFFC000000
000FFFFFFFFFFFFFFFFFFFC0000000
000FFFFFF000000000000000000000
000FFFFFC000000000000000000000
001FFFFF8000000000000000000000
001FFFFF0000000000000000000000
001FFFFF0000000000000000000000
001FFFFF0000000000000000000000
001FFFFF0000000000000000000000
001FFFFF0000000000000000000000
001FFFFF0000000000000000000000
001FFFFF0000000000000000000000
001FFFFF0000000000000000000000
001FFFFF0000000000000000000000
001FFFFF0000000000000000000000
001FFFFF0000000000000000000000
000000000000000000000000000000
000000000000000000000000000000
000000000000000000000000000000
000000000000000000000000000000
000000000000000000000000000000
000000000000000000000000000000
000000000000000000000000000000
000000000000000000000000000000
000000000000000000000000000000
000000000000000000000000000000
000000000000000000000000000000
000000000000000000000000000000
000000000000000000000000000000
000000000000000000000000000000
000000000000000000000000000000
000000000000000000000000000000
000000000000000000000000000000
000000000000000000000000000000
00003FC00000000000000000000000
0000FFF00000000000000000000000
0003FFF80000000000000000000000
0007FFFC0000000000000000000000
000FFFFE0000000000000000000000
000FFFFF0000000000000000000000
001FFFFF0000000000000000000000
001FFFFF8000000000000000000000
003FFFFF8000000000000000000000
003FFFFF8000000000000000000000
003FFFFF8000000000000000000000
003FFFFF8000000000000000000000
003FFFFF8000000000000000000000
003FFFFF8000000000000000000000
003FFFFF8000000000000000000000
001FFFFF8000000000000000000000
001FFFFF0000000000000000000000
000FFFFF0000000000000000000000
000FFFFE0000000000000000000000
0007FFFC0000000000000000000000
0003FFF80000000000000000000000
0000FFF00000000000000000000000
00003F800000000000000000000000
ENDCHAR
STARTCHAR at
ENCODING 64
SWIDTH 833 0
DWIDTH 142 0
BBX 125 124 7 0
BITMAP
00000000000003FFFFFFFFFFFFFFFFF8
000000000000FFFFFFFFFFFFFFFFFFF8
000000000007FFFFFFFFFFFFFFFFFFF8
00000000007FFFFFFFFFFFFFFFFFFFF8
0000000001FFFFFFFFFFFFFFFFFFFFF8
000000000FFFFFFFFFFFFFFFFFFFFFF8
000000003FFFFFFFFFFFFFFFFFFFFFF8
00000000FFFFFFFFFFFFFFFFFFFFFFF8
00000003FFFFFFFFFFFFFFFFFFFFFFF8
00000007FFFFFFFFFFFFFFFFFFFFFFF8
0000001FFFFFFFFFFFFFFFFFFFFFFFF8
0000003FFFFFFFFFFFFFFFFFFFFFFFF8
0000007FFFFFFFFFFFFFFFFFFFFFFFF8
000001FFFFFFFFFFFFFFFFFFFFFFFFF8
000003FFFFFFFFFFFFFFFFFFFFFFFFF8
000007FFFFFFFFFFFFFFFFFFFFFFFFF8
00000FFFFFFFFE0000000000000FFFF8
00001FFFFFFFC00000000000000FFFF8
00003FFFFFFC000000000000000FFFF8
00007FFFFFE0000000000000000FFFF8
0000FFFFFF80000000000000000FFFF8
0001FFFFFE00000000000000000FFFF8
0003FFFFF800000000000000000FFFF8
0007FFFFE000000000000000000FFFF8
0007FFFFC000000000000000000FFFF8
000FFFFF8000000000000000000FFFF8
001FFFFE0000000000000000000FFFF8
001FFFFC0000000000000000000FFFF8
003FFFF80000000000000000000FFFF8
007FFFF00000000000000000000FFFF8
007FFFE00000000000000000000FFFF8
00FFFFC00000000000000000000FFFF8
00FFFFC00000000000000000000FFFF8
01FFFF800000000000000000000FFFF8
01FFFF00000001FFFFFFFFFC000FFFF8
03FFFE0000001FFFFFFFFFFC000FFFF8
03FFFE0000007FFFFFFFFFFC000FFFF8
07FFFC000000FFFFFFFFFFFC000FFFF8
07FFFC000003FFFFFFFFFFFC000FFFF8
0FFFF8000007FFFFFFFFFFFC000FFFF8
0FFFF800000FFFFFFFFFFFFC000FFFF8
0FFFF000001FFFFFFFFFFFFC000FFFF8
1FFFF000003FFFFFFFFFFFFC000FFFF8
1FFFF000007FFFFFFFFFFFFC000FFFF8
1FFFE000007FFFFFFFFFFFFC000FFFF8
3FFFE00000FFFFFFFFFFFFFC000FFFF8
3FFFC00001FFFFF00001FFFC000FFFF8
3FFFC00001FFFF800001FFFC000FFFF8
3FFFC00003FFFF000001FFFC000FFFF8
3FFFC00003FFFC000001FFFC000FFFF8
7FFFC00003FFFC000001FFFC000FFFF8
7FFF800007FFF8000001FFFC000FFFF8
7FFF800007FFF0000001FFFC000FFFF8
7FFF800007FFF0000001FFFC000FFFF8
7FFF80000FFFE0000001FFFC000FFFF8
7FFF80000FFFE0000001FFFC000FFFF8
FFFF80000FFFE0000001FFFC000FFFF8
FFFF80000FFFC0000001FFFC000FFFF8
FFFF80000FFFC0000001FFFC000FFFF8
FFFF00000FFFC0000001FFFC000FFFF8
FFFF00000FFFC0000001FFFC000FFFF8
FFFF00000FFFC0000001FFFC000FFFF8
FFFF00000FFFC0000001FFFC000FFFF8
FFFF00000FFFC0000001FFFC000FFFF8
FFFF00000FFFC0000001FFFC000FFFF8
FFFF80000FFFC0000001FFFC000FFFF8
FFFF80000FFFE0000001FFFC000FFFF8
FFFF80000FFFE0000001FFFC000FFFF8
FFFF80000FFFE0000001FFFC000FFFF8
FFFF80000FFFF0000001FFFC000FFFF8
7FFF80000FFFF0000001FFFC000FFFF8
7FFF800007FFF8000001FFFC000FFFF8
7FFF800007FFFC000001FFFC000FFFF8
7FFFC00007FFFE000001FFFC000FFFF8
7FFFC00003FFFF000001FFFC000FFFF8
7FFFC00003FFFFC00001FFFC000FFFF8
7FFFC00001FFFFF00001FFFC000FFFF8
3FFFE00001FFFFFFFFFFFFFFFFFFFFF8
3FFFE00000FFFFFFFFFFFFFFFFFFFFF8
3FFFE00000FFFFFFFFFFFFFFFFFFFFF8
3FFFF000007FFFFFFFFFFFFFFFFFFFF8
1FFFF000007FFFFFFFFFFFFFFFFFFFF8
1FFFF000003FFFFFFFFFFFFFFFFFFFF8
1FFFF800001FFFFFFFFFFFFFFFFFFFF8
1FFFF800000FFFFFFFFFFFFFFFFFFFF8
0FFFFC000007FFFFFFFFFFFFFFFFFFF8
0FFFFC000003FFFFFFFFFFFFFFFFFFF8
07FFFE000000FFFFFFFFFFFFFFFFFFF8
07FFFF0000007FFFFFFFFFFFFFFFFFF8
07FFFF0000000FFFFFFFFFFFFFFFFFF8
03FFFF80000001FFFFFFFFFFFFFFFFF8
03FFFFC0000000000000000000000000
01FFFFC0000000000000000000000000
01FFFFE0000000000000000000000000
00FFFFF0000000000000000000000000
007FFFF8000000000000000000000000
007FFFFC000000000000000000000000
003FFFFE000000000000000000000000
003FFFFF800000000000000000000000
001FFFFFC00000000000000000000000
000FFFFFE00000000000000000000000
0007FFFFF80000000000000000000000
0007FFFFFE0000000000000000000000
0003FFFFFF8000000000000000000000
0001FFFFFFE000000000000000000000
0000FFFFFFFC00000000000000000000
00007FFFFFFF80000000000000000000
00003FFFFFFFFE000000000000000000
00001FFFFFFFFFFFFFFFFFFFFFFFFFF8
00000FFFFFFFFFFFFFFFFFFFFFFFFFF8
000007FFFFFFFFFFFFFFFFFFFFFFFFF8
000001FFFFFFFFFFFFFFFFFFFFFFFFF8
000000FFFFFFFFFFFFFFFFFFFFFFFFF8
0000003FFFFFFFFFFFFFFFFFFFFFFFF8
0000001FFFFFFFFFFFFFFFFFFFFFFFF8
00000007FFFFFFFFFFFFFFFFFFFFFFF8
00000001FFFFFFFFFFFFFFFFFFFFFFF8
000000007FFFFFFFFFFFFFFFFFFFFFF8
000000001FFFFFFFFFFFFFFFFFFFFFF8
0000000007FFFFFFFFFFFFFFFFFFFFF8
0000000000FFFFFFFFFFFFFFFFFFFFF8
00000000001FFFFFFFFFFFFFFFFFFFF8
000000000001FFFFFFFFFFFFFFFFFFF8
00000000000007FFFFFFFFFFFFFFFFF8
ENDCHAR
STARTCHAR A
ENCODING 65
SWIDTH 989 0
DWIDTH 169 0
BBX 165 126 2 0
BITMAP
000000000000000000002000000000000000000000
00000000000000000003FE00000000000000000000
0000000000000000000FFF80000000000000000000
0000000000000000001FFFC0000000000000000000
0000000000000000003FFFE0000000000000000000
0000000000000000007FFFF0000000000000000000
000000000000000000FFFFF0000000000000000000
000000000000000000FFFFF8000000000000000000
000000000000000001FFFFFC000000000000000000
000000000000000001FFFFFC000000000000000000
000000000000000003FFFFFE000000000000000000
000000000000000007FFFFFE000000000000000000
000000000000000007FFFFFF000000000000000000
00000000000000000FFFFFFF800000000000000000
00000000000000000FFFFFFF800000000000000000
00000000000000001FFFFFFFC00000000000000000
00000000000000003FFFFFFFC00000000000000000
00000000000000003FFFFFFFE00000000000000000
00000000000000007FFFFFFFF00000000000000000
00000000000000007FFFFFFFF00000000000000000
0000000000000000FFFFFFFFF80000000000000000
0000000000000001FFFFFFFFF80000000000000000
0000000000000001FFFFFFFFFC0000000000000000
0000000000000003FFFFFFFFFE0000000000000000
0000000000000003FFFFFFFFFE0000000000000000
0000000000000007FFFFFFFFFF0000000000000000
000000000000000FFFFFFFFFFF0000000000000000
000000000000000FFFFFFFFFFF8000000000000000
000000000000001FFFFFFFFFFFC000000000000000
000000000000001FFFFFFFFFFFC000000000000000
000000000000003FFFFFFFFFFFE000000000000000
000000000000007FFFFFFFFFFFE000000000000000
000000000000007FFFFFBFFFFFF000000000000000
00000000000000FFFFFF1FFFFFF800000000000000
00000000000000FFFFFF0FFFFFF800000000000000
00000000000001FFFFFE0FFFFFFC00000000000000
00000000000003FFFFFE07FFFFFC00000000000000
00000000000003FFFFFC07FFFFFE00000000000000
00000000000007FFFFF803FFFFFF00000000000000
00000000000007FFFFF801FFFFFF00000000000000
0000000000000FFFFFF001FFFFFF80000000000000
0000000000001FFFFFF000FFFFFF80000000000000
0000000000001FFFFFE000FFFFFFC0000000000000
0000000000003FFFFFC0007FFFFFE0000000000000
0000000000003FFFFFC0003FFFFFE0000000000000
0000000000007FFFFF80003FFFFFF0000000000000
000000000000FFFFFF80001FFFFFF0000000000000
000000000000FFFFFF00001FFFFFF8000000000000
000000000001FFFFFE00000FFFFFFC000000000000
000000000001FFFFFE000007FFFFFC000000000000
000000000003FFFFFC000007FFFFFE000000000000
000000000007FFFFFC000003FFFFFF000000000000
000000000007FFFFF8000003FFFFFF000000000000
00000000000FFFFFF0000001FFFFFF800000000000
00000000001FFFFFF0000000FFFFFF800000000000
00000000001FFFFFE0000000FFFFFFC00000000000
00000000003FFFFFE00000007FFFFFE00000000000
00000000003FFFFFC00000003FFFFFE00000000000
00000000007FFFFF800000003FFFFFF00000000000
0000000000FFFFFF800000001FFFFFF00000000000
0000000000FFFFFF000000001FFFFFF80000000000
0000000001FFFFFF000000000FFFFFFC0000000000
0000000001FFFFFE0000000007FFFFFC0000000000
0000000003FFFFFC0000000007FFFFFE0000000000
0000000007FFFFFC0000000003FFFFFE0000000000
0000000007FFFFF80000000003FFFFFF0000000000
000000000FFFFFF80000000001FFFFFF8000000000
000000000FFFFFF00000000000FFFFFF8000000000
000000001FFFFFE00000000000FFFFFFC000000000
000000003FFFFFE000000000007FFFFFC000000000
000000003FFFFFC000000000007FFFFFE000000000
000000007FFFFFC000000000003FFFFFF000000000
000000007FFFFF8000000000001FFFFFF000000000
00000000FFFFFF0000000000001FFFFFF800000000
00000001FFFFFF0000000000000FFFFFF800000000
00000001FFFFFE0000000000000FFFFFFC00000000
00000003FFFFFE00000000000007FFFFFE00000000
00000003FFFFFC0001FFFFFFFFFFFFFFFE00000000
00000007FFFFFC0003FFFFFFFFFFFFFFFF00000000
0000000FFFFFF80003FFFFFFFFFFFFFFFF00000000
0000000FFFFFF00007FFFFFFFFFFFFFFFF80000000
0000001FFFFFF00007FFFFFFFFFFFFFFFFC0000000
0000001FFFFFE0000FFFFFFFFFFFFFFFFFC0000000
0000003FFFFFE0001FFFFFFFFFFFFFFFFFE0000000
0000007FFFFFC0001FFFFFFFFFFFFFFFFFE0000000
0000007FFFFF80003FFFFFFFFFFFFFFFFFF0000000
000000FFFFFF80003FFFFFFFFFFFFFFFFFF8000000
000000FFFFFF00007FFFFFFFFFFFFFFFFFF8000000
000001FFFFFF00007FFFFFFFFFFFFFFFFFFC000000
000003FFFFFE0000FFFFFFFFFFFFFFFFFFFC000000
000003FFFFFC0001FFFFFFFFFFFFFFFFFFFE000000
000007FFFFFC0001FFFFFFFFFFFFFFFFFFFF000000
000007FFFFF80003FFFFFFFFFFFFFFFFFFFF000000
00000FFFFFF80003FFFFFFFFFFFFFFFFFFFF800000
00001FFFFFF00007FFFFFFFFFFFFFFFFFFFFC00000
00001FFFFFE0000000000000000000FFFFFFC00000
00003FFFFFE00000000000000000007FFFFFE00000
00003FFFFFC00000000000000000007FFFFFE00000
00007FFFFFC00000000000000000003FFFFFF00000
0000FFFFFF800000000000000000003FFFFFF80000
0000FFFFFF000000000000000000001FFFFFF80000
0001FFFFFF000000000000000000000FFFFFFC0000
0001FFFFFE000000000000000000000FFFFFFC0000
0003FFFFFE0000000000000000000007FFFFFE0000
0007FFFFFC0000000000000000000007FFFFFF0000
0007FFFFF80000000000000000000003FFFFFF0000
000FFFFFF80000000000000000000001FFFFFF8000
000FFFFFF00000000000000000000001FFFFFF8000
001FFFFFF00000000000000000000000FFFFFFC000
003FFFFFE00000000000000000000000FFFFFFE000
003FFFFFC000000000000000000000007FFFFFE000
007FFFFFC000000000000000000000003FFFFFF000
007FFFFF8000000000000000000000003FFFFFF000
00FFFFFF8000000000000000000000001FFFFFF800
01FFFFFF0000000000000000000000001FFFFFFC00
01FFFFFE0000000000000000000000000FFFFFFC00
03FFFFFE00000000000000000000000007FFFFFE00
07FFFFFC00000000000000000000000007FFFFFE00
07FFFFFC00000000000000000000000003FFFFFF00
0FFFFFF800000000000000000000000003FFFFFF80
0FFFFFF000000000000000000000000001FFFFFF80
1FFFFFF000000000000000000000000000FFFFFFC0
3FFFFFE000000000000000000000000000FFFFFFC0
3FFFFFE0000000000000000000000000007FFFFFE0
7FFFFFC0000000000000000000000000007FFFFFF0
FFFFFF80000000000000000000000000003FFFFFF8
ENDCHAR
STARTCHAR B
ENCODING 66
SWIDTH 891 0
DWIDTH 152 0
BBX 133 124 11 0
BITMAP
FFFFFFFFFFFFFFFFFFFFFFFFE000000000
FFFFFFFFFFFFFFFFFFFFFFFFFF80000000
FFFFFFFFFFFFFFFFFFFFFFFFFFF8000000
FFFFFFFFFFFFFFFFFFFFFFFFFFFF000000
FFFFFFFFFFFFFFFFFFFFFFFFFFFFC00000
FFFFFFFFFFFFFFFFFFFFFFFFFFFFF00000
FFFFFFFFFFFFFFFFFFFFFFFFFFFFF80000
FFFFFFFFFFFFFFFFFFFFFFFFFFFFFE0000
FFFFFFFFFFFFFFFFFFFFFFFFFFFFFF0000
FFFFFFFFFFFFFFFFFFFFFFFFFFFFFF8000
FFFFFFFFFFFFFFFFFFFFFFFFFFFFFFE000
FFFFFFFFFFFFFFFFFFFFFFFFFFFFFFF000
FFFFFFFFFFFFFFFFFFFFFFFFFFFFFFF000
FFFFFFFFFFFFFFFFFFFFFFFFFFFFFFF800
FFFFFFFFFFFFFFFFFFFFFFFFFFFFFFFC00
FFFFFFFFFFFFFFFFFFFFFFFFFFFFFFFE00
FFFFFFFFFFFFFFFFFFFFFFFFFFFFFFFE00
FFFFFFFFFFFFFFFFFFFFFFFFFFFFFFFF00
FFFFFFFFFFFFFFFFFFFFFFFFFFFFFFFF00
FFFFFFFFFFFFFFFFFFFFFFFFFFFFFFFF80
FFFFFFFFFFFFFFFFFFFFFFFFFFFFFFFF80
FFFFFFFFFFFFFFFFFFFFFFFFFFFFFFFF80
FFFFF8000000000000000001FFFFFFFFC0
FFFFF80000000000000000001FFFFFFFC0
FFFFF800000000000000000003FFFFFFC0
FFFFF800000000000000000000FFFFFFC0
FFFFF8000000000000000000007FFFFFE0
FFFFF8000000000000000000003FFFFFE0
FFFFF8000000000000000000001FFFFFE0
FFFFF8000000000000000000001FFFFFE0
FFFFF8000000000000000000000FFFFFE0
FFFFF8000000000000000000000FFFFFE0
FFFFF8000000000000000000000FFFFFE0
FFFFF80000000000000000000007FFFFE0
FFFFF80000000000000000000007FFFFE0
FFFFF80000000000000000000007FFFFE0
FFFFF80000000000000000000007FFFFE0
FFFFF80000000000000000000007FFFFE0
FFFFF80000000000000000000007FFFFC0
FFFFF80000000000000000000007FFFFC0
FFFFF80000000000000000000007FFFFC0
FFFFF8000000000000000000000FFFFFC0
FFFFF8000000000000000000000FFFFFC0
FFFFF8000000000000000000000FFFFF80
FFFFF8000000000000000000000FFFFF80
FFFFF8000000000000000000001FFFFF00
FFFFF8000000000000000000003FFFFF00
FFFFF8000000000000000000003FFFFE00
FFFFF8000000000000000000007FFFFE00
FFFFF800000000000000000001FFFFFC00
FFFFF800000000000000000007FFFFFC00
FFFFF80000000000000000007FFFFFF800
FFFFF80007FFFFFFFFFFFFFFFFFFFFF000
FFFFF80007FFFFFFFFFFFFFFFFFFFFE000
FFFFF80007FFFFFFFFFFFFFFFFFFFF8000
FFFFF80007FFFFFFFFFFFFFFFFFFFF0000
FFFFF80007FFFFFFFFFFFFFFFFFFFC0000
FFFFF80007FFFFFFFFFFFFFFFFFFF80000
FFFFF80007FFFFFFFFFFFFFFFFFFC00000
FFFFF80007FFFFFFFFFFFFFFFFFFF00000
FFFFF80007FFFFFFFFFFFFFFFFFFFC0000
FFFFF80007FFFFFFFFFFFFFFFFFFFF0000
FFFFF80007FFFFFFFFFFFFFFFFFFFFC000
FFFFF80007FFFFFFFFFFFFFFFFFFFFE000
FFFFF80007FFFFFFFFFFFFFFFFFFFFF000
FFFFF80007FFFFFFFFFFFFFFFFFFFFF800
FFFFF80007FFFFFFFFFFFFFFFFFFFFFC00
FFFFF80007FFFFFFFFFFFFFFFFFFFFFE00
FFFFF80007FFFFFFFFFFFFFFFFFFFFFF00
FFFFF80007FFFFFFFFFFFFFFFFFFFFFF00
FFFFF80000000000000000003FFFFFFF80
FFFFF800000000000000000003FFFFFFC0
FFFFF800000000000000000000FFFFFFC0
FFFFF8000000000000000000007FFFFFE0
FFFFF8000000000000000000001FFFFFE0
FFFFF8000000000000000000000FFFFFE0
FFFFF8000000000000000000000FFFFFF0
FFFFF80000000000000000000007FFFFF0
FFFFF80000000000000000000003FFFFF0
FFFFF80000000000000000000003FFFFF0
FFFFF80000000000000000000003FFFFF8
FFFFF80000000000000000000001FFFFF8
FFFFF80000000000000000000001FFFFF8
FFFFF80000000000000000000001FFFFF8
FFFFF80000000000000000000001FFFFF8
FFFFF80000000000000000000001FFFFF8
FFFFF80000000000000000000001FFFFF8
FFFFF80000000000000000000001FFFFF8
FFFFF80000000000000000000001FFFFF8
FFFFF80000000000000000000001FFFFF8
FFFFF80000000000000000000003FFFFF8
FFFFF80000000000000000000003FFFFF8
FFFFF80000000000000000000003FFFFF8
FFFFF80000000000000000000007FFFFF8
FFFFF80000000000000000000007FFFFF0
FFFFF8000000000000000000000FFFFFF0
FFFFF8000000000000000000001FFFFFF0
FFFFF8000000000000000000007FFFFFF0
FFFFF800000000000000000000FFFFFFF0
FFFFF800000000000000000003FFFFFFE0
FFFFF80000000000000000001FFFFFFFE0
FFFFF8000000000000000001FFFFFFFFC0
FFFFFFFFFFFFFFFFFFFFFFFFFFFFFFFFC0
FFFFFFFFFFFFFFFFFFFFFFFFFFFFFFFFC0
FFFFFFFFFFFFFFFFFFFFFFFFFFFFFFFF80
FFFFFFFFFFFFFFFFFFFFFFFFFFFFFFFF80
FFFFFFFFFFFFFFFFFFFFFFFFFFFFFFFF00
FFFFFFFFFFFFFFFFFFFFFFFFFFFFFFFE00
FFFFFFFFFFFFFFFFFFFFFFFFFFFFFFFE00
FFFFFFFFFFFFFFFFFFFFFFFFFFFFFFFC00
FFFFFFFFFFFFFFFFFFFFFFFFFFFFFFF800
FFFFFFFFFFFFFFFFFFFFFFFFFFFFFFF000
FFFFFFFFFFFFFFFFFFFFFFFFFFFFFFF000
FFFFFFFFFFFFFFFFFFFFFFFFFFFFFFE000
FFFFFFFFFFFFFFFFFFFFFFFFFFFFFF8000
FFFFFFFFFFFFFFFFFFFFFFFFFFFFFF0000
FFFFFFFFFFFFFFFFFFFFFFFFFFFFFE0000
FFFFFFFFFFFFFFFFFFFFFFFFFFFFFC0000
FFFFFFFFFFFFFFFFFFFFFFFFFFFFF00000
FFFFFFFFFFFFFFFFFFFFFFFFFFFFC00000
FFFFFFFFFFFFFFFFFFFFFFFFFFFF000000
FFFFFFFFFFFFFFFFFFFFFFFFFFF8000000
FFFFFFFFFFFFFFFFFFFFFFFFFFC0000000
FFFFFFFFFFFFFFFFFFFFFFFFF800000000
ENDCHAR
STARTCHAR C
ENCODING 67
SWIDTH 829 0
DWIDTH 142 0
BBX 128 124 7 0
BITMAP
0000000000000FFFFFFFFFFFFFFFFFFF
000000000003FFFFFFFFFFFFFFFFFFFF
00000000003FFFFFFFFFFFFFFFFFFFFF
0000000001FFFFFFFFFFFFFFFFFFFFFF
000000000FFFFFFFFFFFFFFFFFFFFFFF
000000003FFFFFFFFFFFFFFFFFFFFFFF
00000000FFFFFFFFFFFFFFFFFFFFFFFF
00000003FFFFFFFFFFFFFFFFFFFFFFFF
0000000FFFFFFFFFFFFFFFFFFFFFFFFF
0000003FFFFFFFFFFFFFFFFFFFFFFFFF
0000007FFFFFFFFFFFFFFFFFFFFFFFFF
000001FFFFFFFFFFFFFFFFFFFFFFFFFF
000003FFFFFFFFFFFFFFFFFFFFFFFFFF
000007FFFFFFFFFFFFFFFFFFFFFFFFFF
00000FFFFFFFFFFFFFFFFFFFFFFFFFFF
00001FFFFFFFFFFFFFFFFFFFFFFFFFFF
00007FFFFFFFFFFFFFFFFFFFFFFFFFFF
0000FFFFFFFFFFFFFFFFFFFFFFFFFFFF
0000FFFFFFFFFFFFFFFFFFFFFFFFFFFF
0001FFFFFFFFFFFFFFFFFFFFFFFFFFFF
0003FFFFFFFFFFFFFFFFFFFFFFFFFFFF
0007FFFFFFFFFFFFFFFFFFFFFFFFFFFF
000FFFFFFFFFF0000000000000000000
001FFFFFFFFF00000000000000000000
001FFFFFFFF800000000000000000000
003FFFFFFFE000000000000000000000
007FFFFFFF8000000000000000000000
007FFFFFFF0000000000000000000000
00FFFFFFFC0000000000000000000000
00FFFFFFF80000000000000000000000
01FFFFFFE00000000000000000000000
01FFFFFFC00000000000000000000000
03FFFFFF800000000000000000000000
03FFFFFF000000000000000000000000
07FFFFFE000000000000000000000000
07FFFFFE000000000000000000000000
0FFFFFFC000000000000000000000000
0FFFFFF8000000000000000000000000
0FFFFFF0000000000000000000000000
1FFFFFF0000000000000000000000000
1FFFFFE0000000000000000000000000
1FFFFFE0000000000000000000000000
3FFFFFC0000000000000000000000000
3FFFFFC0000000000000000000000000
3FFFFF80000000000000000000000000
3FFFFF80000000000000000000000000
3FFFFF00000000000000000000000000
7FFFFF00000000000000000000000000
7FFFFF00000000000000000000000000
7FFFFE00000000000000000000000000
7FFFFE00000000000000000000000000
7FFFFE00000000000000000000000000
7FFFFE00000000000000000000000000
FFFFFE00000000000000000000000000
FFFFFC00000000000000000000000000
FFFFFC00000000000000000000000000
FFFFFC00000000000000000000000000
FFFFFC00000000000000000000000000
FFFFFC00000000000000000000000000
FFFFFC00000000000000000000000000
FFFFFC00000000000000000000000000
FFFFFC00000000000000000000000000
FFFFFC00000000000000000000000000
FFFFFC00000000000000000000000000
FFFFFC00000000000000000000000000
FFFFFC00000000000000000000000000
FFFFFC00000000000000000000000000
FFFFFC00000000000000000000000000
7FFFFC00000000000000000000000000
7FFFFE00000000000000000000000000
7FFFFE00000000000000000000000000
7FFFFE00000000000000000000000000
7FFFFE00000000000000000000000000
7FFFFE00000000000000000000000000
7FFFFF00000000000000000000000000
3FFFFF00000000000000000000000000
3FFFFF00000000000000000000000000
3FFFFF80000000000000000000000000
3FFFFF80000000000000000000000000
1FFFFF80000000000000000000000000
1FFFFFC0000000000000000000000000
1FFFFFC0000000000000000000000000
0FFFFFE0000000000000000000000000
0FFFFFE0000000000000000000000000
0FFFFFF0000000000000000000000000
07FFFFF8000000000000000000000000
07FFFFF8000000000000000000000000
07FFFFFC000000000000000000000000
03FFFFFE000000000000000000000000
03FFFFFF000000000000000000000000
01FFFFFF800000000000000000000000
01FFFFFFC00000000000000000000000
00FFFFFFE00000000000000000000000
00FFFFFFF00000000000000000000000
007FFFFFF80000000000000000000000
007FFFFFFC0000000000000000000000
003FFFFFFF0000000000000000000000
001FFFFFFF8000000000000000000000
001FFFFFFFE000000000000000000000
000FFFFFFFFC00000000000000000000
0007FFFFFFFF00000000000000000000
0003FFFFFFFFF0000000000000000000
0003FFFFFFFFFFFFFFFFFFFFFFFFFFFF
0001FFFFFFFFFFFFFFFFFFFFFFFFFFFF
0000FFFFFFFFFFFFFFFFFFFFFFFFFFFF
00007FFFFFFFFFFFFFFFFFFFFFFFFFFF
00003FFFFFFFFFFFFFFFFFFFFFFFFFFF
00001FFFFFFFFFFFFFFFFFFFFFFFFFFF
00000FFFFFFFFFFFFFFFFFFFFFFFFFFF
000007FFFFFFFFFFFFFFFFFFFFFFFFFF
000003FFFFFFFFFFFFFFFFFFFFFFFFFF
000000FFFFFFFFFFFFFFFFFFFFFFFFFF
0000007FFFFFFFFFFFFFFFFFFFFFFFFF
0000003FFFFFFFFFFFFFFFFFFFFFFFFF
0000000FFFFFFFFFFFFFFFFFFFFFFFFF
00000007FFFFFFFFFFFFFFFFFFFFFFFF
00000001FFFFFFFFFFFFFFFFFFFFFFFF
000000007FFFFFFFFFFFFFFFFFFFFFFF
000000001FFFFFFFFFFFFFFFFFFFFFFF
0000000007FFFFFFFFFFFFFFFFFFFFFF
0000000000FFFFFFFFFFFFFFFFFFFFFF
00000000001FFFFFFFFFFFFFFFFFFFFF
000000000001FFFFFFFFFFFFFFFFFFFF
0000000000000FFFFFFFFFFFFFFFFFFF
ENDCHAR
STARTCHAR D
ENCODING 68
SWIDTH 879 0
DWIDTH 150 0
BBX 132 124 11 0
BITMAP
FFFFFFFFFFFFFFFFFFFF00000000000000
FFFFFFFFFFFFFFFFFFFFFC000000000000
FFFFFFFFFFFFFFFFFFFFFFC00000000000
FFFFFFFFFFFFFFFFFFFFFFFC0000000000
FFFFFFFFFFFFFFFFFFFFFFFF0000000000
FFFFFFFFFFFFFFFFFFFFFFFFE000000000
FFFFFFFFFFFFFFFFFFFFFFFFF800000000
FFFFFFFFFFFFFFFFFFFFFFFFFE00000000
FFFFFFFFFFFFFFFFFFFFFFFFFF00000000
FFFFFFFFFFFFFFFFFFFFFFFFFFC0000000
FFFFFFFFFFFFFFFFFFFFFFFFFFE0000000
FFFFFFFFFFFFFFFFFFFFFFFFFFF8000000
FFFFFFFFFFFFFFFFFFFFFFFFFFFC000000
FFFFFFFFFFFFFFFFFFFFFFFFFFFE000000
FFFFFFFFFFFFFFFFFFFFFFFFFFFF800000
FFFFFFFFFFFFFFFFFFFFFFFFFFFFC00000
FFFFFFFFFFFFFFFFFFFFFFFFFFFFE00000
FFFFFFFFFFFFFFFFFFFFFFFFFFFFF00000
FFFFFFFFFFFFFFFFFFFFFFFFFFFFF80000
FFFFFFFFFFFFFFFFFFFFFFFFFFFFFC0000
FFFFFFFFFFFFFFFFFFFFFFFFFFFFFC0000
FFFFFFFFFFFFFFFFFFFFFFFFFFFFFE0000
FFFFF800000000000000FFFFFFFFFF0000
FFFFF8000000000000000FFFFFFFFF8000
FFFFF80000000000000001FFFFFFFFC000
FFFFF800000000000000007FFFFFFFC000
FFFFF800000000000000001FFFFFFFE000
FFFFF8000000000000000007FFFFFFE000
FFFFF8000000000000000003FFFFFFF000
FFFFF8000000000000000000FFFFFFF800
FFFFF80000000000000000007FFFFFF800
FFFFF80000000000000000003FFFFFFC00
FFFFF80000000000000000001FFFFFFC00
FFFFF80000000000000000000FFFFFFE00
FFFFF800000000000000000007FFFFFE00
FFFFF800000000000000000003FFFFFF00
FFFFF800000000000000000001FFFFFF00
FFFFF800000000000000000001FFFFFF00
FFFFF800000000000000000000FFFFFF80
FFFFF8000000000000000000007FFFFF80
FFFFF8000000000000000000007FFFFF80
FFFFF8000000000000000000003FFFFFC0
FFFFF8000000000000000000003FFFFFC0
FFFFF8000000000000000000001FFFFFC0
FFFFF8000000000000000000001FFFFFC0
FFFFF8000000000000000000000FFFFFE0
FFFFF8000000000000000000000FFFFFE0
FFFFF8000000000000000000000FFFFFE0
FFFFF80000000000000000000007FFFFE0
FFFFF80000000000000000000007FFFFE0
FFFFF80000000000000000000007FFFFF0
FFFFF80000000000000000000007FFFFF0
FFFFF80000000000000000000003FFFFF0
FFFFF80000000000000000000003FFFFF0
FFFFF80000000000000000000003FFFFF0
FFFFF80000000000000000000003FFFFF0
FFFFF80000000000000000000003FFFFF0
FFFFF80000000000000000000003FFFFF0
FFFFF80000000000000000000003FFFFF0
FFFFF80000000000000000000001FFFFF0
FFFFF80000000000000000000001FFFFF0
FFFFF80000000000000000000001FFFFF0
FFFFF80000000000000000000001FFFFF0
FFFFF80000000000000000000001FFFFF0
FFFFF80000000000000000000003FFFFF0
FFFFF80000000000000000000003FFFFF0
FFFFF80000000000000000000003FFFFF0
FFFFF80000000000000000000003FFFFF0
FFFFF80000000000000000000003FFFFF0
FFFFF80000000000000000000003FFFFF0
FFFFF80000000000000000000003FFFFF0
FFFFF80000000000000000000003FFFFF0
FFFFF80000000000000000000007FFFFE0
FFFFF80000000000000000000007FFFFE0
FFFFF80000000000000000000007FFFFE0
FFFFF8000000000000000000000FFFFFE0
FFFFF8000000000000000000000FFFFFE0
FFFFF8000000000000000000000FFFFFC0
FFFFF8000000000000000000001FFFFFC0
FFFFF8000000000000000000001FFFFFC0
FFFFF8000000000000000000001FFFFFC0
FFFFF8000000000000000000003FFFFF80
FFFFF8000000000000000000003FFFFF80
FFFFF8000000000000000000007FFFFF80
FFFFF800000000000000000000FFFFFF00
FFFFF800000000000000000000FFFFFF00
FFFFF800000000000000000001FFFFFE00
FFFFF800000000000000000003FFFFFE00
FFFFF800000000000000000003FFFFFE00
FFFFF800000000000000000007FFFFFC00
FFFFF80000000000000000000FFFFFFC00
FFFFF80000000000000000001FFFFFF800
FFFFF80000000000000000003FFFFFF800
FFFFF80000000000000000007FFFFFF000
FFFFF8000000000000000001FFFFFFF000
FFFFF8000000000000000003FFFFFFE000
FFFFF8000000000000000007FFFFFFC000
FFFFF800000000000000001FFFFFFFC000
FFFFF800000000000000007FFFFFFF8000
FFFFF80000000000000001FFFFFFFF0000
FFFFF8000000000000000FFFFFFFFF0000
FFFFF800000000000000FFFFFFFFFE0000
FFFFFFFFFFFFFFFFFFFFFFFFFFFFFC0000
FFFFFFFFFFFFFFFFFFFFFFFFFFFFF80000
FFFFFFFFFFFFFFFFFFFFFFFFFFFFF00000
FFFFFFFFFFFFFFFFFFFFFFFFFFFFE00000
FFFFFFFFFFFFFFFFFFFFFFFFFFFFE00000
FFFFFFFFFFFFFFFFFFFFFFFFFFFFC00000
FFFFFFFFFFFFFFFFFFFFFFFFFFFF000000
FFFFFFFFFFFFFFFFFFFFFFFFFFFE000000
FFFFFFFFFFFFFFFFFFFFFFFFFFFC000000
FFFFFFFFFFFFFFFFFFFFFFFFFFF8000000
FFFFFFFFFFFFFFFFFFFFFFFFFFF0000000
FFFFFFFFFFFFFFFFFFFFFFFFFFC0000000
FFFFFFFFFFFFFFFFFFFFFFFFFF80000000
FFFFFFFFFFFFFFFFFFFFFFFFFE00000000
FFFFFFFFFFFFFFFFFFFFFFFFF800000000
FFFFFFFFFFFFFFFFFFFFFFFFE000000000
FFFFFFFFFFFFFFFFFFFFFFFFC000000000
FFFFFFFFFFFFFFFFFFFFFFFE0000000000
FFFFFFFFFFFFFFFFFFFFFFF80000000000
FFFFFFFFFFFFFFFFFFFFFFC00000000000
FFFFFFFFFFFFFFFFFFFFFC000000000000
FFFFFFFFFFFFFFFFFFFF00000000000000
ENDCHAR
STARTCHAR E
ENCODING 69
SWIDTH 759 0
DWIDTH 130 0
BBX 111 124 11 0
BITMAP
FFFFFFFFFFFFFFFFFFFFFFFFFFFE
FFFFFFFFFFFFFFFFFFFFFFFFFFFE
FFFFFFFFFFFFFFFFFFFFFFFFFFFE
FFFFFFFFFFFFFFFFFFFFFFFFFFFE
FFFFFFFFFFFFFFFFFFFFFFFFFFFE
FFFFFFFFFFFFFFFFFFFFFFFFFFFE
FFFFFFFFFFFFFFFFFFFFFFFFFFFE
FFFFFFFFFFFFFFFFFFFFFFFFFFFE
FFFFFFFFFFFFFFFFFFFFFFFFFFFE
FFFFFFFFFFFFFFFFFFFFFFFFFFFE
FFFFFFFFFFFFFFFFFFFFFFFFFFFE
FFFFFFFFFFFFFFFFFFFFFFFFFFFE
FFFFFFFFFFFFFFFFFFFFFFFFFFFE
FFFFFFFFFFFFFFFFFFFFFFFFFFFE
FFFFFFFFFFFFFFFFFFFFFFFFFFFE
FFFFFFFFFFFFFFFFFFFFFFFFFFFE
FFFFFFFFFFFFFFFFFFFFFFFFFFFE
FFFFFFFFFFFFFFFFFFFFFFFFFFFE
FFFFFFFFFFFFFFFFFFFFFFFFFFFE
FFFFFFFFFFFFFFFFFFFFFFFFFFFE
FFFFFFFFFFFFFFFFFFFFFFFFFFFE
FFFFFFFFFFFFFFFFFFFFFFFFFFFE
FFFFF80000000000000000000000
FFFFF80000000000000000000000
FFFFF80000000000000000000000
FFFFF80000000000000000000000
FFFFF80000000000000000000000
FFFFF80000000000000000000000
FFFFF80000000000000000000000
FFFFF80000000000000000000000
FFFFF80000000000000000000000
FFFFF80000000000000000000000
FFFFF80000000000000000000000
FFFFF80000000000000000000000
FFFFF80000000000000000000000
FFFFF80000000000000000000000
FFFFF80000000000000000000000
FFFFF80000000000000000000000
FFFFF80000000000000000000000
FFFFF80000000000000000000000
FFFFF80000000000000000000000
FFFFF80000000000000000000000
FFFFF80000000000000000000000
FFFFF80000000000000000000000
FFFFF80000000000000000000000
FFFFF80000000000000000000000
FFFFF80000000000000000000000
FFFFF80000000000000000000000
FFFFF80000000000000000000000
FFFFF80000000000000000000000
FFFFF80000000000000000000000
FFFFF80000000000000000000000
FFFFF80007FFFFFFFFFFFFFFFFC0
FFFFF80007FFFFFFFFFFFFFFFFC0
FFFFF80007FFFFFFFFFFFFFFFFC0
FFFFF80007FFFFFFFFFFFFFFFFC0
FFFFF80007FFFFFFFFFFFFFFFFC0
FFFFF80007FFFFFFFFFFFFFFFFC0
FFFFF80007FFFFFFFFFFFFFFFFC0
FFFFF80007FFFFFFFFFFFFFFFFC0
FFFFF80007FFFFFFFFFFFFFFFFC0
FFFFF80007FFFFFFFFFFFFFFFFC0
FFFFF80007FFFFFFFFFFFFFFFFC0
FFFFF80007FFFFFFFFFFFFFFFFC0
FFFFF80007FFFFFFFFFFFFFFFFC0
FFFFF80007FFFFFFFFFFFFFFFFC0
FFFFF80007FFFFFFFFFFFFFFFFC0
FFFFF80007FFFFFFFFFFFFFFFFC0
FFFFF80007FFFFFFFFFFFFFFFFC0
FFFFF80007FFFFFFFFFFFFFFFFC0
FFFFF80000000000000000000000
FFFFF80000000000000000000000
FFFFF80000000000000000000000
FFFFF80000000000000000000000
FFFFF80000000000000000000000
FFFFF80000000000000000000000
FFFFF80000000000000000000000
FFFFF80000000000000000000000
FFFFF80000000000000000000000
FFFFF80000000000000000000000
FFFFF80000000000000000000000
FFFFF80000000000000000000000
FFFFF80000000000000000000000
FFFFF80000000000000000000000
FFFFF80000000000000000000000
FFFFF80000000000000000000000
FFFFF80000000000000000000000
FFFFF80000000000000000000000
FFFFF80000000000000000000000
FFFFF80000000000000000000000
FFFFF80000000000000000000000
FFFFF80000000000000000000000
FFFFF80000000000000000000000
FFFFF80000000000000000000000
FFFFF80000000000000000000000
FFFFF80000000000000000000000
FFFFF80000000000000000000000
FFFFF80000000000000000000000
FFFFF80000000000000000000000
FFFFF80000000000000000000000
FFFFF80000000000000000000000
FFFFF80000000000000000000000
FFFFFFFFFFFFFFFFFFFFFFFFFFFE
FFFFFFFFFFFFFFFFFFFFFFFFFFFE
FFFFFFFFFFFFFFFFFFFFFFFFFFFE
FFFFFFFFFFFFFFFFFFFFFFFFFFFE
FFFFFFFFFFFFFFFFFFFFFFFFFFFE
FFFFFFFFFFFFFFFFFFFFFFFFFFFE
FFFFFFFFFFFFFFFFFFFFFFFFFFFE
FFFFFFFFFFFFFFFFFFFFFFFFFFFE
FFFFFFFFFFFFFFFFFFFFFFFFFFFE
FFFFFFFFFFFFFFFFFFFFFFFFFFFE
FFFFFFFFFFFFFFFFFFFFFFFFFFFE
FFFFFFFFFFFFFFFFFFFFFFFFFFFE
FFFFFFFFFFFFFFFFFFFFFFFFFFFE
FFFFFFFFFFFFFFFFFFFFFFFFFFFE
FFFFFFFFFFFFFFFFFFFFFFFFFFFE
FFFFFFFFFFFFFFFFFFFFFFFFFFFE
FFFFFFFFFFFFFFFFFFFFFFFFFFFE
FFFFFFFFFFFFFFFFFFFFFFFFFFFE
FFFFFFFFFFFFFFFFFFFFFFFFFFFE
FFFFFFFFFFFFFFFFFFFFFFFFFFFE
FFFFFFFFFFFFFFFFFFFFFFFFFFFE
FFFFFFFFFFFFFFFFFFFFFFFFFFFE
ENDCHAR
STARTCHAR F
ENCODING 70
SWIDTH 705 0
DWIDTH 121 0
BBX 105 124 11 0
BITMAP
FFFFFFFFFFFFFFFFFFFFFFFFFF80
FFFFFFFFFFFFFFFFFFFFFFFFFF80
FFFFFFFFFFFFFFFFFFFFFFFFFF80
FFFFFFFFFFFFFFFFFFFFFFFFFF80
FFFFFFFFFFFFFFFFFFFFFFFFFF80
FFFFFFFFFFFFFFFFFFFFFFFFFF80
FFFFFFFFFFFFFFFFFFFFFFFFFF80
FFFFFFFFFFFFFFFFFFFFFFFFFF80
FFFFFFFFFFFFFFFFFFFFFFFFFF80
FFFFFFFFFFFFFFFFFFFFFFFFFF80
FFFFFFFFFFFFFFFFFFFFFFFFFF80
FFFFFFFFFFFFFFFFFFFFFFFFFF80
FFFFFFFFFFFFFFFFFFFFFFFFFF80
FFFFFFFFFFFFFFFFFFFFFFFFFF80
FFFFFFFFFFFFFFFFFFFFFFFFFF80
FFFFFFFFFFFFFFFFFFFFFFFFFF80
FFFFFFFFFFFFFFFFFFFFFFFFFF80
FFFFFFFFFFFFFFFFFFFFFFFFFF80
FFFFFFFFFFFFFFFFFFFFFFFFFF80
FFFFFFFFFFFFFFFFFFFFFFFFFF80
FFFFFFFFFFFFFFFFFFFFFFFFFF80
FFFFFFFFFFFFFFFFFFFFFFFFFF80
FFFFF80000000000000000000000
FFFFF80000000000000000000000
FFFFF80000000000000000000000
FFFFF80000000000000000000000
FFFFF80000000000000000000000
FFFFF80000000000000000000000
FFFFF80000000000000000000000
FFFFF80000000000000000000000
FFFFF80000000000000000000000
FFFFF80000000000000000000000
FFFFF80000000000000000000000
FFFFF80000000000000000000000
FFFFF80000000000000000000000
FFFFF80000000000000000000000
FFFFF80000000000000000000000
FFFFF80000000000000000000000
FFFFF80000000000000000000000
FFFFF80000000000000000000000
FFFFF80000000000000000000000
FFFFF80000000000000000000000
FFFFF80000000000000000000000
FFFFF80000000000000000000000
FFFFF80000000000000000000000
FFFFF80000000000000000000000
FFFFF80000000000000000000000
FFFFF80000000000000000000000
FFFFF80000000000000000000000
FFFFF80000000000000000000000
FFFFF80000000000000000000000
FFFFF80000000000000000000000
FFFFF80000000000000000000000
FFFFF80000000000000000000000
FFFFF80007FFFFFFFFFFFFFFF000
FFFFF80007FFFFFFFFFFFFFFF000
FFFFF80007FFFFFFFFFFFFFFF000
FFFFF80007FFFFFFFFFFFFFFF000
FFFFF80007FFFFFFFFFFFFFFF000
FFFFF80007FFFFFFFFFFFFFFF000
FFFFF80007FFFFFFFFFFFFFFF000
FFFFF80007FFFFFFFFFFFFFFF000
FFFFF80007FFFFFFFFFFFFFFF000
FFFFF80007FFFFFFFFFFFFFFF000
FFFFF80007FFFFFFFFFFFFFFF000
FFFFF80007FFFFFFFFFFFFFFF000
FFFFF80007FFFFFFFFFFFFFFF000
FFFFF80007FFFFFFFFFFFFFFF000
FFFFF80007FFFFFFFFFFFFFFF000
FFFFF80007FFFFFFFFFFFFFFF000
FFFFF80007FFFFFFFFFFFFFFF000
FFFFF80007FFFFFFFFFFFFFFF000
FFFFF80007FFFFFFFFFFFFFFF000
FFFFF80000000000000000000000
FFFFF80000000000000000000000
FFFFF80000000000000000000000
FFFFF80000000000000000000000
FFFFF80000000000000000000000
FFFFF80000000000000000000000
FFFFF80000000000000000000000
FFFFF80000000000000000000000
FFFFF80000000000000000000000
FFFFF80000000000000000000000
FFFFF80000000000000000000000
FFFFF80000000000000000000000
FFFFF80000000000000000000000
FFFFF80000000000000000000000
FFFFF80000000000000000000000
FFFFF80000000000000000000000
FFFFF80000000000000000000000
FFFFF80000000000000000000000
FFFFF80000000000000000000000
FFFFF80000000000000000000000
FFFFF80000000000000000000000
FFFFF80000000000000000000000
FFFFF80000000000000000000000
FFFFF80000000000000000000000
FFFFF80000000000000000000000
FFFFF80000000000000000000000
FFFFF80000000000000000000000
FFFFF80000000000000000000000
FFFFF80000000000000000000000
FFFFF80000000000000000000000
FFFFF80000000000000000000000
FFFFF80000000000000000000000
FFFFF80000000000000000000000
FFFFF80000000000000000000000
FFFFF80000000000000000000000
FFFFF80000000000000000000000
FFFFF80000000000000000000000
FFFFF80000000000000000000000
FFFFF80000000000000000000000
FFFFF80000000000000000000000
FFFFF80000000000000000000000
FFFFF80000000000000000000000
FFFFF80000000000000000000000
FFFFF80000000000000000000000
FFFFF80000000000000000000000
FFFFF80000000000000000000000
FFFFF80000000000000000000000
FFFFF80000000000000000000000
FFFFF80000000000000000000000
FFFFF80000000000000000000000
FFFFF80000000000000000000000
ENDCHAR
STARTCHAR G
ENCODING 71
SWIDTH 888 0
DWIDTH 152 0
BBX 136 124 7 0
BITMAP
0000000000000FFFFFFFFFFFFFFFFFFF00
000000000003FFFFFFFFFFFFFFFFFFFF00
00000000003FFFFFFFFFFFFFFFFFFFFF00
0000000001FFFFFFFFFFFFFFFFFFFFFF00
000000000FFFFFFFFFFFFFFFFFFFFFFF00
000000003FFFFFFFFFFFFFFFFFFFFFFF00
00000000FFFFFFFFFFFFFFFFFFFFFFFF00
00000003FFFFFFFFFFFFFFFFFFFFFFFF00
0000000FFFFFFFFFFFFFFFFFFFFFFFFF00
0000003FFFFFFFFFFFFFFFFFFFFFFFFF00
0000007FFFFFFFFFFFFFFFFFFFFFFFFF00
000001FFFFFFFFFFFFFFFFFFFFFFFFFF00
000003FFFFFFFFFFFFFFFFFFFFFFFFFF00
000007FFFFFFFFFFFFFFFFFFFFFFFFFF00
00000FFFFFFFFFFFFFFFFFFFFFFFFFFF00
00001FFFFFFFFFFFFFFFFFFFFFFFFFFF00
00007FFFFFFFFFFFFFFFFFFFFFFFFFFF00
0000FFFFFFFFFFFFFFFFFFFFFFFFFFFF00
0000FFFFFFFFFFFFFFFFFFFFFFFFFFFF00
0001FFFFFFFFFFFFFFFFFFFFFFFFFFFF00
0003FFFFFFFFFFFFFFFFFFFFFFFFFFFF00
0007FFFFFFFFFFFFFFFFFFFFFFFFFFFF00
000FFFFFFFFFF000000000000000000000
001FFFFFFFFF0000000000000000000000
001FFFFFFFF80000000000000000000000
003FFFFFFFE00000000000000000000000
007FFFFFFF800000000000000000000000
007FFFFFFF000000000000000000000000
00FFFFFFFC000000000000000000000000
00FFFFFFF8000000000000000000000000
01FFFFFFE0000000000000000000000000
01FFFFFFC0000000000000000000000000
03FFFFFF80000000000000000000000000
03FFFFFF00000000000000000000000000
07FFFFFE00000000000000000000000000
07FFFFFE00000000000000000000000000
0FFFFFFC00000000000000000000000000
0FFFFFF800000000000000000000000000
0FFFFFF000000000000000000000000000
1FFFFFF000000000000000000000000000
1FFFFFE000000000000000000000000000
1FFFFFE000000000000000000000000000
3FFFFFC000000000000000000000000000
3FFFFFC000000000000000000000000000
3FFFFF8000000000000000000000000000
3FFFFF8000000000000000000000000000
3FFFFF0000000000000000000000000000
7FFFFF0000000000000000000000000000
7FFFFF0000000000000000000000000000
7FFFFE0000000000000000000000000000
7FFFFE0000000000000000000000000000
7FFFFE0000000000000000000000000000
7FFFFE000000003FFFFFFFFFFFFFFFFFFF
FFFFFE000000003FFFFFFFFFFFFFFFFFFF
FFFFFC000000003FFFFFFFFFFFFFFFFFFF
FFFFFC000000003FFFFFFFFFFFFFFFFFFF
FFFFFC000000003FFFFFFFFFFFFFFFFFFF
FFFFFC000000003FFFFFFFFFFFFFFFFFFF
FFFFFC000000003FFFFFFFFFFFFFFFFFFF
FFFFFC000000003FFFFFFFFFFFFFFFFFFF
FFFFFC000000003FFFFFFFFFFFFFFFFFFF
FFFFFC000000003FFFFFFFFFFFFFFFFFFF
FFFFFC000000003FFFFFFFFFFFFFFFFFFF
FFFFFC000000003FFFFFFFFFFFFFFFFFFF
FFFFFC000000003FFFFFFFFFFFFFFFFFFF
FFFFFC000000003FFFFFFFFFFFFFFFFFFF
FFFFFC000000003FFFFFFFFFFFFFFFFFFF
FFFFFC000000003FFFFFFFFFFFFFFFFFFF
7FFFFC000000003FFFFFFFFFFFFFFFFFFF
7FFFFE000000003FFFFFFFFFFFFFFFFFFF
7FFFFE00000000000000000000003FFFFF
7FFFFE00000000000000000000003FFFFF
7FFFFE00000000000000000000003FFFFF
7FFFFE00000000000000000000003FFFFF
7FFFFF00000000000000000000003FFFFF
3FFFFF00000000000000000000003FFFFF
3FFFFF00000000000000000000003FFFFF
3FFFFF80000000000000000000003FFFFF
3FFFFF80000000000000000000003FFFFF
1FFFFF80000000000000000000003FFFFF
1FFFFFC0000000000000000000003FFFFF
1FFFFFC0000000000000000000003FFFFF
0FFFFFE0000000000000000000003FFFFF
0FFFFFE0000000000000000000003FFFFF
0FFFFFF0000000000000000000003FFFFF
07FFFFF8000000000000000000003FFFFF
07FFFFF8000000000000000000003FFFFF
07FFFFFC000000000000000000003FFFFF
03FFFFFE000000000000000000003FFFFF
03FFFFFF000000000000000000003FFFFF
01FFFFFF800000000000000000003FFFFF
01FFFFFFC00000000000000000003FFFFF
00FFFFFFE00000000000000000003FFFFF
00FFFFFFF00000000000000000003FFFFF
007FFFFFF80000000000000000003FFFFF
007FFFFFFC0000000000000000003FFFFF
003FFFFFFF0000000000000000003FFFFF
001FFFFFFF8000000000000000003FFFFF
001FFFFFFFE000000000000000003FFFFF
000FFFFFFFFC00000000000000003FFFFF
0007FFFFFFFF00000000000000003FFFFF
0003FFFFFFFFF0000000000000003FFFFF
0003FFFFFFFFFFFFFFFFFFFFFFFFFFFFFF
0001FFFFFFFFFFFFFFFFFFFFFFFFFFFFFF
0000FFFFFFFFFFFFFFFFFFFFFFFFFFFFFF
00007FFFFFFFFFFFFFFFFFFFFFFFFFFFFF
00003FFFFFFFFFFFFFFFFFFFFFFFFFFFFF
00001FFFFFFFFFFFFFFFFFFFFFFFFFFFFF
00000FFFFFFFFFFFFFFFFFFFFFFFFFFFFF
000007FFFFFFFFFFFFFFFFFFFFFFFFFFFF
000003FFFFFFFFFFFFFFFFFFFFFFFFFFFF
000000FFFFFFFFFFFFFFFFFFFFFFFFFFFF
0000007FFFFFFFFFFFFFFFFFFFFFFFFFFF
0000003FFFFFFFFFFFFFFFFFFFFFFFFFFF
0000000FFFFFFFFFFFFFFFFFFFFFFFFFFF
00000007FFFFFFFFFFFFFFFFFFFFFFFFFF
00000001FFFFFFFFFFFFFFFFFFFFFFFFFF
000000007FFFFFFFFFFFFFFFFFFFFFFFFF
000000001FFFFFFFFFFFFFFFFFFFFFFFFF
0000000007FFFFFFFFFFFFFFFFFFFFFFFF
0000000000FFFFFFFFFFFFFFFFFFFFFFFF
00000000001FFFFFFFFFFFFFFFFFFFFFFF
000000000001FFFFFFFFFFFFFFFFFFFFFF
0000000000000FFFFFFFFFFFFFFFFFFFFF
ENDCHAR
STARTCHAR H
ENCODING 72
SWIDTH 838 0
DWIDTH 143 0
BBX 122 124 11 0
BITMAP
FFFFF80000000000000000000FFFFFC0
FFFFF80000000000000000000FFFFFC0
FFFFF80000000000000000000FFFFFC0
FFFFF80000000000000000000FFFFFC0
FFFFF80000000000000000000FFFFFC0
FFFFF80000000000000000000FFFFFC0
FFFFF80000000000000000000FFFFFC0
FFFFF80000000000000000000FFFFFC0
FFFFF80000000000000000000FFFFFC0
FFFFF80000000000000000000FFFFFC0
FFFFF80000000000000000000FFFFFC0
FFFFF80000000000000000000FFFFFC0
FFFFF80000000000000000000FFFFFC0
FFFFF80000000000000000000FFFFFC0
FFFFF80000000000000000000FFFFFC0
FFFFF80000000000000000000FFFFFC0
FFFFF80000000000000000000FFFFFC0
FFFFF80000000000000000000FFFFFC0
FFFFF80000000000000000000FFFFFC0
FFFFF80000000000000000000FFFFFC0
FFFFF80000000000000000000FFFFFC0
FFFFF80000000000000000000FFFFFC0
FFFFF80000000000000000000FFFFFC0
FFFFF80000000000000000000FFFFFC0
FFFFF80000000000000000000FFFFFC0
FFFFF80000000000000000000FFFFFC0
FFFFF80000000000000000000FFFFFC0
FFFFF80000000000000000000FFFFFC0
FFFFF80000000000000000000FFFFFC0
FFFFF80000000000000000000FFFFFC0
FFFFF80000000000000000000FFFFFC0
FFFFF80000000000000000000FFFFFC0
FFFFF80000000000000000000FFFFFC0
FFFFF80000000000000000000FFFFFC0
FFFFF80000000000000000000FFFFFC0
FFFFF80000000000000000000FFFFFC0
FFFFF80000000000000000000FFFFFC0
FFFFF80000000000000000000FFFFFC0
FFFFF80000000000000000000FFFFFC0
FFFFF80000000000000000000FFFFFC0
FFFFF80000000000000000000FFFFFC0
FFFFF80000000000000000000FFFFFC0
FFFFF80000000000000000000FFFFFC0
FFFFF80000000000000000000FFFFFC0
FFFFF80000000000000000000FFFFFC0
FFFFF80000000000000000000FFFFFC0
FFFFF80000000000000000000FFFFFC0
FFFFF80000000000000000000FFFFFC0
FFFFF80000000000000000000FFFFFC0
FFFFF80000000000000000000FFFFFC0
FFFFF80000000000000000000FFFFFC0
FFFFF80007FFFFFFFFFFFFFFFFFFFFC0
FFFFF80007FFFFFFFFFFFFFFFFFFFFC0
FFFFF80007FFFFFFFFFFFFFFFFFFFFC0
FFFFF80007FFFFFFFFFFFFFFFFFFFFC0
FFFFF80007FFFFFFFFFFFFFFFFFFFFC0
FFFFF80007FFFFFFFFFFFFFFFFFFFFC0
FFFFF80007FFFFFFFFFFFFFFFFFFFFC0
FFFFF80007FFFFFFFFFFFFFFFFFFFFC0
FFFFF80007FFFFFFFFFFFFFFFFFFFFC0
FFFFF80007FFFFFFFFFFFFFFFFFFFFC0
FFFFF80007FFFFFFFFFFFFFFFFFFFFC0
FFFFF80007FFFFFFFFFFFFFFFFFFFFC0
FFFFF80007FFFFFFFFFFFFFFFFFFFFC0
FFFFF80007FFFFFFFFFFFFFFFFFFFFC0
FFFFF80007FFFFFFFFFFFFFFFFFFFFC0
FFFFF80007FFFFFFFFFFFFFFFFFFFFC0
FFFFF80007FFFFFFFFFFFFFFFFFFFFC0
FFFFF80007FFFFFFFFFFFFFFFFFFFFC0
FFFFF80007FFFFFFFFFFFFFFFFFFFFC0
FFFFF80000000000000000000FFFFFC0
FFFFF80000000000000000000FFFFFC0
FFFFF80000000000000000000FFFFFC0
FFFFF80000000000000000000FFFFFC0
FFFFF80000000000000000000FFFFFC0
FFFFF80000000000000000000FFFFFC0
FFFFF80000000000000000000FFFFFC0
FFFFF80000000000000000000FFFFFC0
FFFFF80000000000000000000FFFFFC0
FFFFF80000000000000000000FFFFFC0
FFFFF80000000000000000000FFFFFC0
FFFFF80000000000000000000FFFFFC0
FFFFF80000000000000000000FFFFFC0
FFFFF80000000000000000000FFFFFC0
FFFFF80000000000000000000FFFFFC0
FFFFF80000000000000000000FFFFFC0
FFFFF80000000000000000000FFFFFC0
FFFFF80000000000000000000FFFFFC0
FFFFF80000000000000000000FFFFFC0
FFFFF80000000000000000000FFFFFC0
FFFFF80000000000000000000FFFFFC0
FFFFF80000000000000000000FFFFFC0
FFFFF80000000000000000000FFFFFC0
FFFFF80000000000000000000FFFFFC0
FFFFF80000000000000000000FFFFFC0
FFFFF80000000000000000000FFFFFC0
FFFFF80000000000000000000FFFFFC0
FFFFF80000000000000000000FFFFFC0
FFFFF80000000000000000000FFFFFC0
FFFFF80000000000000000000FFFFFC0
FFFFF80000000000000000000FFFFFC0
FFFFF80000000000000000000FFFFFC0
FFFFF80000000000000000000FFFFFC0
FFFFF80000000000000000000FFFFFC0
FFFFF80000000000000000000FFFFFC0
FFFFF80000000000000000000FFFFFC0
FFFFF80000000000000000000FFFFFC0
FFFFF80000000000000000000FFFFFC0
FFFFF80000000000000000000FFFFFC0
FFFFF80000000000000000000FFFFFC0
FFFFF80000000000000000000FFFFFC0
FFFFF80000000000000000000FFFFFC0
FFFFF80000000000000000000FFFFFC0
FFFFF80000000000000000000FFFFFC0
FFFFF80000000000000000000FFFFFC0
FFFFF80000000000000000000FFFFFC0
FFFFF80000000000000000000FFFFFC0
FFFFF80000000000000000000FFFFFC0
FFFFF80000000000000000000FFFFFC0
FFFFF80000000000000000000FFFFFC0
FFFFF80000000000000000000FFFFFC0
FFFFF80000000000000000000FFFFFC0
FFFFF80000000000000000000FFFFFC0
FFFFF80000000000000000000FFFFFC0
ENDCHAR
STARTCHAR I
ENCODING 73
SWIDTH 267 0
DWIDTH 46 0
BBX 22 124 12 0
BITMAP
FFFFFC
FFFFFC
FFFFFC
FFFFFC
FFFFFC
FFFFFC
FFFFFC
FFFFFC
FFFFFC
FFFFFC
FFFFFC
FFFFFC
FFFFFC
FFFFFC
FFFFFC
FFFFFC
FFFFFC
FFFFFC
FFFFFC
FFFFFC
FFFFFC
FFFFFC
FFFFFC
FFFFFC
FFFFFC
FFFFFC
FFFFFC
FFFFFC
FFFFFC
FFFFFC
FFFFFC
FFFFFC
FFFFFC
FFFFFC
FFFFFC
FFFFFC
FFFFFC
FFFFFC
FFFFFC
FFFFFC
FFFFFC
FFFFFC
FFFFFC
FFFFFC
FFFFFC
FFFFFC
FFFFFC
FFFFFC
FFFFFC
FFFFFC
FFFFFC
FFFFFC
FFFFFC
FFFFFC
FFFFFC
FFFFFC
FFFFFC
FFFFFC
FFFFFC
FFFFFC
FFFFFC
FFFFFC
FFFFFC
FFFFFC
FFFFFC
FFFFFC
FFFFFC
FFFFFC
FFFFFC
FFFFFC
FFFFFC
FFFFFC
FFFFFC
FFFFFC
FFFFFC
FFFFFC
FFFFFC
FFFFFC
FFFFFC
FFFFFC
FFFFFC
FFFFFC
FFFFFC
FFFFFC
FFFFFC
FFFFFC
FFFFFC
FFFFFC
FFFFFC
FFFFFC
FFFFFC
FFFFFC
FFFFFC
FFFFFC
FFFFFC
FFFFFC
FFFFFC
FFFFFC
FFFFFC
FFFFFC
FFFFFC
FFFFFC
FFFFFC
FFFFFC
FFFFFC
FFFFFC
FFFFFC
FFFFFC
FFFFFC
FFFFFC
FFFFFC
FFFFFC
FFFFFC
FFFFFC
FFFFFC
FFFFFC
FFFFFC
FFFFFC
FFFFFC
FFFFFC
FFFFFC
FFFFFC
FFFFFC
FFFFFC
ENDCHAR
STARTCHAR J
ENCODING 74
SWIDTH 708 0
DWIDTH 121 0
BBX 108 124 4 0
BITMAP
0000000000000000000003FFFFF0
0000000000000000000003FFFFF0
0000000000000000000003FFFFF0
0000000000000000000003FFFFF0
0000000000000000000003FFFFF0
0000000000000000000003FFFFF0
0000000000000000000003FFFFF0
0000000000000000000003FFFFF0
0000000000000000000003FFFFF0
0000000000000000000003FFFFF0
0000000000000000000003FFFFF0
0000000000000000000003FFFFF0
0000000000000000000003FFFFF0
0000000000000000000003FFFFF0
0000000000000000000003FFFFF0
0000000000000000000003FFFFF0
0000000000000000000003FFFFF0
0000000000000000000003FFFFF0
0000000000000000000003FFFFF0
0000000000000000000003FFFFF0
0000000000000000000003FFFFF0
0000000000000000000003FFFFF0
0000000000000000000003FFFFF0
0000000000000000000003FFFFF0
0000000000000000000003FFFFF0
0000000000000000000003FFFFF0
0000000000000000000003FFFFF0
0000000000000000000003FFFFF0
0000000000000000000003FFFFF0
0000000000000000000003FFFFF0
0000000000000000000003FFFFF0
0000000000000000000003FFFFF0
0000000000000000000003FFFFF0
0000000000000000000003FFFFF0
0000000000000000000003FFFFF0
0000000000000000000003FFFFF0
0000000000000000000003FFFFF0
0000000000000000000003FFFFF0
0000000000000000000003FFFFF0
0000000000000000000003FFFFF0
0000000000000000000003FFFFF0
0000000000000000000003FFFFF0
0000000000000000000003FFFFF0
0000000000000000000003FFFFF0
0000000000000000000003FFFFF0
0000000000000000000003FFFFF0
0000000000000000000003FFFFF0
0000000000000000000003FFFFF0
0000000000000000000003FFFFF0
0000000000000000000003FFFFF0
0000000000000000000003FFFFF0
0000000000000000000003FFFFF0
0000000000000000000003FFFFF0
0000000000000000000003FFFFF0
0000000000000000000003FFFFF0
0000000000000000000003FFFFF0
0000000000000000000003FFFFF0
0000000000000000000003FFFFF0
0000000000000000000003FFFFF0
0000000000000000000003FFFFF0
0000000000000000000003FFFFF0
0000000000000000000003FFFFF0
0000000000000000000003FFFFF0
0000000000000000000003FFFFF0
0000000000000000000003FFFFF0
0000000000000000000003FFFFF0
0000000000000000000003FFFFF0
0000000000000000000003FFFFF0
0000000000000000000003FFFFF0
0000000000000000000003FFFFF0
0000000000000000000003FFFFF0
0000000000000000000003FFFFF0
0000000000000000000003FFFFF0
0000000000000000000003FFFFF0
0000000000000000000003FFFFF0
0000000000000000000003FFFFF0
0000000000000000000003FFFFF0
0000000000000000000003FFFFF0
0000000000000000000007FFFFF0
0000000000000000000007FFFFE0
0000000000000000000007FFFFE0
0000000000000000000007FFFFE0
000000000000000000000FFFFFE0
000000000000000000000FFFFFE0
000000000000000000000FFFFFE0
000000000000000000001FFFFFC0
000000000000000000001FFFFFC0
000000000000000000003FFFFFC0
000000000000000000007FFFFFC0
000000000000000000007FFFFF80
00000000000000000000FFFFFF80
00000000000000000001FFFFFF80
00000000000000000003FFFFFF00
00000000000000000007FFFFFF00
0000000000000000000FFFFFFF00
0000000000000000001FFFFFFE00
0000000000000000007FFFFFFE00
000000000000000000FFFFFFFC00
000000000000000007FFFFFFFC00
00000000000000001FFFFFFFF800
0000000000000001FFFFFFFFF800
000000000000003FFFFFFFFFF000
FFFFFFFFFFFFFFFFFFFFFFFFF000
FFFFFFFFFFFFFFFFFFFFFFFFE000
FFFFFFFFFFFFFFFFFFFFFFFFC000
FFFFFFFFFFFFFFFFFFFFFFFF8000
FFFFFFFFFFFFFFFFFFFFFFFF8000
FFFFFFFFFFFFFFFFFFFFFFFF0000
FFFFFFFFFFFFFFFFFFFFFFFE0000
FFFFFFFFFFFFFFFFFFFFFFFC0000
FFFFFFFFFFFFFFFFFFFFFFF80000
FFFFFFFFFFFFFFFFFFFFFFF00000
FFFFFFFFFFFFFFFFFFFFFFC00000
FFFFFFFFFFFFFFFFFFFFFF800000
FFFFFFFFFFFFFFFFFFFFFE000000
FFFFFFFFFFFFFFFFFFFFFC000000
FFFFFFFFFFFFFFFFFFFFF0000000
FFFFFFFFFFFFFFFFFFFFC0000000
FFFFFFFFFFFFFFFFFFFF00000000
FFFFFFFFFFFFFFFFFFF800000000
FFFFFFFFFFFFFFFFFFC000000000
FFFFFFFFFFFFFFFFFC0000000000
FFFFFFFFFFFFFFFF800000000000
FFFFFFFFFFFFFFC0000000000000
ENDCHAR
STARTCHAR K
ENCODING 75
SWIDTH 875 0
DWIDTH 150 0
BBX 135 124 11 0
BITMAP
FFFFF80000000000000000001FFFFFFFF8
FFFFF80000000000000000007FFFFFFFE0
FFFFF8000000000000000000FFFFFFFFC0
FFFFF8000000000000000001FFFFFFFF00
FFFFF8000000000000000003FFFFFFFE00
FFFFF800000000000000000FFFFFFFFC00
FFFFF800000000000000001FFFFFFFF000
FFFFF800000000000000003FFFFFFFE000
FFFFF80000000000000000FFFFFFFFC000
FFFFF80000000000000001FFFFFFFF0000
FFFFF80000000000000003FFFFFFFE0000
FFFFF8000000000000000FFFFFFFFC0000
FFFFF8000000000000001FFFFFFFF00000
FFFFF8000000000000003FFFFFFFE00000
FFFFF8000000000000007FFFFFFFC00000
FFFFF800000000000001FFFFFFFF000000
FFFFF800000000000003FFFFFFFE000000
FFFFF800000000000007FFFFFFFC000000
FFFFF80000000000001FFFFFFFF0000000
FFFFF80000000000003FFFFFFFE0000000
FFFFF80000000000007FFFFFFFC0000000
FFFFF8000000000001FFFFFFFF00000000
FFFFF8000000000003FFFFFFFE00000000
FFFFF8000000000007FFFFFFFC00000000
FFFFF800000000001FFFFFFFF000000000
FFFFF800000000003FFFFFFFE000000000
FFFFF800000000007FFFFFFFC000000000
FFFFF80000000000FFFFFFFF0000000000
FFFFF80000000003FFFFFFFE0000000000
FFFFF80000000007FFFFFFFC0000000000
FFFFF8000000000FFFFFFFF00000000000
FFFFF8000000003FFFFFFFE00000000000
FFFFF8000000007FFFFFFFC00000000000
FFFFF800000000FFFFFFFF800000000000
FFFFF800000003FFFFFFFE000000000000
FFFFF800000007FFFFFFFC000000000000
FFFFF80000000FFFFFFFF8000000000000
FFFFF80000001FFFFFFFE0000000000000
FFFFF80000007FFFFFFFC0000000000000
FFFFF8000000FFFFFFFF80000000000000
FFFFF8000001FFFFFFFE00000000000000
FFFFF8000007FFFFFFFC00000000000000
FFFFF800000FFFFFFFF800000000000000
FFFFF800001FFFFFFFE000000000000000
FFFFF800007FFFFFFFC000000000000000
FFFFF80000FFFFFFFF8000000000000000
FFFFF80001FFFFFFFE0000000000000000
FFFFF80007FFFFFFFC0000000000000000
FFFFF8000FFFFFFFF80000000000000000
FFFFF8001FFFFFFFE00000000000000000
FFFFF8003FFFFFFFC00000000000000000
FFFFF800FFFFFFFF800000000000000000
FFFFF801FFFFFFFE000000000000000000
FFFFF803FFFFFFFC000000000000000000
FFFFF803FFFFFFF8000000000000000000
FFFFF807FFFFFFE0000000000000000000
FFFFF807FFFFFFC0000000000000000000
FFFFF80FFFFFFF80000000000000000000
FFFFF80FFFFFFE00000000000000000000
FFFFF80FFFFFFC00000000000000000000
FFFFF80FFFFFF800000000000000000000
FFFFF80FFFFFE000000000000000000000
FFFFF80FFFFFF800000000000000000000
FFFFF80FFFFFFC00000000000000000000
FFFFF807FFFFFE00000000000000000000
FFFFF807FFFFFF80000000000000000000
FFFFF803FFFFFFC0000000000000000000
FFFFF803FFFFFFE0000000000000000000
FFFFF801FFFFFFF8000000000000000000
FFFFF8007FFFFFFC000000000000000000
FFFFF8003FFFFFFE000000000000000000
FFFFF8001FFFFFFF800000000000000000
FFFFF80007FFFFFFC00000000000000000
FFFFF80003FFFFFFF00000000000000000
FFFFF80001FFFFFFF80000000000000000
FFFFF80000FFFFFFFC0000000000000000
FFFFF800003FFFFFFF0000000000000000
FFFFF800001FFFFFFF8000000000000000
FFFFF800000FFFFFFFC000000000000000
FFFFF8000007FFFFFFF000000000000000
FFFFF8000001FFFFFFF800000000000000
FFFFF8000000FFFFFFFC00000000000000
FFFFF80000007FFFFFFF00000000000000
FFFFF80000001FFFFFFF80000000000000
FFFFF80000000FFFFFFFC0000000000000
FFFFF800000007FFFFFFF0000000000000
FFFFF800000003FFFFFFF8000000000000
FFFFF800000000FFFFFFFC000000000000
FFFFF8000000007FFFFFFF000000000000
FFFFF8000000003FFFFFFF800000000000
FFFFF8000000001FFFFFFFC00000000000
FFFFF80000000007FFFFFFF00000000000
FFFFF80000000003FFFFFFF80000000000
FFFFF80000000001FFFFFFFC0000000000
FFFFF800000000007FFFFFFF0000000000
FFFFF800000000003FFFFFFF8000000000
FFFFF800000000001FFFFFFFC000000000
FFFFF800000000000FFFFFFFF000000000
FFFFF8000000000003FFFFFFF800000000
FFFFF8000000000001FFFFFFFC00000000
FFFFF8000000000000FFFFFFFF00000000
FFFFF80000000000007FFFFFFF80000000
FFFFF80000000000001FFFFFFFC0000000
FFFFF80000000000000FFFFFFFF0000000
FFFFF800000000000007FFFFFFF8000000
FFFFF800000000000001FFFFFFFE000000
FFFFF800000000000000FFFFFFFF000000
FFFFF8000000000000007FFFFFFF800000
FFFFF8000000000000003FFFFFFFE00000
FFFFF8000000000000000FFFFFFFF00000
FFFFF80000000000000007FFFFFFF80000
FFFFF80000000000000003FFFFFFFE0000
FFFFF80000000000000000FFFFFFFF0000
FFFFF800000000000000007FFFFFFF8000
FFFFF800000000000000003FFFFFFFE000
FFFFF800000000000000001FFFFFFFF000
FFFFF8000000000000000007FFFFFFF800
FFFFF8000000000000000003FFFFFFFE00
FFFFF8000000000000000001FFFFFFFF00
FFFFF8000000000000000000FFFFFFFF80
FFFFF80000000000000000003FFFFFFFE0
FFFFF80000000000000000001FFFFFFFF0
FFFFF80000000000000000000FFFFFFFF8
FFFFF800000000000000000003FFFFFFFE
ENDCHAR
STARTCHAR L
ENCODING 76
SWIDTH 707 0
DWIDTH 121 0
BBX 105 124 11 0
BITMAP
FFFFF80000000000000000000000
FFFFF80000000000000000000000
FFFFF80000000000000000000000
FFFFF80000000000000000000000
FFFFF80000000000000000000000
FFFFF80000000000000000000000
FFFFF80000000000000000000000
FFFFF80000000000000000000000
FFFFF80000000000000000000000
FFFFF80000000000000000000000
FFFFF80000000000000000000000
FFFFF80000000000000000000000
FFFFF80000000000000000000000
FFFFF80000000000000000000000
FFFFF80000000000000000000000
FFFFF80000000000000000000000
FFFFF80000000000000000000000
FFFFF80000000000000000000000
FFFFF80000000000000000000000
FFFFF80000000000000000000000
FFFFF80000000000000000000000
FFFFF80000000000000000000000
FFFFF80000000000000000000000
FFFFF80000000000000000000000
FFFFF80000000000000000000000
FFFFF80000000000000000000000
FFFFF80000000000000000000000
FFFFF80000000000000000000000
FFFFF80000000000000000000000
FFFFF80000000000000000000000
FFFFF80000000000000000000000
FFFFF80000000000000000000000
FFFFF80000000000000000000000
FFFFF80000000000000000000000
FFFFF80000000000000000000000
FFFFF80000000000000000000000
FFFFF80000000000000000000000
FFFFF80000000000000000000000
FFFFF80000000000000000000000
FFFFF80000000000000000000000
FFFFF80000000000000000000000
FFFFF80000000000000000000000
FFFFF80000000000000000000000
FFFFF80000000000000000000000
FFFFF80000000000000000000000
FFFFF80000000000000000000000
FFFFF80000000000000000000000
FFFFF80000000000000000000000
FFFFF80000000000000000000000
FFFFF80000000000000000000000
FFFFF80000000000000000000000
FFFFF80000000000000000000000
FFFFF80000000000000000000000
FFFFF80000000000000000000000
FFFFF80000000000000000000000
FFFFF80000000000000000000000
FFFFF80000000000000000000000
FFFFF80000000000000000000000
FFFFF80000000000000000000000
FFFFF80000000000000000000000
FFFFF80000000000000000000000
FFFFF80000000000000000000000
FFFFF80000000000000000000000
FFFFF80000000000000000000000
FFFFF80000000000000000000000
FFFFF80000000000000000000000
FFFFF80000000000000000000000
FFFFF80000000000000000000000
FFFFF80000000000000000000000
FFFFF80000000000000000000000
FFFFF80000000000000000000000
FFFFF80000000000000000000000
FFFFF80000000000000000000000
FFFFF80000000000000000000000
FFFFF80000000000000000000000
FFFFF80000000000000000000000
FFFFF80000000000000000000000
FFFFF80000000000000000000000
FFFFF80000000000000000000000
FFFFF80000000000000000000000
FFFFF80000000000000000000000
FFFFF80000000000000000000000
FFFFF80000000000000000000000
FFFFF80000000000000000000000
FFFFF80000000000000000000000
FFFFF80000000000000000000000
FFFFF80000000000000000000000
FFFFF80000000000000000000000
FFFFF80000000000000000000000
FFFFF80000000000000000000000
FFFFF80000000000000000000000
FFFFF80000000000000000000000
FFFFF80000000000000000000000
FFFFF80000000000000000000000
FFFFF80000000000000000000000
FFFFF80000000000000000000000
FFFFF80000000000000000000000
FFFFF80000000000000000000000
FFFFF80000000000000000000000
FFFFF80000000000000000000000
FFFFF80000000000000000000000
FFFFF80000000000000000000000
FFFFFFFFFFFFFFFFFFFFFFFFFF80
FFFFFFFFFFFFFFFFFFFFFFFFFF80
FFFFFFFFFFFFFFFFFFFFFFFFFF80
FFFFFFFFFFFFFFFFFFFFFFFFFF80
FFFFFFFFFFFFFFFFFFFFFFFFFF80
FFFFFFFFFFFFFFFFFFFFFFFFFF80
FFFFFFFFFFFFFFFFFFFFFFFFFF80
FFFFFFFFFFFFFFFFFFFFFFFFFF80
FFFFFFFFFFFFFFFFFFFFFFFFFF80
FFFFFFFFFFFFFFFFFFFFFFFFFF80
FFFFFFFFFFFFFFFFFFFFFFFFFF80
FFFFFFFFFFFFFFFFFFFFFFFFFF80
FFFFFFFFFFFFFFFFFFFFFFFFFF80
FFFFFFFFFFFFFFFFFFFFFFFFFF80
FFFFFFFFFFFFFFFFFFFFFFFFFF80
FFFFFFFFFFFFFFFFFFFFFFFFFF80
FFFFFFFFFFFFFFFFFFFFFFFFFF80
FFFFFFFFFFFFFFFFFFFFFFFFFF80
FFFFFFFFFFFFFFFFFFFFFFFFFF80
FFFFFFFFFFFFFFFFFFFFFFFFFF80
FFFFFFFFFFFFFFFFFFFFFFFFFF80
FFFFFFFFFFFFFFFFFFFFFFFFFF80
ENDCHAR
STARTCHAR M
ENCODING 77
SWIDTH 1115 0
DWIDTH 191 0
BBX 183 126 4 -2
BITMAP
0000000001FC00000000000000000000007F0000000000
0000000007FF8000000000000000000001FFC000000000
000000000FFFC000000000000000000003FFF000000000
000000001FFFE000000000000000000007FFF800000000
000000003FFFF00000000000000000000FFFF800000000
000000007FFFF80000000000000000001FFFFC00000000
000000007FFFF80000000000000000001FFFFC00000000
00000000FFFFFC0000000000000000003FFFFE00000000
00000000FFFFFC0000000000000000003FFFFE00000000
00000000FFFFFE0000000000000000007FFFFE00000000
00000000FFFFFE0000000000000000007FFFFF00000000
00000001FFFFFF0000000000000000007FFFFF00000000
00000001FFFFFF000000000000000000FFFFFF00000000
00000001FFFFFF800000000000000000FFFFFF80000000
00000003FFFFFF800000000000000001FFFFFF80000000
00000003FFFFFF800000000000000001FFFFFF80000000
00000003FFFFFFC00000000000000003FFFFFF80000000
00000003FFFFFFC00000000000000003FFFFFFC0000000
00000007FFFFFFE00000000000000007FFFFFFC0000000
00000007FFFFFFE00000000000000007FFFFFFC0000000
00000007FFFFFFF00000000000000007FFFFFFE0000000
00000007FFFFFFF0000000000000000FFFFFFFE0000000
0000000FFFFFFFF8000000000000000FFFFFFFE0000000
0000000FFFFFFFF8000000000000001FFFFFFFE0000000
0000000FFFFFFFF8000000000000001FFFFFFFF0000000
0000001FFFFFFFFC000000000000003FFFFFFFF0000000
0000001FFFFFFFFC000000000000003FFFFFFFF0000000
0000001FFFFFFFFE000000000000007FFFFFFFF0000000
0000001FFFFFFFFE000000000000007FFFFFFFF8000000
0000003FFFFFFFFF000000000000007FFFFFFFF8000000
0000003FFFFFFFFF00000000000000FFFFFFFFF8000000
0000003FFFFFFFFF80000000000000FFFFFFFFFC000000
0000007FFFFFFFFF80000000000001FFFFFFFFFC000000
0000007FFFFFFFFF80000000000001FFFFFFFFFC000000
0000007FFFFFFFFFC0000000000003FFFFFFFFFC000000
0000007FFFFFFFFFC0000000000003FFFFFFFFFE000000
000000FFFFFFFFFFE0000000000007FFFFFFFFFE000000
000000FFFFFFFFFFE0000000000007FFFFFFFFFE000000
000000FFFFFFFFFFF0000000000007FFFFFFFFFE000000
000000FFFFFBFFFFF000000000000FFFFFBFFFFF000000
000001FFFFFBFFFFF000000000000FFFFFBFFFFF000000
000001FFFFF1FFFFF800000000001FFFFF1FFFFF000000
000001FFFFF1FFFFF800000000001FFFFF1FFFFF800000
000003FFFFF0FFFFFC00000000003FFFFE1FFFFF800000
000003FFFFF0FFFFFC00000000003FFFFE0FFFFF800000
000003FFFFE0FFFFFE00000000007FFFFE0FFFFF800000
000003FFFFE07FFFFE00000000007FFFFC0FFFFFC00000
000007FFFFE07FFFFF00000000007FFFFC0FFFFFC00000
000007FFFFC03FFFFF0000000000FFFFF807FFFFC00000
000007FFFFC03FFFFF0000000000FFFFF807FFFFE00000
00000FFFFFC01FFFFF8000000001FFFFF007FFFFE00000
00000FFFFFC01FFFFF8000000001FFFFF007FFFFE00000
00000FFFFF800FFFFFC000000003FFFFE003FFFFE00000
00000FFFFF800FFFFFC000000003FFFFE003FFFFF00000
00001FFFFF800FFFFFE000000003FFFFE003FFFFF00000
00001FFFFF0007FFFFE000000007FFFFC001FFFFF00000
00001FFFFF0007FFFFF000000007FFFFC001FFFFF00000
00001FFFFF0003FFFFF00000000FFFFF8001FFFFF80000
00003FFFFF0003FFFFF00000000FFFFF8001FFFFF80000
00003FFFFE0001FFFFF80000001FFFFF0000FFFFF80000
00003FFFFE0001FFFFF80000001FFFFF0000FFFFFC0000
00007FFFFE0000FFFFFC0000003FFFFE0000FFFFFC0000
00007FFFFE0000FFFFFC0000003FFFFE0000FFFFFC0000
00007FFFFC0000FFFFFE0000003FFFFE00007FFFFC0000
00007FFFFC00007FFFFE0000007FFFFC00007FFFFE0000
0000FFFFFC00007FFFFF0000007FFFFC00007FFFFE0000
0000FFFFF800003FFFFF000000FFFFF800003FFFFE0000
0000FFFFF800003FFFFF000000FFFFF800003FFFFE0000
0001FFFFF800001FFFFF800001FFFFF000003FFFFF0000
0001FFFFF800001FFFFF800001FFFFF000003FFFFF0000
0001FFFFF000000FFFFFC00003FFFFE000001FFFFF0000
0001FFFFF000000FFFFFC00003FFFFE000001FFFFF8000
0003FFFFF000000FFFFFE00003FFFFE000001FFFFF8000
0003FFFFE0000007FFFFE00007FFFFC000000FFFFF8000
0003FFFFE0000007FFFFF00007FFFFC000000FFFFF8000
0003FFFFE0000003FFFFF0000FFFFF8000000FFFFFC000
0007FFFFE0000003FFFFF0000FFFFF8000000FFFFFC000
0007FFFFC0000001FFFFF8001FFFFF00000007FFFFC000
0007FFFFC0000001FFFFF8001FFFFF00000007FFFFE000
000FFFFFC0000000FFFFFC003FFFFE00000007FFFFE000
000FFFFFC0000000FFFFFC003FFFFE00000007FFFFE000
000FFFFF80000000FFFFFE003FFFFE00000003FFFFE000
000FFFFF800000007FFFFE007FFFFC00000003FFFFF000
001FFFFF800000007FFFFF007FFFFC00000003FFFFF000
001FFFFF000000003FFFFF00FFFFF800000001FFFFF000
001FFFFF000000003FFFFF00FFFFF800000001FFFFF000
003FFFFF000000001FFFFF81FFFFF000000001FFFFF800
003FFFFF000000001FFFFF81FFFFF000000001FFFFF800
003FFFFE000000001FFFFFC3FFFFE000000000FFFFF800
003FFFFE000000000FFFFFC3FFFFE000000000FFFFFC00
007FFFFE000000000FFFFFE3FFFFE000000000FFFFFC00
007FFFFC0000000007FFFFE7FFFFC0000000007FFFFC00
007FFFFC0000000007FFFFE7FFFFC0000000007FFFFC00
007FFFFC0000000003FFFFFFFFFF80000000007FFFFE00
00FFFFFC0000000003FFFFFFFFFF80000000007FFFFE00
00FFFFF80000000001FFFFFFFFFF00000000003FFFFE00
00FFFFF80000000001FFFFFFFFFF00000000003FFFFE00
01FFFFF80000000001FFFFFFFFFE00000000003FFFFF00
01FFFFF80000000000FFFFFFFFFE00000000003FFFFF00
01FFFFF00000000000FFFFFFFFFE00000000001FFFFF00
01FFFFF000000000007FFFFFFFFC00000000001FFFFF80
03FFFFF000000000007FFFFFFFFC00000000001FFFFF80
03FFFFE000000000003FFFFFFFF800000000000FFFFF80
03FFFFE000000000003FFFFFFFF800000000000FFFFF80
03FFFFE000000000001FFFFFFFF000000000000FFFFFC0
07FFFFE000000000001FFFFFFFF000000000000FFFFFC0
07FFFFC000000000001FFFFFFFE0000000000007FFFFC0
07FFFFC000000000000FFFFFFFE0000000000007FFFFE0
0FFFFFC000000000000FFFFFFFE0000000000007FFFFE0
0FFFFFC0000000000007FFFFFFC0000000000003FFFFE0
0FFFFF80000000000007FFFFFFC0000000000003FFFFE0
0FFFFF80000000000003FFFFFF80000000000003FFFFF0
1FFFFF80000000000003FFFFFF80000000000003FFFFF0
1FFFFF00000000000001FFFFFF00000000000001FFFFF0
1FFFFF00000000000001FFFFFF00000000000001FFFFF0
3FFFFF00000000000001FFFFFE00000000000001FFFFF8
3FFFFF00000000000000FFFFFE00000000000001FFFFF8
3FFFFE00000000000000FFFFFE00000000000000FFFFF8
3FFFFE000000000000007FFFFC00000000000000FFFFFC
7FFFFE000000000000007FFFF800000000000000FFFFFC
7FFFFC000000000000003FFFF8000000000000007FFFFC
7FFFFC000000000000001FFFF0000000000000007FFFFC
7FFFFC000000000000000FFFE0000000000000007FFFFE
FFFFFC0000000000000007FFC0000000000000007FFFFE
0000000000000000000003FF0000000000000000000000
0000000000000000000000100000000000000000000000
ENDCHAR
STARTCHAR N
ENCODING 78
SWIDTH 873 0
DWIDTH 149 0
BBX 129 124 10 0
BITMAP
00FE00000000000000000000000FFFFF80
03FF80000000000000000000000FFFFF80
0FFFC0000000000000000000000FFFFF80
1FFFF0000000000000000000000FFFFF80
3FFFF8000000000000000000000FFFFF80
3FFFFC000000000000000000000FFFFF80
7FFFFE000000000000000000000FFFFF80
7FFFFF000000000000000000000FFFFF80
7FFFFF800000000000000000000FFFFF80
FFFFFFC00000000000000000000FFFFF80
FFFFFFE00000000000000000000FFFFF80
FFFFFFF00000000000000000000FFFFF80
FFFFFFF80000000000000000000FFFFF80
FFFFFFFC0000000000000000000FFFFF80
FFFFFFFE0000000000000000000FFFFF80
FFFFFFFF0000000000000000000FFFFF80
FFFFFFFF8000000000000000000FFFFF80
FFFFFFFFC000000000000000000FFFFF80
FFFFFFFFE000000000000000000FFFFF80
FFFFFFFFF000000000000000000FFFFF80
FFFFFFFFF800000000000000000FFFFF80
FFFFFFFFFC00000000000000000FFFFF80
FFFFFFFFFE00000000000000000FFFFF80
FFFFFFFFFF00000000000000000FFFFF80
FFFFFFFFFF80000000000000000FFFFF80
FFFFFFFFFFC0000000000000000FFFFF80
FFFFFFFFFFE0000000000000000FFFFF80
FFFFFFFFFFF0000000000000000FFFFF80
FFFFFFFFFFF8000000000000000FFFFF80
FFFFFFFFFFFC000000000000000FFFFF80
FFFFFFFFFFFE000000000000000FFFFF80
FFFFFFFFFFFF000000000000000FFFFF80
FFFFFFFFFFFF800000000000000FFFFF80
FFFFFFFFFFFFC00000000000000FFFFF80
FFFFFFFFFFFFE00000000000000FFFFF80
FFFFFBFFFFFFF00000000000000FFFFF80
FFFFF9FFFFFFF80000000000000FFFFF80
FFFFF8FFFFFFFC0000000000000FFFFF80
FFFFF87FFFFFFE0000000000000FFFFF80
FFFFF83FFFFFFF0000000000000FFFFF80
FFFFF81FFFFFFFC000000000000FFFFF80
FFFFF80FFFFFFFE000000000000FFFFF80
FFFFF807FFFFFFF000000000000FFFFF80
FFFFF803FFFFFFF800000000000FFFFF80
FFFFF801FFFFFFFC00000000000FFFFF80
FFFFF800FFFFFFFE00000000000FFFFF80
FFFFF8007FFFFFFF00000000000FFFFF80
FFFFF8003FFFFFFF80000000000FFFFF80
FFFFF8001FFFFFFFC0000000000FFFFF80
FFFFF8000FFFFFFFE0000000000FFFFF80
FFFFF80007FFFFFFF0000000000FFFFF80
FFFFF80003FFFFFFF8000000000FFFFF80
FFFFF80001FFFFFFFC000000000FFFFF80
FFFFF80000FFFFFFFE000000000FFFFF80
FFFFF800007FFFFFFF000000000FFFFF80
FFFFF800003FFFFFFF800000000FFFFF80
FFFFF800001FFFFFFFC00000000FFFFF80
FFFFF800000FFFFFFFE00000000FFFFF80
FFFFF8000007FFFFFFF00000000FFFFF80
FFFFF8000003FFFFFFF80000000FFFFF80
FFFFF8000000FFFFFFFC0000000FFFFF80
FFFFF80000007FFFFFFE0000000FFFFF80
FFFFF80000003FFFFFFF0000000FFFFF80
FFFFF80000001FFFFFFF8000000FFFFF80
FFFFF80000000FFFFFFFC000000FFFFF80
FFFFF800000007FFFFFFE000000FFFFF80
FFFFF800000003FFFFFFF000000FFFFF80
FFFFF800000001FFFFFFF800000FFFFF80
FFFFF800000000FFFFFFFC00000FFFFF80
FFFFF8000000007FFFFFFE00000FFFFF80
FFFFF8000000003FFFFFFF00000FFFFF80
FFFFF8000000001FFFFFFF80000FFFFF80
FFFFF8000000000FFFFFFFC0000FFFFF80
FFFFF80000000007FFFFFFE0000FFFFF80
FFFFF80000000003FFFFFFF0000FFFFF80
FFFFF80000000001FFFFFFF8000FFFFF80
FFFFF80000000000FFFFFFFC000FFFFF80
FFFFF800000000007FFFFFFE000FFFFF80
FFFFF800000000003FFFFFFF000FFFFF80
FFFFF800000000001FFFFFFF800FFFFF80
FFFFF800000000000FFFFFFFC00FFFFF80
FFFFF8000000000007FFFFFFE00FFFFF80
FFFFF8000000000003FFFFFFF00FFFFF80
FFFFF8000000000001FFFFFFF80FFFFF80
FFFFF8000000000000FFFFFFFC0FFFFF80
FFFFF80000000000007FFFFFFF0FFFFF80
FFFFF80000000000003FFFFFFF8FFFFF80
FFFFF80000000000001FFFFFFFCFFFFF80
FFFFF80000000000000FFFFFFFEFFFFF80
FFFFF800000000000007FFFFFFFFFFFF80
FFFFF800000000000003FFFFFFFFFFFF80
FFFFF800000000000001FFFFFFFFFFFF80
FFFFF800000000000000FFFFFFFFFFFF80
FFFFF8000000000000007FFFFFFFFFFF80
FFFFF8000000000000001FFFFFFFFFFF80
FFFFF8000000000000000FFFFFFFFFFF80
FFFFF80000000000000007FFFFFFFFFF80
FFFFF80000000000000003FFFFFFFFFF80
FFFFF80000000000000001FFFFFFFFFF80
FFFFF80000000000000000FFFFFFFFFF80
FFFFF800000000000000007FFFFFFFFF80
FFFFF800000000000000003FFFFFFFFF80
FFFFF800000000000000001FFFFFFFFF80
FFFFF800000000000000000FFFFFFFFF80
FFFFF8000000000000000007FFFFFFFF80
FFFFF8000000000000000003FFFFFFFF80
FFFFF8000000000000000001FFFFFFFF80
FFFFF8000000000000000000FFFFFFFF80
FFFFF80000000000000000007FFFFFFF80
FFFFF80000000000000000003FFFFFFF80
FFFFF80000000000000000001FFFFFFF80
FFFFF80000000000000000000FFFFFFF80
FFFFF800000000000000000007FFFFFF80
FFFFF800000000000000000003FFFFFF80
FFFFF800000000000000000001FFFFFF80
FFFFF800000000000000000000FFFFFF80
FFFFF8000000000000000000007FFFFF00
FFFFF8000000000000000000003FFFFF00
FFFFF8000000000000000000001FFFFE00
FFFFF8000000000000000000000FFFFE00
FFFFF80000000000000000000007FFFC00
FFFFF80000000000000000000001FFF800
FFFFF80000000000000000000000FFF000
FFFFF800000000000000000000001FC000
ENDCHAR
STARTCHAR O
ENCODING 79
SWIDTH 968 0
DWIDTH 166 0
BBX 152 124 7 0
BITMAP
0000000000000FFFFFFFFFFFF0000000000000
000000000003FFFFFFFFFFFFFFC00000000000
00000000003FFFFFFFFFFFFFFFFC0000000000
0000000001FFFFFFFFFFFFFFFFFF8000000000
000000000FFFFFFFFFFFFFFFFFFFF000000000
000000003FFFFFFFFFFFFFFFFFFFFC00000000
00000000FFFFFFFFFFFFFFFFFFFFFF00000000
00000003FFFFFFFFFFFFFFFFFFFFFFC0000000
0000000FFFFFFFFFFFFFFFFFFFFFFFF0000000
0000003FFFFFFFFFFFFFFFFFFFFFFFFC000000
0000007FFFFFFFFFFFFFFFFFFFFFFFFE000000
000001FFFFFFFFFFFFFFFFFFFFFFFFFF000000
000003FFFFFFFFFFFFFFFFFFFFFFFFFFC00000
000007FFFFFFFFFFFFFFFFFFFFFFFFFFE00000
00000FFFFFFFFFFFFFFFFFFFFFFFFFFFF00000
00001FFFFFFFFFFFFFFFFFFFFFFFFFFFF80000
00007FFFFFFFFFFFFFFFFFFFFFFFFFFFFC0000
0000FFFFFFFFFFFFFFFFFFFFFFFFFFFFFE0000
0000FFFFFFFFFFFFFFFFFFFFFFFFFFFFFF0000
0001FFFFFFFFFFFFFFFFFFFFFFFFFFFFFF8000
0003FFFFFFFFFFFFFFFFFFFFFFFFFFFFFFC000
0007FFFFFFFFFFFFFFFFFFFFFFFFFFFFFFE000
000FFFFFFFFFF000000000001FFFFFFFFFF000
001FFFFFFFFF00000000000001FFFFFFFFF000
001FFFFFFFF8000000000000003FFFFFFFF800
003FFFFFFFE0000000000000000FFFFFFFFC00
007FFFFFFF800000000000000003FFFFFFFC00
007FFFFFFF000000000000000000FFFFFFFE00
00FFFFFFFC0000000000000000003FFFFFFF00
00FFFFFFF80000000000000000001FFFFFFF00
01FFFFFFE00000000000000000000FFFFFFF80
01FFFFFFC000000000000000000007FFFFFF80
03FFFFFF8000000000000000000003FFFFFFC0
03FFFFFF0000000000000000000001FFFFFFC0
07FFFFFE0000000000000000000000FFFFFFE0
07FFFFFE00000000000000000000007FFFFFE0
0FFFFFFC00000000000000000000003FFFFFE0
0FFFFFF800000000000000000000001FFFFFF0
0FFFFFF000000000000000000000001FFFFFF0
1FFFFFF000000000000000000000000FFFFFF0
1FFFFFE0000000000000000000000007FFFFF8
1FFFFFE0000000000000000000000007FFFFF8
3FFFFFC0000000000000000000000003FFFFF8
3FFFFFC0000000000000000000000003FFFFFC
3FFFFF80000000000000000000000001FFFFFC
3FFFFF80000000000000000000000001FFFFFC
3FFFFF00000000000000000000000001FFFFFC
7FFFFF00000000000000000000000000FFFFFE
7FFFFF00000000000000000000000000FFFFFE
7FFFFE00000000000000000000000000FFFFFE
7FFFFE000000000000000000000000007FFFFE
7FFFFE000000000000000000000000007FFFFE
7FFFFE000000000000000000000000007FFFFE
FFFFFE000000000000000000000000007FFFFE
FFFFFC000000000000000000000000007FFFFE
FFFFFC000000000000000000000000003FFFFE
FFFFFC000000000000000000000000003FFFFF
FFFFFC000000000000000000000000003FFFFF
FFFFFC000000000000000000000000003FFFFF
FFFFFC000000000000000000000000003FFFFF
FFFFFC000000000000000000000000003FFFFF
FFFFFC000000000000000000000000003FFFFF
FFFFFC000000000000000000000000003FFFFF
FFFFFC000000000000000000000000003FFFFF
FFFFFC000000000000000000000000003FFFFF
FFFFFC000000000000000000000000003FFFFF
FFFFFC000000000000000000000000003FFFFE
FFFFFC000000000000000000000000003FFFFE
7FFFFC000000000000000000000000007FFFFE
7FFFFE000000000000000000000000007FFFFE
7FFFFE000000000000000000000000007FFFFE
7FFFFE000000000000000000000000007FFFFE
7FFFFE000000000000000000000000007FFFFE
7FFFFE00000000000000000000000000FFFFFE
7FFFFF00000000000000000000000000FFFFFC
3FFFFF00000000000000000000000000FFFFFC
3FFFFF00000000000000000000000000FFFFFC
3FFFFF80000000000000000000000001FFFFFC
3FFFFF80000000000000000000000001FFFFFC
1FFFFF80000000000000000000000003FFFFF8
1FFFFFC0000000000000000000000003FFFFF8
1FFFFFC0000000000000000000000007FFFFF8
0FFFFFE0000000000000000000000007FFFFF0
0FFFFFE000000000000000000000000FFFFFF0
0FFFFFF000000000000000000000000FFFFFF0
07FFFFF800000000000000000000001FFFFFE0
07FFFFF800000000000000000000001FFFFFE0
07FFFFFC00000000000000000000003FFFFFC0
03FFFFFE00000000000000000000007FFFFFC0
03FFFFFF0000000000000000000000FFFFFFC0
01FFFFFF8000000000000000000001FFFFFF80
01FFFFFFC000000000000000000003FFFFFF80
00FFFFFFE000000000000000000007FFFFFF00
00FFFFFFF00000000000000000000FFFFFFF00
007FFFFFF80000000000000000001FFFFFFE00
007FFFFFFC0000000000000000007FFFFFFC00
003FFFFFFF000000000000000000FFFFFFFC00
001FFFFFFF800000000000000003FFFFFFF800
001FFFFFFFE0000000000000000FFFFFFFF000
000FFFFFFFFC000000000000003FFFFFFFF000
0007FFFFFFFF00000000000001FFFFFFFFE000
0003FFFFFFFFF000000000001FFFFFFFFFC000
0003FFFFFFFFFFFFFFFFFFFFFFFFFFFFFFC000
0001FFFFFFFFFFFFFFFFFFFFFFFFFFFFFF8000
0000FFFFFFFFFFFFFFFFFFFFFFFFFFFFFF0000
00007FFFFFFFFFFFFFFFFFFFFFFFFFFFFE0000
00003FFFFFFFFFFFFFFFFFFFFFFFFFFFFC0000
00001FFFFFFFFFFFFFFFFFFFFFFFFFFFF80000
00000FFFFFFFFFFFFFFFFFFFFFFFFFFFF00000
000007FFFFFFFFFFFFFFFFFFFFFFFFFFE00000
000003FFFFFFFFFFFFFFFFFFFFFFFFFFC00000
000000FFFFFFFFFFFFFFFFFFFFFFFFFF000000
0000007FFFFFFFFFFFFFFFFFFFFFFFFE000000
0000003FFFFFFFFFFFFFFFFFFFFFFFF8000000
0000000FFFFFFFFFFFFFFFFFFFFFFFF0000000
00000007FFFFFFFFFFFFFFFFFFFFFFC0000000
00000001FFFFFFFFFFFFFFFFFFFFFF80000000
000000007FFFFFFFFFFFFFFFFFFFFE00000000
000000001FFFFFFFFFFFFFFFFFFFF800000000
0000000007FFFFFFFFFFFFFFFFFFC000000000
0000000000FFFFFFFFFFFFFFFFFF0000000000
00000000001FFFFFFFFFFFFFFFF80000000000
000000000001FFFFFFFFFFFFFF800000000000
0000000000000FFFFFFFFFFFE0000000000000
ENDCHAR
STARTCHAR P
ENCODING 80
SWIDTH 867 0
DWIDTH 148 0
BBX 133 124 11 0
BITMAP
FFFFFFFFFFFFFFFFFFFFFFFE0000000000
FFFFFFFFFFFFFFFFFFFFFFFFF800000000
FFFFFFFFFFFFFFFFFFFFFFFFFF00000000
FFFFFFFFFFFFFFFFFFFFFFFFFFE0000000
FFFFFFFFFFFFFFFFFFFFFFFFFFFC000000
FFFFFFFFFFFFFFFFFFFFFFFFFFFF000000
FFFFFFFFFFFFFFFFFFFFFFFFFFFF800000
FFFFFFFFFFFFFFFFFFFFFFFFFFFFE00000
FFFFFFFFFFFFFFFFFFFFFFFFFFFFF00000
FFFFFFFFFFFFFFFFFFFFFFFFFFFFFC0000
FFFFFFFFFFFFFFFFFFFFFFFFFFFFFE0000
FFFFFFFFFFFFFFFFFFFFFFFFFFFFFF0000
FFFFFFFFFFFFFFFFFFFFFFFFFFFFFF8000
FFFFFFFFFFFFFFFFFFFFFFFFFFFFFFC000
FFFFFFFFFFFFFFFFFFFFFFFFFFFFFFE000
FFFFFFFFFFFFFFFFFFFFFFFFFFFFFFF000
FFFFFFFFFFFFFFFFFFFFFFFFFFFFFFF000
FFFFFFFFFFFFFFFFFFFFFFFFFFFFFFF800
FFFFFFFFFFFFFFFFFFFFFFFFFFFFFFFC00
FFFFFFFFFFFFFFFFFFFFFFFFFFFFFFFC00
FFFFFFFFFFFFFFFFFFFFFFFFFFFFFFFE00
FFFFFFFFFFFFFFFFFFFFFFFFFFFFFFFF00
FFFFF8000000000000000001FFFFFFFF00
FFFFF80000000000000000003FFFFFFF80
FFFFF80000000000000000000FFFFFFF80
FFFFF800000000000000000003FFFFFF80
FFFFF800000000000000000001FFFFFFC0
FFFFF800000000000000000000FFFFFFC0
FFFFF8000000000000000000007FFFFFC0
FFFFF8000000000000000000003FFFFFE0
FFFFF8000000000000000000001FFFFFE0
FFFFF8000000000000000000000FFFFFE0
FFFFF8000000000000000000000FFFFFE0
FFFFF80000000000000000000007FFFFF0
FFFFF80000000000000000000007FFFFF0
FFFFF80000000000000000000003FFFFF0
FFFFF80000000000000000000003FFFFF0
FFFFF80000000000000000000003FFFFF0
FFFFF80000000000000000000001FFFFF0
FFFFF80000000000000000000001FFFFF0
FFFFF80000000000000000000001FFFFF0
FFFFF80000000000000000000001FFFFF8
FFFFF80000000000000000000001FFFFF8
FFFFF80000000000000000000001FFFFF8
FFFFF80000000000000000000001FFFFF8
FFFFF80000000000000000000001FFFFF8
FFFFF80000000000000000000001FFFFF8
FFFFF80000000000000000000001FFFFF8
FFFFF80000000000000000000001FFFFF8
FFFFF80000000000000000000001FFFFF0
FFFFF80000000000000000000001FFFFF0
FFFFF80000000000000000000001FFFFF0
FFFFF80000000000000000000001FFFFF0
FFFFF80000000000000000000003FFFFF0
FFFFF80000000000000000000003FFFFF0
FFFFF80000000000000000000003FFFFF0
FFFFF80000000000000000000007FFFFE0
FFFFF80000000000000000000007FFFFE0
FFFFF8000000000000000000000FFFFFE0
FFFFF8000000000000000000001FFFFFE0
FFFFF8000000000000000000001FFFFFC0
FFFFF8000000000000000000003FFFFFC0
FFFFF8000000000000000000007FFFFFC0
FFFFF800000000000000000000FFFFFF80
FFFFF800000000000000000001FFFFFF80
FFFFF800000000000000000007FFFFFF80
FFFFF80000000000000000001FFFFFFF00
FFFFF80000000000000000007FFFFFFF00
FFFFF8000000000000000007FFFFFFFE00
FFFFF80007FFFFFFFFFFFFFFFFFFFFFE00
FFFFF80007FFFFFFFFFFFFFFFFFFFFFC00
FFFFF80007FFFFFFFFFFFFFFFFFFFFF800
FFFFF80007FFFFFFFFFFFFFFFFFFFFF800
FFFFF80007FFFFFFFFFFFFFFFFFFFFF000
FFFFF80007FFFFFFFFFFFFFFFFFFFFE000
FFFFF80007FFFFFFFFFFFFFFFFFFFFC000
FFFFF80007FFFFFFFFFFFFFFFFFFFF8000
FFFFF80007FFFFFFFFFFFFFFFFFFFF0000
FFFFF80007FFFFFFFFFFFFFFFFFFFE0000
FFFFF80007FFFFFFFFFFFFFFFFFFFC0000
FFFFF80007FFFFFFFFFFFFFFFFFFF80000
FFFFF80007FFFFFFFFFFFFFFFFFFF00000
FFFFF80007FFFFFFFFFFFFFFFFFFC00000
FFFFF80007FFFFFFFFFFFFFFFFFF800000
FFFFF80007FFFFFFFFFFFFFFFFFE000000
FFFFF80007FFFFFFFFFFFFFFFFF8000000
FFFFF80007FFFFFFFFFFFFFFFFE0000000
FFFFF80007FFFFFFFFFFFFFFFF00000000
FFFFF80007FFFFFFFFFFFFFFF000000000
FFFFF80007FFFFFFFFFFFFFE0000000000
FFFFF80000000000000000000000000000
FFFFF80000000000000000000000000000
FFFFF80000000000000000000000000000
FFFFF80000000000000000000000000000
FFFFF80000000000000000000000000000
FFFFF80000000000000000000000000000
FFFFF80000000000000000000000000000
FFFFF80000000000000000000000000000
FFFFF80000000000000000000000000000
FFFFF80000000000000000000000000000
FFFFF80000000000000000000000000000
FFFFF80000000000000000000000000000
FFFFF80000000000000000000000000000
FFFFF80000000000000000000000000000
FFFFF80000000000000000000000000000
FFFFF80000000000000000000000000000
FFFFF80000000000000000000000000000
FFFFF80000000000000000000000000000
FFFFF80000000000000000000000000000
FFFFF80000000000000000000000000000
FFFFF80000000000000000000000000000
FFFFF80000000000000000000000000000
FFFFF80000000000000000000000000000
FFFFF80000000000000000000000000000
FFFFF80000000000000000000000000000
FFFFF80000000000000000000000000000
FFFFF80000000000000000000000000000
FFFFF80000000000000000000000000000
FFFFF80000000000000000000000000000
FFFFF80000000000000000000000000000
FFFFF80000000000000000000000000000
FFFFF80000000000000000000000000000
FFFFF80000000000000000000000000000
FFFFF80000000000000000000000000000
ENDCHAR
STARTCHAR Q
ENCODING 81
SWIDTH 968 0
DWIDTH 166 0
BBX 158 124 7 0
BITMAP
0000000000000FFFFFFFFFFFF000000000000000
000000000003FFFFFFFFFFFFFFC0000000000000
00000000003FFFFFFFFFFFFFFFFC000000000000
0000000001FFFFFFFFFFFFFFFFFF800000000000
000000000FFFFFFFFFFFFFFFFFFFF00000000000
000000003FFFFFFFFFFFFFFFFFFFFC0000000000
00000000FFFFFFFFFFFFFFFFFFFFFF0000000000
00000003FFFFFFFFFFFFFFFFFFFFFFC000000000
0000000FFFFFFFFFFFFFFFFFFFFFFFF000000000
0000003FFFFFFFFFFFFFFFFFFFFFFFFC00000000
0000007FFFFFFFFFFFFFFFFFFFFFFFFE00000000
000001FFFFFFFFFFFFFFFFFFFFFFFFFF00000000
000003FFFFFFFFFFFFFFFFFFFFFFFFFFC0000000
000007FFFFFFFFFFFFFFFFFFFFFFFFFFE0000000
00000FFFFFFFFFFFFFFFFFFFFFFFFFFFF0000000
00001FFFFFFFFFFFFFFFFFFFFFFFFFFFF8000000
00007FFFFFFFFFFFFFFFFFFFFFFFFFFFFC000000
0000FFFFFFFFFFFFFFFFFFFFFFFFFFFFFE000000
0000FFFFFFFFFFFFFFFFFFFFFFFFFFFFFF000000
0001FFFFFFFFFFFFFFFFFFFFFFFFFFFFFF800000
0003FFFFFFFFFFFFFFFFFFFFFFFFFFFFFFC00000
0007FFFFFFFFFFFFFFFFFFFFFFFFFFFFFFE00000
000FFFFFFFFFF000000000001FFFFFFFFFF00000
001FFFFFFFFF00000000000001FFFFFFFFF00000
001FFFFFFFF8000000000000003FFFFFFFF80000
003FFFFFFFE0000000000000000FFFFFFFFC0000
007FFFFFFF800000000000000003FFFFFFFC0000
007FFFFFFF000000000000000000FFFFFFFE0000
00FFFFFFFC0000000000000000003FFFFFFF0000
00FFFFFFF80000000000000000001FFFFFFF0000
01FFFFFFE00000000000000000000FFFFFFF8000
01FFFFFFC000000000000000000007FFFFFF8000
03FFFFFF8000000000000000000003FFFFFFC000
03FFFFFF0000000000000000000001FFFFFFC000
07FFFFFE0000000000000000000000FFFFFFE000
07FFFFFE00000000000000000000007FFFFFE000
0FFFFFFC00000000000000000000003FFFFFE000
0FFFFFF800000000000000000000001FFFFFF000
0FFFFFF000000000000000000000001FFFFFF000
1FFFFFF000000000000000000000000FFFFFF000
1FFFFFE0000000000000000000000007FFFFF800
1FFFFFE0000000000000000000000007FFFFF800
3FFFFFC0000000000000000000000003FFFFF800
3FFFFFC0000000000000000000000003FFFFFC00
3FFFFF80000000000000000000000001FFFFFC00
3FFFFF80000000000000000000000001FFFFFC00
3FFFFF00000000000000000000000001FFFFFC00
7FFFFF00000000000000000000000000FFFFFE00
7FFFFF00000000000000000000000000FFFFFE00
7FFFFE00000000000000000000000000FFFFFE00
7FFFFE000000000000000000000000007FFFFE00
7FFFFE000000000000000000000000007FFFFE00
7FFFFE000000000000000000000000007FFFFE00
FFFFFE000000000000000000000000007FFFFE00
FFFFFC000000000000000000000000007FFFFE00
FFFFFC000000000000000000000000003FFFFE00
FFFFFC000000000000000000000000003FFFFF00
FFFFFC000000000000000000000000003FFFFF00
FFFFFC000000000000000000000000003FFFFF00
FFFFFC000000000000000000000000003FFFFF00
FFFFFC000000000000000000000000003FFFFF00
FFFFFC000000000000000000000000003FFFFF00
FFFFFC000000000000000000000000003FFFFF00
FFFFFC000000000000000000000000003FFFFF00
FFFFFC000000000000000000000000003FFFFF00
FFFFFC000000000000000000000000003FFFFF00
FFFFFC000000000000000000000000003FFFFE00
FFFFFC000000000000000000000000003FFFFE00
7FFFFC000000000000000000000000007FFFFE00
7FFFFE000000000000000000000000007FFFFE00
7FFFFE000000000000000000000000007FFFFE00
7FFFFE000000000000000000000000007FFFFE00
7FFFFE000000000000000000000000007FFFFE00
7FFFFE00000000003FFFFFFE00000000FFFFFE00
7FFFFF00000000000FFFFFFF00000000FFFFFC00
3FFFFF000000000007FFFFFFC0000000FFFFFC00
3FFFFF000000000003FFFFFFE0000000FFFFFC00
3FFFFF800000000000FFFFFFF0000001FFFFFC00
3FFFFF8000000000007FFFFFF8000001FFFFFC00
1FFFFF8000000000003FFFFFFC000003FFFFF800
1FFFFFC000000000001FFFFFFF000003FFFFF800
1FFFFFC0000000000007FFFFFF800007FFFFF800
0FFFFFE0000000000003FFFFFFC00007FFFFF000
0FFFFFE0000000000001FFFFFFE0000FFFFFF000
0FFFFFF00000000000007FFFFFF0000FFFFFF000
07FFFFF80000000000003FFFFFF8001FFFFFE000
07FFFFF80000000000001FFFFFFE003FFFFFE000
07FFFFFC0000000000000FFFFFFF003FFFFFC000
03FFFFFE00000000000003FFFFFF807FFFFFC000
03FFFFFF00000000000001FFFFFFC0FFFFFFC000
01FFFFFF80000000000000FFFFFFE1FFFFFF8000
01FFFFFFC00000000000003FFFFFFBFFFFFF8000
00FFFFFFE00000000000001FFFFFFFFFFFFF0000
00FFFFFFF00000000000000FFFFFFFFFFFFF0000
007FFFFFF800000000000007FFFFFFFFFFFE0000
007FFFFFFC00000000000001FFFFFFFFFFFC0000
003FFFFFFF00000000000000FFFFFFFFFFFC0000
001FFFFFFF800000000000007FFFFFFFFFF80000
001FFFFFFFE00000000000003FFFFFFFFFF80000
000FFFFFFFFC0000000000000FFFFFFFFFF00000
0007FFFFFFFF00000000000007FFFFFFFFE00000
0003FFFFFFFFF000000000001FFFFFFFFFC00000
0003FFFFFFFFFFFFFFFFFFFFFFFFFFFFFF800000
0001FFFFFFFFFFFFFFFFFFFFFFFFFFFFFF800000
0000FFFFFFFFFFFFFFFFFFFFFFFFFFFFFF000000
00007FFFFFFFFFFFFFFFFFFFFFFFFFFFFE000000
00003FFFFFFFFFFFFFFFFFFFFFFFFFFFFE000000
00001FFFFFFFFFFFFFFFFFFFFFFFFFFFFF800000
00000FFFFFFFFFFFFFFFFFFFFFFFFFFFFFC00000
000007FFFFFFFFFFFFFFFFFFFFFFFFFFFFE00000
000003FFFFFFFFFFFFFFFFFFFFFFFFFFFFF00000
000000FFFFFFFFFFFFFFFFFFFFFFFFFFFFFC0000
0000007FFFFFFFFFFFFFFFFFFFFFFFFFFFFE0000
0000003FFFFFFFFFFFFFFFFFFFFFFFFFFFFF0000
0000000FFFFFFFFFFFFFFFFFFFFFFFFFFFFFC000
00000007FFFFFFFFFFFFFFFFFFFFFFFFFFFFE000
00000001FFFFFFFFFFFFFFFFFFFFFFFFFFFFF000
000000007FFFFFFFFFFFFFFFFFFFFE7FFFFFF800
000000001FFFFFFFFFFFFFFFFFFFF81FFFFFFE00
0000000007FFFFFFFFFFFFFFFFFFC00FFFFFFF00
0000000000FFFFFFFFFFFFFFFFFE0007FFFFFF80
00000000001FFFFFFFFFFFFFFFF00003FFFFFFE0
000000000001FFFFFFFFFFFFFF800001FFFFFFF0
0000000000000FFFFFFFFFFFE0000000FFFFFFFC
ENDCHAR
STARTCHAR R
ENCODING 82
SWIDTH 921 0
DWIDTH 157 0
BBX 146 124 11 0
BITMAP
FFFFFFFFFFFFFFFFFFFFFFFF80000000000000
FFFFFFFFFFFFFFFFFFFFFFFFFE000000000000
FFFFFFFFFFFFFFFFFFFFFFFFFFC00000000000
FFFFFFFFFFFFFFFFFFFFFFFFFFF80000000000
FFFFFFFFFFFFFFFFFFFFFFFFFFFE0000000000
FFFFFFFFFFFFFFFFFFFFFFFFFFFF8000000000
FFFFFFFFFFFFFFFFFFFFFFFFFFFFE000000000
FFFFFFFFFFFFFFFFFFFFFFFFFFFFF800000000
FFFFFFFFFFFFFFFFFFFFFFFFFFFFFC00000000
FFFFFFFFFFFFFFFFFFFFFFFFFFFFFE00000000
FFFFFFFFFFFFFFFFFFFFFFFFFFFFFF00000000
FFFFFFFFFFFFFFFFFFFFFFFFFFFFFFC0000000
FFFFFFFFFFFFFFFFFFFFFFFFFFFFFFE0000000
FFFFFFFFFFFFFFFFFFFFFFFFFFFFFFF0000000
FFFFFFFFFFFFFFFFFFFFFFFFFFFFFFF0000000
FFFFFFFFFFFFFFFFFFFFFFFFFFFFFFF8000000
FFFFFFFFFFFFFFFFFFFFFFFFFFFFFFFC000000
FFFFFFFFFFFFFFFFFFFFFFFFFFFFFFFE000000
FFFFFFFFFFFFFFFFFFFFFFFFFFFFFFFE000000
FFFFFFFFFFFFFFFFFFFFFFFFFFFFFFFF000000
FFFFFFFFFFFFFFFFFFFFFFFFFFFFFFFF000000
FFFFFFFFFFFFFFFFFFFFFFFFFFFFFFFF800000
FFFFF80000000000000000007FFFFFFF800000
FFFFF80000000000000000000FFFFFFFC00000
FFFFF800000000000000000003FFFFFFC00000
FFFFF800000000000000000000FFFFFFE00000
FFFFF8000000000000000000007FFFFFE00000
FFFFF8000000000000000000001FFFFFF00000
FFFFF8000000000000000000000FFFFFF00000
FFFFF8000000000000000000000FFFFFF00000
FFFFF80000000000000000000007FFFFF00000
FFFFF80000000000000000000003FFFFF80000
FFFFF80000000000000000000003FFFFF80000
FFFFF80000000000000000000001FFFFF80000
FFFFF80000000000000000000001FFFFF80000
FFFFF80000000000000000000001FFFFF80000
FFFFF80000000000000000000000FFFFFC0000
FFFFF80000000000000000000000FFFFFC0000
FFFFF80000000000000000000000FFFFFC0000
FFFFF80000000000000000000000FFFFFC0000
FFFFF80000000000000000000000FFFFFC0000
FFFFF800000000000000000000007FFFFC0000
FFFFF800000000000000000000007FFFFC0000
FFFFF800000000000000000000007FFFFC0000
FFFFF800000000000000000000007FFFFC0000
FFFFF800000000000000000000007FFFFC0000
FFFFF800000000000000000000007FFFFC0000
FFFFF800000000000000000000007FFFFC0000
FFFFF800000000000000000000007FFFFC0000
FFFFF800000000000000000000007FFFFC0000
FFFFF80000000000000000000000FFFFFC0000
FFFFF80000000000000000000000FFFFFC0000
FFFFF80000000000000000000000FFFFFC0000
FFFFF80000000000000000000000FFFFFC0000
FFFFF80000000000000000000000FFFFF80000
FFFFF80000000000000000000001FFFFF80000
FFFFF80000000000000000000001FFFFF80000
FFFFF80000000000000000000001FFFFF80000
FFFFF80000000000000000000003FFFFF80000
FFFFF80000000000000000000003FFFFF00000
FFFFF80000000000000000000007FFFFF00000
FFFFF80000000000000000000007FFFFF00000
FFFFF8000000000000000000000FFFFFE00000
FFFFF8000000000000000000001FFFFFE00000
FFFFF8000000000000000000003FFFFFE00000
FFFFF8000000000000000000007FFFFFC00000
FFFFF800000000000000000001FFFFFFC00000
FFFFF800000000000000000003FFFFFF800000
FFFFF80000000000000000001FFFFFFF800000
FFFFF8000000000000000001FFFFFFFF000000
FFFFF80007FFFFFFFFFFFFFFFFFFFFFF000000
FFFFF80007FFFFFFFFFFFFFFFFFFFFFE000000
FFFFF80007FFFFFFFFFFFFFFFFFFFFFC000000
FFFFF80007FFFFFFFFFFFFFFFFFFFFF8000000
FFFFF80007FFFFFFFFFFFFFFFFFFFFF8000000
FFFFF80007FFFFFFFFFFFFFFFFFFFFF0000000
FFFFF80007FFFFFFFFFFFFFFFFFFFFE0000000
FFFFF80007FFFFFFFFFFFFFFFFFFFFC0000000
FFFFF80007FFFFFFFFFFFFFFFFFFFF80000000
FFFFF80007FFFFFFFFFFFFFFFFFFFF00000000
FFFFF80007FFFFFFFFFFFFFFFFFFFC00000000
FFFFF80007FFFFFFFFFFFFFFFFFFF800000000
FFFFF80007FFFFFFFFFFFFFFFFFFE000000000
FFFFF80007FFFFFFFFFFFFFFFFFFC000000000
FFFFF80007FFFFFFFFFFFFFFFFFF0000000000
FFFFF80007FFFFFFFFFFFFFFFFF80000000000
FFFFF80007FFFFFFFFFFFFFFFFF80000000000
FFFFF80007FFFFFFFFFFFFFFFFFC0000000000
FFFFF80007FFFFFFFFFFFFFFFFFE0000000000
FFFFF8000000000000000FFFFFFF0000000000
FFFFF80000000000000007FFFFFF8000000000
FFFFF80000000000000003FFFFFFC000000000
FFFFF80000000000000001FFFFFFE000000000
FFFFF80000000000000000FFFFFFF000000000
FFFFF800000000000000007FFFFFF800000000
FFFFF800000000000000003FFFFFFC00000000
FFFFF800000000000000003FFFFFFE00000000
FFFFF800000000000000001FFFFFFF00000000
FFFFF800000000000000000FFFFFFF80000000
FFFFF8000000000000000007FFFFFFC0000000
FFFFF8000000000000000003FFFFFFE0000000
FFFFF8000000000000000001FFFFFFF0000000
FFFFF8000000000000000000FFFFFFF8000000
FFFFF80000000000000000007FFFFFFC000000
FFFFF80000000000000000003FFFFFFE000000
FFFFF80000000000000000001FFFFFFF000000
FFFFF80000000000000000001FFFFFFF800000
FFFFF80000000000000000000FFFFFFFC00000
FFFFF800000000000000000007FFFFFFE00000
FFFFF800000000000000000003FFFFFFF00000
FFFFF800000000000000000001FFFFFFF80000
FFFFF800000000000000000000FFFFFFFC0000
FFFFF8000000000000000000007FFFFFFE0000
FFFFF8000000000000000000003FFFFFFF0000
FFFFF8000000000000000000001FFFFFFF8000
FFFFF8000000000000000000000FFFFFFFC000
FFFFF8000000000000000000000FFFFFFFE000
FFFFF80000000000000000000007FFFFFFF000
FFFFF80000000000000000000003FFFFFFF800
FFFFF80000000000000000000001FFFFFFFC00
FFFFF80000000000000000000000FFFFFFFE00
FFFFF800000000000000000000007FFFFFFF00
FFFFF800000000000000000000003FFFFFFF80
FFFFF800000000000000000000001FFFFFFFC0
ENDCHAR
STARTCHAR S
ENCODING 83
SWIDTH 880 0
DWIDTH 150 0
BBX 134 124 9 0
BITMAP
00000001FFFFFFFFFFFFFFFFFFFFFFFE00
0000007FFFFFFFFFFFFFFFFFFFFFFFFE00
000003FFFFFFFFFFFFFFFFFFFFFFFFFE00
00000FFFFFFFFFFFFFFFFFFFFFFFFFFE00
00007FFFFFFFFFFFFFFFFFFFFFFFFFFE00
0000FFFFFFFFFFFFFFFFFFFFFFFFFFFE00
0003FFFFFFFFFFFFFFFFFFFFFFFFFFFE00
0007FFFFFFFFFFFFFFFFFFFFFFFFFFFE00
001FFFFFFFFFFFFFFFFFFFFFFFFFFFFE00
003FFFFFFFFFFFFFFFFFFFFFFFFFFFFE00
007FFFFFFFFFFFFFFFFFFFFFFFFFFFFE00
00FFFFFFFFFFFFFFFFFFFFFFFFFFFFFE00
01FFFFFFFFFFFFFFFFFFFFFFFFFFFFFE00
03FFFFFFFFFFFFFFFFFFFFFFFFFFFFFE00
03FFFFFFFFFFFFFFFFFFFFFFFFFFFFFE00
07FFFFFFFFFFFFFFFFFFFFFFFFFFFFFE00
0FFFFFFFFFFFFFFFFFFFFFFFFFFFFFFE00
0FFFFFFFFFFFFFFFFFFFFFFFFFFFFFFE00
1FFFFFFFFFFFFFFFFFFFFFFFFFFFFFFE00
1FFFFFFFFFFFFFFFFFFFFFFFFFFFFFFE00
3FFFFFFFFFFFFFFFFFFFFFFFFFFFFFFE00
3FFFFFFFFFFFFFFFFFFFFFFFFFFFFFFE00
3FFFFFFF00000000000000000000000000
7FFFFFFC00000000000000000000000000
7FFFFFF000000000000000000000000000
7FFFFFE000000000000000000000000000
7FFFFFC000000000000000000000000000
FFFFFF8000000000000000000000000000
FFFFFF0000000000000000000000000000
FFFFFF0000000000000000000000000000
FFFFFF0000000000000000000000000000
FFFFFE0000000000000000000000000000
FFFFFE0000000000000000000000000000
FFFFFE0000000000000000000000000000
FFFFFE0000000000000000000000000000
FFFFFE0000000000000000000000000000
FFFFFC0000000000000000000000000000
FFFFFC0000000000000000000000000000
FFFFFE0000000000000000000000000000
FFFFFE0000000000000000000000000000
FFFFFE0000000000000000000000000000
FFFFFE0000000000000000000000000000
7FFFFE0000000000000000000000000000
7FFFFF0000000000000000000000000000
7FFFFF0000000000000000000000000000
7FFFFF8000000000000000000000000000
3FFFFF8000000000000000000000000000
3FFFFFC000000000000000000000000000
3FFFFFE000000000000000000000000000
1FFFFFF000000000000000000000000000
1FFFFFFC00000000000000000000000000
0FFFFFFF80000000000000000000000000
0FFFFFFFFFFFFFFFFFFFFFFFFE00000000
07FFFFFFFFFFFFFFFFFFFFFFFFF8000000
07FFFFFFFFFFFFFFFFFFFFFFFFFF800000
03FFFFFFFFFFFFFFFFFFFFFFFFFFE00000
01FFFFFFFFFFFFFFFFFFFFFFFFFFF80000
00FFFFFFFFFFFFFFFFFFFFFFFFFFFE0000
007FFFFFFFFFFFFFFFFFFFFFFFFFFF8000
007FFFFFFFFFFFFFFFFFFFFFFFFFFFC000
001FFFFFFFFFFFFFFFFFFFFFFFFFFFE000
000FFFFFFFFFFFFFFFFFFFFFFFFFFFF000
0007FFFFFFFFFFFFFFFFFFFFFFFFFFF800
0003FFFFFFFFFFFFFFFFFFFFFFFFFFFC00
0000FFFFFFFFFFFFFFFFFFFFFFFFFFFE00
00003FFFFFFFFFFFFFFFFFFFFFFFFFFF00
00000FFFFFFFFFFFFFFFFFFFFFFFFFFF00
000003FFFFFFFFFFFFFFFFFFFFFFFFFF80
0000003FFFFFFFFFFFFFFFFFFFFFFFFFC0
00000001FFFFFFFFFFFFFFFFFFFFFFFFC0
0000000000000000000000000FFFFFFFE0
00000000000000000000000000FFFFFFE0
000000000000000000000000003FFFFFE0
000000000000000000000000000FFFFFF0
0000000000000000000000000007FFFFF0
0000000000000000000000000003FFFFF0
0000000000000000000000000001FFFFF0
0000000000000000000000000001FFFFF8
0000000000000000000000000000FFFFF8
0000000000000000000000000000FFFFF8
0000000000000000000000000000FFFFF8
00000000000000000000000000007FFFF8
00000000000000000000000000007FFFF8
00000000000000000000000000007FFFF8
00000000000000000000000000007FFFFC
00000000000000000000000000007FFFFC
00000000000000000000000000007FFFFC
00000000000000000000000000007FFFFC
00000000000000000000000000007FFFFC
00000000000000000000000000007FFFFC
00000000000000000000000000007FFFFC
0000000000000000000000000000FFFFF8
0000000000000000000000000000FFFFF8
0000000000000000000000000000FFFFF8
0000000000000000000000000001FFFFF8
0000000000000000000000000003FFFFF8
0000000000000000000000000003FFFFF8
0000000000000000000000000007FFFFF8
000000000000000000000000000FFFFFF0
000000000000000000000000003FFFFFF0
00000000000000000000000000FFFFFFF0
00000000000000000000000003FFFFFFE0
3FFFFFFFFFFFFFFFFFFFFFFFFFFFFFFFE0
3FFFFFFFFFFFFFFFFFFFFFFFFFFFFFFFE0
3FFFFFFFFFFFFFFFFFFFFFFFFFFFFFFFC0
3FFFFFFFFFFFFFFFFFFFFFFFFFFFFFFFC0
3FFFFFFFFFFFFFFFFFFFFFFFFFFFFFFF80
3FFFFFFFFFFFFFFFFFFFFFFFFFFFFFFF80
3FFFFFFFFFFFFFFFFFFFFFFFFFFFFFFF00
3FFFFFFFFFFFFFFFFFFFFFFFFFFFFFFE00
3FFFFFFFFFFFFFFFFFFFFFFFFFFFFFFE00
3FFFFFFFFFFFFFFFFFFFFFFFFFFFFFFC00
3FFFFFFFFFFFFFFFFFFFFFFFFFFFFFF800
3FFFFFFFFFFFFFFFFFFFFFFFFFFFFFF000
3FFFFFFFFFFFFFFFFFFFFFFFFFFFFFE000
3FFFFFFFFFFFFFFFFFFFFFFFFFFFFFC000
3FFFFFFFFFFFFFFFFFFFFFFFFFFFFF8000
3FFFFFFFFFFFFFFFFFFFFFFFFFFFFE0000
3FFFFFFFFFFFFFFFFFFFFFFFFFFFFC0000
3FFFFFFFFFFFFFFFFFFFFFFFFFFFF00000
3FFFFFFFFFFFFFFFFFFFFFFFFFFFC00000
3FFFFFFFFFFFFFFFFFFFFFFFFFFE000000
3FFFFFFFFFFFFFFFFFFFFFFFFFF0000000
3FFFFFFFFFFFFFFFFFFFFFFFFE00000000
ENDCHAR
STARTCHAR T
ENCODING 84
SWIDTH 720 0
DWIDTH 123 0
BBX 117 124 3 0
BITMAP
FFFFFFFFFFFFFFFFFFFFFFFFFFFFF8
FFFFFFFFFFFFFFFFFFFFFFFFFFFFF8
FFFFFFFFFFFFFFFFFFFFFFFFFFFFF8
FFFFFFFFFFFFFFFFFFFFFFFFFFFFF8
FFFFFFFFFFFFFFFFFFFFFFFFFFFFF8
FFFFFFFFFFFFFFFFFFFFFFFFFFFFF8
FFFFFFFFFFFFFFFFFFFFFFFFFFFFF8
FFFFFFFFFFFFFFFFFFFFFFFFFFFFF8
FFFFFFFFFFFFFFFFFFFFFFFFFFFFF8
FFFFFFFFFFFFFFFFFFFFFFFFFFFFF8
FFFFFFFFFFFFFFFFFFFFFFFFFFFFF8
FFFFFFFFFFFFFFFFFFFFFFFFFFFFF8
FFFFFFFFFFFFFFFFFFFFFFFFFFFFF8
FFFFFFFFFFFFFFFFFFFFFFFFFFFFF8
FFFFFFFFFFFFFFFFFFFFFFFFFFFFF8
FFFFFFFFFFFFFFFFFFFFFFFFFFFFF8
FFFFFFFFFFFFFFFFFFFFFFFFFFFFF8
FFFFFFFFFFFFFFFFFFFFFFFFFFFFF8
FFFFFFFFFFFFFFFFFFFFFFFFFFFFF8
FFFFFFFFFFFFFFFFFFFFFFFFFFFFF8
FFFFFFFFFFFFFFFFFFFFFFFFFFFFF8
FFFFFFFFFFFFFFFFFFFFFFFFFFFFF8
000000000000FFFFF8000000000000
000000000000FFFFF8000000000000
000000000000FFFFF8000000000000
000000000000FFFFF8000000000000
000000000000FFFFF8000000000000
000000000000FFFFF8000000000000
000000000000FFFFF8000000000000
000000000000FFFFF8000000000000
000000000000FFFFF8000000000000
000000000000FFFFF8000000000000
000000000000FFFFF8000000000000
000000000000FFFFF8000000000000
000000000000FFFFF8000000000000
000000000000FFFFF8000000000000
000000000000FFFFF8000000000000
000000000000FFFFF8000000000000
000000000000FFFFF8000000000000
000000000000FFFFF8000000000000
000000000000FFFFF8000000000000
000000000000FFFFF8000000000000
000000000000FFFFF8000000000000
000000000000FFFFF8000000000000
000000000000FFFFF8000000000000
000000000000FFFFF8000000000000
000000000000FFFFF8000000000000
000000000000FFFFF8000000000000
000000000000FFFFF8000000000000
000000000000FFFFF8000000000000
000000000000FFFFF8000000000000
000000000000FFFFF8000000000000
000000000000FFFFF8000000000000
000000000000FFFFF8000000000000
000000000000FFFFF8000000000000
000000000000FFFFF8000000000000
000000000000FFFFF8000000000000
000000000000FFFFF8000000000000
000000000000FFFFF8000000000000
000000000000FFFFF8000000000000
000000000000FFFFF8000000000000
000000000000FFFFF8000000000000
000000000000FFFFF8000000000000
000000000000FFFFF8000000000000
000000000000FFFFF8000000000000
000000000000FFFFF8000000000000
000000000000FFFFF8000000000000
000000000000FFFFF8000000000000
000000000000FFFFF8000000000000
000000000000FFFFF8000000000000
000000000000FFFFF8000000000000
000000000000FFFFF8000000000000
000000000000FFFFF8000000000000
000000000000FFFFF8000000000000
000000000000FFFFF8000000000000
000000000000FFFFF8000000000000
000000000000FFFFF8000000000000
000000000000FFFFF8000000000000
000000000000FFFFF8000000000000
000000000000FFFFF8000000000000
000000000000FFFFF8000000000000
000000000000FFFFF8000000000000
000000000000FFFFF8000000000000
000000000000FFFFF8000000000000
000000000000FFFFF8000000000000
000000000000FFFFF8000000000000
000000000000FFFFF8000000000000
000000000000FFFFF8000000000000
000000000000FFFFF8000000000000
000000000000FFFFF8000000000000
000000000000FFFFF8000000000000
000000000000FFFFF8000000000000
000000000000FFFFF8000000000000
000000000000FFFFF8000000000000
000000000000FFFFF8000000000000
000000000000FFFFF8000000000000
000000000000FFFFF8000000000000
000000000000FFFFF8000000000000
000000000000FFFFF8000000000000
000000000000FFFFF8000000000000
000000000000FFFFF8000000000000
000000000000FFFFF8000000000000
000000000000FFFFF8000000000000
000000000000FFFFF8000000000000
000000000000FFFFF8000000000000
000000000000FFFFF8000000000000
000000000000FFFFF8000000000000
000000000000FFFFF8000000000000
000000000000FFFFF8000000000000
000000000000FFFFF8000000000000
000000000000FFFFF8000000000000
000000000000FFFFF8000000000000
000000000000FFFFF8000000000000
000000000000FFFFF8000000000000
000000000000FFFFF8000000000000
000000000000FFFFF8000000000000
000000000000FFFFF8000000000000
000000000000FFFFF8000000000000
000000000000FFFFF8000000000000
000000000000FFFFF8000000000000
000000000000FFFFF8000000000000
000000000000FFFFF8000000000000
000000000000FFFFF8000000000000
000000000000FFFFF8000000000000
ENDCHAR
STARTCHAR U
ENCODING 85
SWIDTH 889 0
DWIDTH 152 0
BBX 134 126 9 -2
BITMAP
FFFFFC00000000000000000000007FFFFC
FFFFFC00000000000000000000007FFFFC
FFFFFC00000000000000000000007FFFFC
FFFFFC00000000000000000000007FFFFC
FFFFFC00000000000000000000007FFFFC
FFFFFC00000000000000000000007FFFFC
FFFFFC00000000000000000000007FFFFC
FFFFFC00000000000000000000007FFFFC
FFFFFC00000000000000000000007FFFFC
FFFFFC00000000000000000000007FFFFC
FFFFFC00000000000000000000007FFFFC
FFFFFC00000000000000000000007FFFFC
FFFFFC00000000000000000000007FFFFC
FFFFFC00000000000000000000007FFFFC
FFFFFC00000000000000000000007FFFFC
FFFFFC00000000000000000000007FFFFC
FFFFFC00000000000000000000007FFFFC
FFFFFC00000000000000000000007FFFFC
FFFFFC00000000000000000000007FFFFC
FFFFFC00000000000000000000007FFFFC
FFFFFC00000000000000000000007FFFFC
FFFFFC00000000000000000000007FFFFC
FFFFFC00000000000000000000007FFFFC
FFFFFC00000000000000000000007FFFFC
FFFFFC00000000000000000000007FFFFC
FFFFFC00000000000000000000007FFFFC
FFFFFC00000000000000000000007FFFFC
FFFFFC00000000000000000000007FFFFC
FFFFFC00000000000000000000007FFFFC
FFFFFC00000000000000000000007FFFFC
FFFFFC00000000000000000000007FFFFC
FFFFFC00000000000000000000007FFFFC
FFFFFC00000000000000000000007FFFFC
FFFFFC00000000000000000000007FFFFC
FFFFFC00000000000000000000007FFFFC
FFFFFC00000000000000000000007FFFFC
FFFFFC00000000000000000000007FFFFC
FFFFFC00000000000000000000007FFFFC
FFFFFC00000000000000000000007FFFFC
FFFFFC00000000000000000000007FFFFC
FFFFFC00000000000000000000007FFFFC
FFFFFC00000000000000000000007FFFFC
FFFFFC00000000000000000000007FFFFC
FFFFFC00000000000000000000007FFFFC
FFFFFC00000000000000000000007FFFFC
FFFFFC00000000000000000000007FFFFC
FFFFFC00000000000000000000007FFFFC
FFFFFC00000000000000000000007FFFFC
FFFFFC00000000000000000000007FFFFC
FFFFFC00000000000000000000007FFFFC
FFFFFC00000000000000000000007FFFFC
FFFFFC00000000000000000000007FFFFC
FFFFFC00000000000000000000007FFFFC
FFFFFC00000000000000000000007FFFFC
FFFFFC00000000000000000000007FFFFC
FFFFFC00000000000000000000007FFFFC
FFFFFC00000000000000000000007FFFFC
FFFFFC00000000000000000000007FFFFC
FFFFFC00000000000000000000007FFFFC
FFFFFC00000000000000000000007FFFFC
FFFFFC00000000000000000000007FFFFC
FFFFFC00000000000000000000007FFFFC
FFFFFC00000000000000000000007FFFFC
FFFFFC00000000000000000000007FFFFC
FFFFFC00000000000000000000007FFFFC
FFFFFC00000000000000000000007FFFFC
FFFFFC00000000000000000000007FFFFC
FFFFFC00000000000000000000007FFFFC
FFFFFC00000000000000000000007FFFFC
FFFFFC00000000000000000000007FFFFC
FFFFFC00000000000000000000007FFFFC
FFFFFC00000000000000000000007FFFFC
FFFFFC00000000000000000000007FFFFC
FFFFFC00000000000000000000007FFFFC
FFFFFC00000000000000000000007FFFFC
FFFFFE00000000000000000000007FFFFC
FFFFFE0000000000000000000000FFFFFC
FFFFFE0000000000000000000000FFFFFC
FFFFFE0000000000000000000000FFFFFC
FFFFFE0000000000000000000000FFFFFC
FFFFFE0000000000000000000000FFFFFC
7FFFFF0000000000000000000000FFFFF8
7FFFFF0000000000000000000001FFFFF8
7FFFFF0000000000000000000001FFFFF8
7FFFFF0000000000000000000001FFFFF8
7FFFFF8000000000000000000001FFFFF8
7FFFFF8000000000000000000003FFFFF8
3FFFFF8000000000000000000003FFFFF0
3FFFFFC000000000000000000007FFFFF0
3FFFFFE000000000000000000007FFFFF0
3FFFFFE00000000000000000000FFFFFF0
1FFFFFF00000000000000000001FFFFFE0
1FFFFFF80000000000000000001FFFFFE0
1FFFFFF80000000000000000003FFFFFE0
0FFFFFFC0000000000000000007FFFFFC0
0FFFFFFE000000000000000000FFFFFFC0
0FFFFFFF800000000000000001FFFFFFC0
07FFFFFFC00000000000000007FFFFFF80
07FFFFFFF0000000000000000FFFFFFF80
03FFFFFFFC000000000000003FFFFFFF00
03FFFFFFFF00000000000001FFFFFFFF00
01FFFFFFFFE0000000000007FFFFFFFE00
01FFFFFFFFFE00000000007FFFFFFFFE00
00FFFFFFFFFFF80000001FFFFFFFFFFC00
007FFFFFFFFFFFFFFFFFFFFFFFFFFFF800
007FFFFFFFFFFFFFFFFFFFFFFFFFFFF800
003FFFFFFFFFFFFFFFFFFFFFFFFFFFF000
001FFFFFFFFFFFFFFFFFFFFFFFFFFFE000
000FFFFFFFFFFFFFFFFFFFFFFFFFFFC000
0007FFFFFFFFFFFFFFFFFFFFFFFFFF8000
0003FFFFFFFFFFFFFFFFFFFFFFFFFF0000
0001FFFFFFFFFFFFFFFFFFFFFFFFFE0000
0000FFFFFFFFFFFFFFFFFFFFFFFFFC0000
00007FFFFFFFFFFFFFFFFFFFFFFFF80000
00003FFFFFFFFFFFFFFFFFFFFFFFF00000
00000FFFFFFFFFFFFFFFFFFFFFFFC00000
000007FFFFFFFFFFFFFFFFFFFFFF800000
000001FFFFFFFFFFFFFFFFFFFFFE000000
0000007FFFFFFFFFFFFFFFFFFFF8000000
0000001FFFFFFFFFFFFFFFFFFFE0000000
00000003FFFFFFFFFFFFFFFFFF00000000
00000000FFFFFFFFFFFFFFFFFC00000000
000000000FFFFFFFFFFFFFFFC000000000
0000000000FFFFFFFFFFFFFC0000000000
000000000007FFFFFFFFFF000000000000
00000000000007FFFFFF00000000000000
ENDCHAR
STARTCHAR V
ENCODING 86
SWIDTH 989 0
DWIDTH 169 0
BBX 165 126 2 -2
BITMAP
FFFFFFE0000000000000000000000000001FFFFFF8
7FFFFFF0000000000000000000000000001FFFFFF0
3FFFFFF0000000000000000000000000003FFFFFE0
3FFFFFF8000000000000000000000000003FFFFFC0
1FFFFFFC000000000000000000000000007FFFFFC0
0FFFFFFC00000000000000000000000000FFFFFF80
0FFFFFFE00000000000000000000000000FFFFFF80
07FFFFFE00000000000000000000000001FFFFFF00
03FFFFFF00000000000000000000000001FFFFFE00
03FFFFFF80000000000000000000000003FFFFFE00
01FFFFFF80000000000000000000000007FFFFFC00
01FFFFFFC0000000000000000000000007FFFFFC00
00FFFFFFC000000000000000000000000FFFFFF800
007FFFFFE000000000000000000000000FFFFFF000
007FFFFFE000000000000000000000001FFFFFF000
003FFFFFF000000000000000000000003FFFFFE000
003FFFFFF800000000000000000000003FFFFFE000
001FFFFFF800000000000000000000007FFFFFC000
000FFFFFFC00000000000000000000007FFFFF8000
000FFFFFFC0000000000000000000000FFFFFF8000
0007FFFFFE0000000000000000000000FFFFFF0000
0007FFFFFF0000000000000000000001FFFFFF0000
0003FFFFFF0000000000000000000003FFFFFE0000
0001FFFFFF8000000000000000000003FFFFFC0000
0001FFFFFF8000000000000000000007FFFFFC0000
0000FFFFFFC000000000000000000007FFFFF80000
0000FFFFFFE00000000000000000000FFFFFF80000
00007FFFFFE00000000000000000001FFFFFF00000
00003FFFFFF00000000000000000001FFFFFE00000
00003FFFFFF00000000000000000003FFFFFE00000
00001FFFFFF80000000000000000003FFFFFC00000
00001FFFFFF80000000000000000007FFFFFC00000
00000FFFFFFC000000000000000000FFFFFF800000
000007FFFFFE000000000000000000FFFFFF000000
000007FFFFFE000000000000000001FFFFFF000000
000003FFFFFF000000000000000001FFFFFE000000
000003FFFFFF000000000000000003FFFFFE000000
000001FFFFFF800000000000000003FFFFFC000000
000000FFFFFFC00000000000000007FFFFF8000000
000000FFFFFFC0000000000000000FFFFFF8000000
0000007FFFFFE0000000000000000FFFFFF0000000
0000007FFFFFE0000000000000001FFFFFE0000000
0000003FFFFFF0000000000000001FFFFFE0000000
0000001FFFFFF8000000000000003FFFFFC0000000
0000001FFFFFF8000000000000007FFFFFC0000000
0000000FFFFFFC000000000000007FFFFF80000000
0000000FFFFFFC00000000000000FFFFFF00000000
00000007FFFFFE00000000000000FFFFFF00000000
00000003FFFFFE00000000000001FFFFFE00000000
00000003FFFFFF00000000000003FFFFFE00000000
00000001FFFFFF80000000000003FFFFFC00000000
00000001FFFFFF80000000000007FFFFF800000000
00000000FFFFFFC0000000000007FFFFF800000000
000000007FFFFFC000000000000FFFFFF000000000
000000007FFFFFE000000000000FFFFFF000000000
000000003FFFFFF000000000001FFFFFE000000000
000000003FFFFFF000000000003FFFFFC000000000
000000001FFFFFF800000000003FFFFFC000000000
000000000FFFFFF800000000007FFFFF8000000000
000000000FFFFFFC00000000007FFFFF8000000000
0000000007FFFFFE0000000000FFFFFF0000000000
0000000007FFFFFE0000000001FFFFFE0000000000
0000000003FFFFFF0000000001FFFFFE0000000000
0000000001FFFFFF0000000003FFFFFC0000000000
0000000001FFFFFF8000000003FFFFFC0000000000
0000000000FFFFFF8000000007FFFFF80000000000
0000000000FFFFFFC000000007FFFFF00000000000
00000000007FFFFFE00000000FFFFFF00000000000
00000000003FFFFFE00000001FFFFFE00000000000
00000000003FFFFFF00000001FFFFFE00000000000
00000000001FFFFFF00000003FFFFFC00000000000
00000000000FFFFFF80000003FFFFF800000000000
00000000000FFFFFFC0000007FFFFF800000000000
000000000007FFFFFC000000FFFFFF000000000000
000000000007FFFFFE000000FFFFFF000000000000
000000000003FFFFFE000001FFFFFE000000000000
000000000001FFFFFF000001FFFFFC000000000000
000000000001FFFFFF800003FFFFFC000000000000
000000000000FFFFFF800007FFFFF8000000000000
000000000000FFFFFFC00007FFFFF8000000000000
0000000000007FFFFFC0000FFFFFF0000000000000
0000000000003FFFFFE0000FFFFFE0000000000000
0000000000003FFFFFF0001FFFFFE0000000000000
0000000000001FFFFFF0001FFFFFC0000000000000
0000000000001FFFFFF8003FFFFF80000000000000
0000000000000FFFFFF8007FFFFF80000000000000
00000000000007FFFFFC007FFFFF00000000000000
00000000000007FFFFFC00FFFFFF00000000000000
00000000000003FFFFFE00FFFFFE00000000000000
00000000000003FFFFFF01FFFFFC00000000000000
00000000000001FFFFFF03FFFFFC00000000000000
00000000000000FFFFFF83FFFFF800000000000000
00000000000000FFFFFF87FFFFF800000000000000
000000000000007FFFFFC7FFFFF000000000000000
000000000000007FFFFFEFFFFFE000000000000000
000000000000003FFFFFFFFFFFE000000000000000
000000000000001FFFFFFFFFFFC000000000000000
000000000000001FFFFFFFFFFFC000000000000000
000000000000000FFFFFFFFFFF8000000000000000
000000000000000FFFFFFFFFFF0000000000000000
0000000000000007FFFFFFFFFF0000000000000000
0000000000000003FFFFFFFFFE0000000000000000
0000000000000003FFFFFFFFFE0000000000000000
0000000000000001FFFFFFFFFC0000000000000000
0000000000000001FFFFFFFFF80000000000000000
0000000000000000FFFFFFFFF80000000000000000
00000000000000007FFFFFFFF00000000000000000
00000000000000007FFFFFFFF00000000000000000
00000000000000003FFFFFFFE00000000000000000
00000000000000003FFFFFFFC00000000000000000
00000000000000001FFFFFFFC00000000000000000
00000000000000000FFFFFFF800000000000000000
00000000000000000FFFFFFF800000000000000000
000000000000000007FFFFFF000000000000000000
000000000000000007FFFFFE000000000000000000
000000000000000003FFFFFE000000000000000000
000000000000000001FFFFFC000000000000000000
000000000000000001FFFFFC000000000000000000
000000000000000000FFFFF8000000000000000000
000000000000000000FFFFF0000000000000000000
0000000000000000007FFFF0000000000000000000
0000000000000000003FFFE0000000000000000000
0000000000000000001FFFC0000000000000000000
0000000000000000000FFF80000000000000000000
00000000000000000003FE00000000000000000000
000000000000000000002000000000000000000000
ENDCHAR
STARTCHAR W
ENCODING 87
SWIDTH 1268 0
DWIDTH 217 0
BBX 212 126 2 -2
BITMAP
FFFFFFE000000001FFFFFFC000000000000000000000000FFFFFF0
7FFFFFE000000000FFFFFFC000000000000000000000001FFFFFE0
3FFFFFF000000000FFFFFFE000000000000000000000001FFFFFE0
3FFFFFF0000000007FFFFFE000000000000000000000003FFFFFC0
1FFFFFF8000000003FFFFFF000000000000000000000003FFFFFC0
1FFFFFF8000000003FFFFFF000000000000000000000007FFFFF80
0FFFFFFC000000001FFFFFF800000000000000000000007FFFFF80
0FFFFFFC000000001FFFFFF80000000000000000000000FFFFFF00
07FFFFFE000000000FFFFFFC0000000000000000000001FFFFFF00
03FFFFFE000000000FFFFFFC0000000000000000000001FFFFFE00
03FFFFFF0000000007FFFFFE0000000000000000000003FFFFFE00
01FFFFFF0000000007FFFFFE0000000000000000000003FFFFFC00
01FFFFFF8000000003FFFFFF0000000000000000000007FFFFFC00
00FFFFFF8000000003FFFFFF0000000000000000000007FFFFF800
00FFFFFFC000000001FFFFFF800000000000000000000FFFFFF000
007FFFFFE000000001FFFFFF800000000000000000000FFFFFF000
007FFFFFE000000000FFFFFFC00000000000000000001FFFFFE000
003FFFFFF000000000FFFFFFC00000000000000000001FFFFFE000
003FFFFFF0000000007FFFFFE00000000000000000003FFFFFC000
001FFFFFF8000000007FFFFFE00000000000000000003FFFFFC000
001FFFFFF8000000003FFFFFF00000000000000000007FFFFF8000
000FFFFFFC000000003FFFFFF00000000000000000007FFFFF8000
0007FFFFFC000000001FFFFFF8000000000000000000FFFFFF0000
0007FFFFFE000000001FFFFFF8000000000000000000FFFFFF0000
0003FFFFFE000000000FFFFFFC000000000000000001FFFFFE0000
0003FFFFFF000000000FFFFFFC000000000000000003FFFFFE0000
0001FFFFFF0000000007FFFFFE000000000000000003FFFFFC0000
0001FFFFFF8000000003FFFFFE000000000000000007FFFFF80000
0000FFFFFF8000000003FFFFFF000000000000000007FFFFF80000
0000FFFFFFC000000001FFFFFF00000000000000000FFFFFF00000
00007FFFFFC000000001FFFFFF80000000000000000FFFFFF00000
00007FFFFFE000000000FFFFFF80000000000000001FFFFFE00000
00003FFFFFE000000000FFFFFFC0000000000000001FFFFFE00000
00003FFFFFF0000000007FFFFFC0000000000000003FFFFFC00000
00001FFFFFF8000000007FFFFFE0000000000000003FFFFFC00000
00000FFFFFF8000000003FFFFFE0000000000000007FFFFF800000
00000FFFFFFC000000003FFFFFF0000000000000007FFFFF800000
000007FFFFFC000000001FFFFFF000000000000000FFFFFF000000
000007FFFFFE000000001FFFFFF800000000000000FFFFFF000000
000003FFFFFE000000000FFFFFF800000000000001FFFFFE000000
000003FFFFFF000000000FFFFFFC00000000000001FFFFFC000000
000001FFFFFF0000000007FFFFFC00000000000003FFFFFC000000
000001FFFFFF8000000007FFFFFE00000000000007FFFFF8000000
000000FFFFFF8000000003FFFFFE00000000000007FFFFF8000000
000000FFFFFFC000000003FFFFFF0000000000000FFFFFF0000000
0000007FFFFFC000000001FFFFFF0000000000000FFFFFF0000000
0000007FFFFFE000000001FFFFFF8000000000001FFFFFE0000000
0000003FFFFFE000000000FFFFFF8000000000001FFFFFE0000000
0000001FFFFFF000000000FFFFFFC000000000003FFFFFC0000000
0000001FFFFFF0000000007FFFFFC000000000003FFFFFC0000000
0000000FFFFFF8000000003FFFFFE000000000007FFFFF80000000
0000000FFFFFF8000000003FFFFFE000000000007FFFFF00000000
00000007FFFFFC000000001FFFFFF00000000000FFFFFF00000000
00000007FFFFFE000000001FFFFFF00000000000FFFFFE00000000
00000003FFFFFE000000000FFFFFF80000000001FFFFFE00000000
00000003FFFFFF000000000FFFFFF80000000001FFFFFC00000000
00000001FFFFFF0000000007FFFFFC0000000003FFFFFC00000000
00000001FFFFFF8000000007FFFFFC0000000003FFFFF800000000
00000000FFFFFF8000000003FFFFFE0000000007FFFFF800000000
00000000FFFFFFC000000003FFFFFE000000000FFFFFF000000000
000000007FFFFFC000000001FFFFFF000000000FFFFFF000000000
000000003FFFFFE000000001FFFFFF000000001FFFFFE000000000
000000003FFFFFE000000001FFFFFF800000001FFFFFE000000000
000000001FFFFFF000000001FFFFFF800000003FFFFFC000000000
000000001FFFFFF000000003FFFFFFC00000003FFFFF8000000000
000000000FFFFFF800000007FFFFFFC00000007FFFFF8000000000
000000000FFFFFF800000007FFFFFFE00000007FFFFF0000000000
0000000007FFFFFC0000000FFFFFFFE0000000FFFFFF0000000000
0000000007FFFFFC0000000FFFFFFFF0000000FFFFFE0000000000
0000000003FFFFFE0000001FFFFFFFF0000001FFFFFE0000000000
0000000003FFFFFE0000001FFFFFFFF8000001FFFFFC0000000000
0000000001FFFFFF0000003FFFFFFFF8000003FFFFFC0000000000
0000000000FFFFFF8000003FFFFFFFFC000003FFFFF80000000000
0000000000FFFFFF8000007FFFFFFFFC000007FFFFF80000000000
00000000007FFFFFC00000FFFFFFFFFE000007FFFFF00000000000
00000000007FFFFFC00000FFFFFFFFFE00000FFFFFF00000000000
00000000003FFFFFE00001FFFFFFFFFF00001FFFFFE00000000000
00000000003FFFFFE00001FFFFFFFFFF00001FFFFFC00000000000
00000000001FFFFFF00003FFFFFFFFFF80003FFFFFC00000000000
00000000001FFFFFF00003FFFFFFFFFF80003FFFFF800000000000
00000000000FFFFFF80007FFFFFFFFFFC0007FFFFF800000000000
00000000000FFFFFF80007FFFFFFFFFFC0007FFFFF000000000000
000000000007FFFFFC000FFFFFFFFFFFE000FFFFFF000000000000
000000000007FFFFFC001FFFFFDFFFFFE000FFFFFE000000000000
000000000003FFFFFE001FFFFFDFFFFFF001FFFFFE000000000000
000000000001FFFFFE003FFFFF8FFFFFF001FFFFFC000000000000
000000000001FFFFFF003FFFFF0FFFFFF803FFFFFC000000000000
000000000000FFFFFF007FFFFF07FFFFF803FFFFF8000000000000
000000000000FFFFFF807FFFFE07FFFFFC07FFFFF8000000000000
0000000000007FFFFF80FFFFFE03FFFFFC07FFFFF0000000000000
0000000000007FFFFFC1FFFFFC03FFFFFE0FFFFFE0000000000000
0000000000003FFFFFC1FFFFFC01FFFFFE0FFFFFE0000000000000
0000000000003FFFFFE3FFFFF801FFFFFF1FFFFFC0000000000000
0000000000001FFFFFF3FFFFF800FFFFFF3FFFFFC0000000000000
0000000000001FFFFFF7FFFFF0007FFFFFBFFFFF80000000000000
0000000000000FFFFFFFFFFFF0007FFFFFFFFFFF80000000000000
0000000000000FFFFFFFFFFFE0003FFFFFFFFFFF00000000000000
00000000000007FFFFFFFFFFE0003FFFFFFFFFFF00000000000000
00000000000003FFFFFFFFFFC0001FFFFFFFFFFE00000000000000
00000000000003FFFFFFFFFFC0001FFFFFFFFFFE00000000000000
00000000000001FFFFFFFFFF80000FFFFFFFFFFC00000000000000
00000000000001FFFFFFFFFF80000FFFFFFFFFFC00000000000000
00000000000000FFFFFFFFFF000007FFFFFFFFF800000000000000
00000000000000FFFFFFFFFE000007FFFFFFFFF000000000000000
000000000000007FFFFFFFFE000003FFFFFFFFF000000000000000
000000000000007FFFFFFFFC000003FFFFFFFFE000000000000000
000000000000003FFFFFFFFC000001FFFFFFFFE000000000000000
000000000000003FFFFFFFF8000001FFFFFFFFC000000000000000
000000000000001FFFFFFFF8000000FFFFFFFFC000000000000000
000000000000001FFFFFFFF0000000FFFFFFFF8000000000000000
000000000000000FFFFFFFF00000007FFFFFFF8000000000000000
0000000000000007FFFFFFE00000003FFFFFFF0000000000000000
0000000000000007FFFFFFE00000003FFFFFFF0000000000000000
0000000000000003FFFFFFC00000001FFFFFFE0000000000000000
0000000000000003FFFFFFC00000001FFFFFFE0000000000000000
0000000000000001FFFFFF800000000FFFFFFC0000000000000000
0000000000000001FFFFFF800000000FFFFFF80000000000000000
0000000000000000FFFFFF0000000007FFFFF80000000000000000
0000000000000000FFFFFE0000000007FFFFF00000000000000000
00000000000000007FFFFE0000000003FFFFF00000000000000000
00000000000000007FFFFC0000000003FFFFE00000000000000000
00000000000000003FFFFC0000000001FFFFC00000000000000000
00000000000000001FFFF80000000000FFFF800000000000000000
00000000000000000FFFE000000000007FFF000000000000000000
000000000000000003FFC000000000001FFE000000000000000000
000000000000000000FE00000000000007F0000000000000000000
ENDCHAR
STARTCHAR X
ENCODING 88
SWIDTH 1000 0
DWIDTH 171 0
BBX 162 124 4 0
BITMAP
07FFFFFFE00000000000000000000000FFFFFFF800
03FFFFFFF00000000000000000000001FFFFFFE000
01FFFFFFF80000000000000000000003FFFFFFC000
00FFFFFFFC0000000000000000000007FFFFFF8000
007FFFFFFE000000000000000000000FFFFFFF0000
003FFFFFFF000000000000000000001FFFFFFE0000
001FFFFFFF800000000000000000003FFFFFFC0000
000FFFFFFFC00000000000000000007FFFFFF80000
0007FFFFFFE0000000000000000000FFFFFFF00000
0003FFFFFFF0000000000000000001FFFFFFE00000
0001FFFFFFF8000000000000000003FFFFFFC00000
0000FFFFFFFC000000000000000007FFFFFF800000
00007FFFFFFE00000000000000000FFFFFFF000000
00003FFFFFFF00000000000000001FFFFFFE000000
00001FFFFFFF80000000000000003FFFFFFC000000
00000FFFFFFFC0000000000000007FFFFFF8000000
000007FFFFFFE000000000000000FFFFFFF0000000
000003FFFFFFF000000000000001FFFFFFE0000000
000001FFFFFFF800000000000003FFFFFFC0000000
000000FFFFFFFC00000000000007FFFFFF80000000
0000003FFFFFFE0000000000000FFFFFFF00000000
0000001FFFFFFF0000000000001FFFFFFE00000000
0000000FFFFFFF8000000000003FFFFFFC00000000
00000007FFFFFFC000000000007FFFFFF800000000
00000003FFFFFFE00000000000FFFFFFF000000000
00000001FFFFFFF00000000001FFFFFFE000000000
00000000FFFFFFF80000000003FFFFFFC000000000
000000007FFFFFFC0000000007FFFFFF8000000000
000000003FFFFFFE000000000FFFFFFF0000000000
000000001FFFFFFF000000001FFFFFFE0000000000
000000000FFFFFFF800000003FFFFFFC0000000000
0000000007FFFFFFC00000007FFFFFF80000000000
0000000003FFFFFFE0000000FFFFFFF00000000000
0000000001FFFFFFF0000001FFFFFFC00000000000
0000000000FFFFFFF8000003FFFFFF800000000000
00000000007FFFFFFC000007FFFFFF000000000000
00000000003FFFFFFE00000FFFFFFE000000000000
00000000001FFFFFFF00001FFFFFFC000000000000
00000000000FFFFFFF80003FFFFFF8000000000000
000000000007FFFFFFC0007FFFFFF0000000000000
000000000003FFFFFFE000FFFFFFE0000000000000
000000000001FFFFFFF001FFFFFFC0000000000000
000000000000FFFFFFF803FFFFFF80000000000000
0000000000007FFFFFFC07FFFFFF00000000000000
0000000000003FFFFFFE0FFFFFFE00000000000000
0000000000001FFFFFFF1FFFFFFC00000000000000
0000000000000FFFFFFFBFFFFFF800000000000000
00000000000007FFFFFFFFFFFFF000000000000000
00000000000003FFFFFFFFFFFFE000000000000000
00000000000001FFFFFFFFFFFFC000000000000000
00000000000000FFFFFFFFFFFF8000000000000000
000000000000007FFFFFFFFFFF0000000000000000
000000000000003FFFFFFFFFFE0000000000000000
000000000000001FFFFFFFFFFC0000000000000000
000000000000000FFFFFFFFFF80000000000000000
0000000000000007FFFFFFFFF00000000000000000
0000000000000003FFFFFFFFE00000000000000000
0000000000000001FFFFFFFFC00000000000000000
0000000000000000FFFFFFFF800000000000000000
00000000000000007FFFFFFF000000000000000000
00000000000000003FFFFFFE000000000000000000
00000000000000007FFFFFFF000000000000000000
0000000000000000FFFFFFFF800000000000000000
0000000000000001FFFFFFFFC00000000000000000
0000000000000003FFFFFFFFE00000000000000000
0000000000000007FFFFFFFFF00000000000000000
000000000000000FFFFFFFFFF80000000000000000
000000000000001FFFFFFFFFFC0000000000000000
000000000000003FFFFFFFFFFE0000000000000000
000000000000007FFFFFFFFFFF0000000000000000
00000000000000FFFFFFFFFFFF8000000000000000
00000000000001FFFFFFFFFFFFE000000000000000
00000000000003FFFFFFFFFFFFF000000000000000
00000000000007FFFFFFFFFFFFF800000000000000
0000000000000FFFFFFEFFFFFFFC00000000000000
0000000000001FFFFFFC7FFFFFFE00000000000000
0000000000003FFFFFF83FFFFFFF00000000000000
0000000000007FFFFFF01FFFFFFF80000000000000
000000000000FFFFFFE00FFFFFFFC0000000000000
000000000001FFFFFFC007FFFFFFE0000000000000
000000000007FFFFFF8003FFFFFFF0000000000000
00000000000FFFFFFF0001FFFFFFF8000000000000
00000000001FFFFFFE0000FFFFFFFC000000000000
00000000003FFFFFFC00007FFFFFFE000000000000
00000000007FFFFFF800003FFFFFFF000000000000
0000000000FFFFFFF000001FFFFFFF800000000000
0000000001FFFFFFE0000007FFFFFFC00000000000
0000000003FFFFFFC0000003FFFFFFE00000000000
0000000007FFFFFF80000001FFFFFFF80000000000
000000000FFFFFFF00000000FFFFFFFC0000000000
000000001FFFFFFE000000007FFFFFFE0000000000
000000003FFFFFFC000000003FFFFFFF0000000000
000000007FFFFFF8000000001FFFFFFF8000000000
00000000FFFFFFF0000000000FFFFFFFC000000000
00000001FFFFFFE00000000007FFFFFFE000000000
00000003FFFFFFC00000000003FFFFFFF000000000
00000007FFFFFF000000000001FFFFFFF800000000
0000000FFFFFFE000000000000FFFFFFFC00000000
0000001FFFFFFC0000000000007FFFFFFE00000000
0000007FFFFFF80000000000003FFFFFFF00000000
000000FFFFFFF00000000000001FFFFFFF80000000
000001FFFFFFE00000000000000FFFFFFFC0000000
000003FFFFFFC000000000000007FFFFFFE0000000
000007FFFFFF8000000000000003FFFFFFF0000000
00000FFFFFFF0000000000000001FFFFFFFC000000
00001FFFFFFE0000000000000000FFFFFFFE000000
00003FFFFFFC00000000000000007FFFFFFF000000
00007FFFFFF800000000000000001FFFFFFF800000
0000FFFFFFF000000000000000000FFFFFFFC00000
0001FFFFFFE0000000000000000007FFFFFFE00000
0003FFFFFFC0000000000000000003FFFFFFF00000
0007FFFFFF80000000000000000001FFFFFFF80000
000FFFFFFF00000000000000000000FFFFFFFC0000
001FFFFFFE000000000000000000007FFFFFFE0000
003FFFFFFC000000000000000000003FFFFFFF0000
007FFFFFF8000000000000000000001FFFFFFF8000
00FFFFFFF0000000000000000000000FFFFFFFC000
01FFFFFFE00000000000000000000007FFFFFFE000
03FFFFFFC00000000000000000000003FFFFFFF000
0FFFFFFF800000000000000000000001FFFFFFF800
1FFFFFFF000000000000000000000000FFFFFFFE00
3FFFFFFE0000000000000000000000007FFFFFFF00
7FFFFFFC0000000000000000000000003FFFFFFF80
FFFFFFF80000000000000000000000001FFFFFFFC0
ENDCHAR
ENDFONT
